<?xml version="1.0" encoding="utf-8" standalone="no"?>
<!DOCTYPE svg PUBLIC "-//W3C//DTD SVG 1.1//EN"
  "http://www.w3.org/Graphics/SVG/1.1/DTD/svg11.dtd">
<!-- Created with matplotlib (https://matplotlib.org/) -->
<svg height="396pt" version="1.1" viewBox="0 0 576 396" width="576pt" xmlns="http://www.w3.org/2000/svg" xmlns:xlink="http://www.w3.org/1999/xlink">
 <defs>
  <style type="text/css">
*{stroke-linecap:butt;stroke-linejoin:round;}
  </style>
 </defs>
 <g id="figure_1">
  <g id="patch_1">
   <path d="M 0 396 
L 576 396 
L 576 0 
L 0 0 
z
" style="fill:#ffffff;"/>
  </g>
  <g id="axes_1">
   <g id="patch_2">
    <path d="M 72 346.5 
L 518.4 346.5 
L 518.4 47.52 
L 72 47.52 
z
" style="fill:#eaeaf2;"/>
   </g>
   <g id="matplotlib.axis_1">
    <g id="xtick_1">
     <g id="line2d_1">
      <path clip-path="url(#pc3252c942e)" d="M 92.290909 346.5 
L 92.290909 47.52 
" style="fill:none;stroke:#ffffff;stroke-linecap:round;"/>
     </g>
     <g id="line2d_2"/>
     <g id="text_1">
      <!-- 15/12 to  -->
      <defs>
       <path d="M 37.25 0 
L 28.46875 0 
L 28.46875 56 
Q 25.296875 52.984375 20.140625 49.953125 
Q 14.984375 46.921875 10.890625 45.40625 
L 10.890625 53.90625 
Q 18.265625 57.375 23.78125 62.296875 
Q 29.296875 67.234375 31.59375 71.875 
L 37.25 71.875 
z
" id="ArialMT-49"/>
       <path d="M 4.15625 18.75 
L 13.375 19.53125 
Q 14.40625 12.796875 18.140625 9.390625 
Q 21.875 6 27.15625 6 
Q 33.5 6 37.890625 10.78125 
Q 42.28125 15.578125 42.28125 23.484375 
Q 42.28125 31 38.0625 35.34375 
Q 33.84375 39.703125 27 39.703125 
Q 22.75 39.703125 19.328125 37.765625 
Q 15.921875 35.84375 13.96875 32.765625 
L 5.71875 33.84375 
L 12.640625 70.609375 
L 48.25 70.609375 
L 48.25 62.203125 
L 19.671875 62.203125 
L 15.828125 42.96875 
Q 22.265625 47.46875 29.34375 47.46875 
Q 38.71875 47.46875 45.15625 40.96875 
Q 51.609375 34.46875 51.609375 24.265625 
Q 51.609375 14.546875 45.953125 7.46875 
Q 39.0625 -1.21875 27.15625 -1.21875 
Q 17.390625 -1.21875 11.203125 4.25 
Q 5.03125 9.71875 4.15625 18.75 
z
" id="ArialMT-53"/>
       <path d="M 0 -1.21875 
L 20.75 72.796875 
L 27.78125 72.796875 
L 7.078125 -1.21875 
z
" id="ArialMT-47"/>
       <path d="M 50.34375 8.453125 
L 50.34375 0 
L 3.03125 0 
Q 2.9375 3.171875 4.046875 6.109375 
Q 5.859375 10.9375 9.828125 15.625 
Q 13.8125 20.3125 21.34375 26.46875 
Q 33.015625 36.03125 37.109375 41.625 
Q 41.21875 47.21875 41.21875 52.203125 
Q 41.21875 57.421875 37.46875 61 
Q 33.734375 64.59375 27.734375 64.59375 
Q 21.390625 64.59375 17.578125 60.78125 
Q 13.765625 56.984375 13.71875 50.25 
L 4.6875 51.171875 
Q 5.609375 61.28125 11.65625 66.578125 
Q 17.71875 71.875 27.9375 71.875 
Q 38.234375 71.875 44.234375 66.15625 
Q 50.25 60.453125 50.25 52 
Q 50.25 47.703125 48.484375 43.546875 
Q 46.734375 39.40625 42.65625 34.8125 
Q 38.578125 30.21875 29.109375 22.21875 
Q 21.1875 15.578125 18.9375 13.203125 
Q 16.703125 10.84375 15.234375 8.453125 
z
" id="ArialMT-50"/>
       <path id="ArialMT-32"/>
       <path d="M 25.78125 7.859375 
L 27.046875 0.09375 
Q 23.34375 -0.6875 20.40625 -0.6875 
Q 15.625 -0.6875 12.984375 0.828125 
Q 10.359375 2.34375 9.28125 4.8125 
Q 8.203125 7.28125 8.203125 15.1875 
L 8.203125 45.015625 
L 1.765625 45.015625 
L 1.765625 51.859375 
L 8.203125 51.859375 
L 8.203125 64.703125 
L 16.9375 69.96875 
L 16.9375 51.859375 
L 25.78125 51.859375 
L 25.78125 45.015625 
L 16.9375 45.015625 
L 16.9375 14.703125 
Q 16.9375 10.9375 17.40625 9.859375 
Q 17.875 8.796875 18.921875 8.15625 
Q 19.96875 7.515625 21.921875 7.515625 
Q 23.390625 7.515625 25.78125 7.859375 
z
" id="ArialMT-116"/>
       <path d="M 3.328125 25.921875 
Q 3.328125 40.328125 11.328125 47.265625 
Q 18.015625 53.03125 27.640625 53.03125 
Q 38.328125 53.03125 45.109375 46.015625 
Q 51.90625 39.015625 51.90625 26.65625 
Q 51.90625 16.65625 48.90625 10.90625 
Q 45.90625 5.171875 40.15625 2 
Q 34.421875 -1.171875 27.640625 -1.171875 
Q 16.75 -1.171875 10.03125 5.8125 
Q 3.328125 12.796875 3.328125 25.921875 
z
M 12.359375 25.921875 
Q 12.359375 15.96875 16.703125 11.015625 
Q 21.046875 6.0625 27.640625 6.0625 
Q 34.1875 6.0625 38.53125 11.03125 
Q 42.875 16.015625 42.875 26.21875 
Q 42.875 35.84375 38.5 40.796875 
Q 34.125 45.75 27.640625 45.75 
Q 21.046875 45.75 16.703125 40.8125 
Q 12.359375 35.890625 12.359375 25.921875 
z
" id="ArialMT-111"/>
      </defs>
      <g style="fill:#262626;" transform="translate(53.373722 367.815625)scale(0.2 -0.2)">
       <use xlink:href="#ArialMT-49"/>
       <use x="55.615234" xlink:href="#ArialMT-53"/>
       <use x="111.230469" xlink:href="#ArialMT-47"/>
       <use x="139.013672" xlink:href="#ArialMT-49"/>
       <use x="194.628906" xlink:href="#ArialMT-50"/>
       <use x="250.244141" xlink:href="#ArialMT-32"/>
       <use x="278.027344" xlink:href="#ArialMT-116"/>
       <use x="305.810547" xlink:href="#ArialMT-111"/>
       <use x="361.425781" xlink:href="#ArialMT-32"/>
      </g>
      <!--  16/01 -->
      <defs>
       <path d="M 49.75 54.046875 
L 41.015625 53.375 
Q 39.84375 58.546875 37.703125 60.890625 
Q 34.125 64.65625 28.90625 64.65625 
Q 24.703125 64.65625 21.53125 62.3125 
Q 17.390625 59.28125 14.984375 53.46875 
Q 12.59375 47.65625 12.5 36.921875 
Q 15.671875 41.75 20.265625 44.09375 
Q 24.859375 46.4375 29.890625 46.4375 
Q 38.671875 46.4375 44.84375 39.96875 
Q 51.03125 33.5 51.03125 23.25 
Q 51.03125 16.5 48.125 10.71875 
Q 45.21875 4.9375 40.140625 1.859375 
Q 35.0625 -1.21875 28.609375 -1.21875 
Q 17.625 -1.21875 10.6875 6.859375 
Q 3.765625 14.9375 3.765625 33.5 
Q 3.765625 54.25 11.421875 63.671875 
Q 18.109375 71.875 29.4375 71.875 
Q 37.890625 71.875 43.28125 67.140625 
Q 48.6875 62.40625 49.75 54.046875 
z
M 13.875 23.1875 
Q 13.875 18.65625 15.796875 14.5 
Q 17.71875 10.359375 21.1875 8.171875 
Q 24.65625 6 28.46875 6 
Q 34.03125 6 38.03125 10.484375 
Q 42.046875 14.984375 42.046875 22.703125 
Q 42.046875 30.125 38.078125 34.390625 
Q 34.125 38.671875 28.125 38.671875 
Q 22.171875 38.671875 18.015625 34.390625 
Q 13.875 30.125 13.875 23.1875 
z
" id="ArialMT-54"/>
       <path d="M 4.15625 35.296875 
Q 4.15625 48 6.765625 55.734375 
Q 9.375 63.484375 14.515625 67.671875 
Q 19.671875 71.875 27.484375 71.875 
Q 33.25 71.875 37.59375 69.546875 
Q 41.9375 67.234375 44.765625 62.859375 
Q 47.609375 58.5 49.21875 52.21875 
Q 50.828125 45.953125 50.828125 35.296875 
Q 50.828125 22.703125 48.234375 14.96875 
Q 45.65625 7.234375 40.5 3 
Q 35.359375 -1.21875 27.484375 -1.21875 
Q 17.140625 -1.21875 11.234375 6.203125 
Q 4.15625 15.140625 4.15625 35.296875 
z
M 13.1875 35.296875 
Q 13.1875 17.671875 17.3125 11.828125 
Q 21.4375 6 27.484375 6 
Q 33.546875 6 37.671875 11.859375 
Q 41.796875 17.71875 41.796875 35.296875 
Q 41.796875 52.984375 37.671875 58.78125 
Q 33.546875 64.59375 27.390625 64.59375 
Q 21.34375 64.59375 17.71875 59.46875 
Q 13.1875 52.9375 13.1875 35.296875 
z
" id="ArialMT-48"/>
      </defs>
      <g style="fill:#262626;" transform="translate(64.490909 388.969375)scale(0.2 -0.2)">
       <use xlink:href="#ArialMT-32"/>
       <use x="27.783203" xlink:href="#ArialMT-49"/>
       <use x="83.398438" xlink:href="#ArialMT-54"/>
       <use x="139.013672" xlink:href="#ArialMT-47"/>
       <use x="166.796875" xlink:href="#ArialMT-48"/>
       <use x="222.412109" xlink:href="#ArialMT-49"/>
      </g>
     </g>
    </g>
    <g id="xtick_2">
     <g id="line2d_3">
      <path clip-path="url(#pc3252c942e)" d="M 193.745455 346.5 
L 193.745455 47.52 
" style="fill:none;stroke:#ffffff;stroke-linecap:round;"/>
     </g>
     <g id="line2d_4"/>
     <g id="text_2">
      <!-- 17/01 to  -->
      <defs>
       <path d="M 4.734375 62.203125 
L 4.734375 70.65625 
L 51.078125 70.65625 
L 51.078125 63.8125 
Q 44.234375 56.546875 37.515625 44.484375 
Q 30.8125 32.421875 27.15625 19.671875 
Q 24.515625 10.6875 23.78125 0 
L 14.75 0 
Q 14.890625 8.453125 18.0625 20.40625 
Q 21.234375 32.375 27.171875 43.484375 
Q 33.109375 54.59375 39.796875 62.203125 
z
" id="ArialMT-55"/>
      </defs>
      <g style="fill:#262626;" transform="translate(154.828267 367.815625)scale(0.2 -0.2)">
       <use xlink:href="#ArialMT-49"/>
       <use x="55.615234" xlink:href="#ArialMT-55"/>
       <use x="111.230469" xlink:href="#ArialMT-47"/>
       <use x="139.013672" xlink:href="#ArialMT-48"/>
       <use x="194.628906" xlink:href="#ArialMT-49"/>
       <use x="250.244141" xlink:href="#ArialMT-32"/>
       <use x="278.027344" xlink:href="#ArialMT-116"/>
       <use x="305.810547" xlink:href="#ArialMT-111"/>
       <use x="361.425781" xlink:href="#ArialMT-32"/>
      </g>
      <!--  17/02 -->
      <g style="fill:#262626;" transform="translate(165.945455 388.969375)scale(0.2 -0.2)">
       <use xlink:href="#ArialMT-32"/>
       <use x="27.783203" xlink:href="#ArialMT-49"/>
       <use x="83.398438" xlink:href="#ArialMT-55"/>
       <use x="139.013672" xlink:href="#ArialMT-47"/>
       <use x="166.796875" xlink:href="#ArialMT-48"/>
       <use x="222.412109" xlink:href="#ArialMT-50"/>
      </g>
     </g>
    </g>
    <g id="xtick_3">
     <g id="line2d_5">
      <path clip-path="url(#pc3252c942e)" d="M 295.2 346.5 
L 295.2 47.52 
" style="fill:none;stroke:#ffffff;stroke-linecap:round;"/>
     </g>
     <g id="line2d_6"/>
     <g id="text_3">
      <!-- 18/02 to  -->
      <defs>
       <path d="M 17.671875 38.8125 
Q 12.203125 40.828125 9.5625 44.53125 
Q 6.9375 48.25 6.9375 53.421875 
Q 6.9375 61.234375 12.546875 66.546875 
Q 18.171875 71.875 27.484375 71.875 
Q 36.859375 71.875 42.578125 66.421875 
Q 48.296875 60.984375 48.296875 53.171875 
Q 48.296875 48.1875 45.671875 44.5 
Q 43.0625 40.828125 37.75 38.8125 
Q 44.34375 36.671875 47.78125 31.875 
Q 51.21875 27.09375 51.21875 20.453125 
Q 51.21875 11.28125 44.71875 5.03125 
Q 38.234375 -1.21875 27.640625 -1.21875 
Q 17.046875 -1.21875 10.546875 5.046875 
Q 4.046875 11.328125 4.046875 20.703125 
Q 4.046875 27.6875 7.59375 32.390625 
Q 11.140625 37.109375 17.671875 38.8125 
z
M 15.921875 53.71875 
Q 15.921875 48.640625 19.1875 45.40625 
Q 22.46875 42.1875 27.6875 42.1875 
Q 32.765625 42.1875 36.015625 45.375 
Q 39.265625 48.578125 39.265625 53.21875 
Q 39.265625 58.0625 35.90625 61.359375 
Q 32.5625 64.65625 27.59375 64.65625 
Q 22.5625 64.65625 19.234375 61.421875 
Q 15.921875 58.203125 15.921875 53.71875 
z
M 13.09375 20.65625 
Q 13.09375 16.890625 14.875 13.375 
Q 16.65625 9.859375 20.171875 7.921875 
Q 23.6875 6 27.734375 6 
Q 34.03125 6 38.125 10.046875 
Q 42.234375 14.109375 42.234375 20.359375 
Q 42.234375 26.703125 38.015625 30.859375 
Q 33.796875 35.015625 27.4375 35.015625 
Q 21.234375 35.015625 17.15625 30.90625 
Q 13.09375 26.8125 13.09375 20.65625 
z
" id="ArialMT-56"/>
      </defs>
      <g style="fill:#262626;" transform="translate(256.282812 367.815625)scale(0.2 -0.2)">
       <use xlink:href="#ArialMT-49"/>
       <use x="55.615234" xlink:href="#ArialMT-56"/>
       <use x="111.230469" xlink:href="#ArialMT-47"/>
       <use x="139.013672" xlink:href="#ArialMT-48"/>
       <use x="194.628906" xlink:href="#ArialMT-50"/>
       <use x="250.244141" xlink:href="#ArialMT-32"/>
       <use x="278.027344" xlink:href="#ArialMT-116"/>
       <use x="305.810547" xlink:href="#ArialMT-111"/>
       <use x="361.425781" xlink:href="#ArialMT-32"/>
      </g>
      <!--  18/03 -->
      <defs>
       <path d="M 4.203125 18.890625 
L 12.984375 20.0625 
Q 14.5 12.59375 18.140625 9.296875 
Q 21.78125 6 27 6 
Q 33.203125 6 37.46875 10.296875 
Q 41.75 14.59375 41.75 20.953125 
Q 41.75 27 37.796875 30.921875 
Q 33.84375 34.859375 27.734375 34.859375 
Q 25.25 34.859375 21.53125 33.890625 
L 22.515625 41.609375 
Q 23.390625 41.5 23.921875 41.5 
Q 29.546875 41.5 34.03125 44.421875 
Q 38.53125 47.359375 38.53125 53.46875 
Q 38.53125 58.296875 35.25 61.46875 
Q 31.984375 64.65625 26.8125 64.65625 
Q 21.6875 64.65625 18.265625 61.421875 
Q 14.84375 58.203125 13.875 51.765625 
L 5.078125 53.328125 
Q 6.6875 62.15625 12.390625 67.015625 
Q 18.109375 71.875 26.609375 71.875 
Q 32.46875 71.875 37.390625 69.359375 
Q 42.328125 66.84375 44.9375 62.5 
Q 47.5625 58.15625 47.5625 53.265625 
Q 47.5625 48.640625 45.0625 44.828125 
Q 42.578125 41.015625 37.703125 38.765625 
Q 44.046875 37.3125 47.5625 32.6875 
Q 51.078125 28.078125 51.078125 21.140625 
Q 51.078125 11.765625 44.234375 5.25 
Q 37.40625 -1.265625 26.953125 -1.265625 
Q 17.53125 -1.265625 11.296875 4.34375 
Q 5.078125 9.96875 4.203125 18.890625 
z
" id="ArialMT-51"/>
      </defs>
      <g style="fill:#262626;" transform="translate(267.4 388.969375)scale(0.2 -0.2)">
       <use xlink:href="#ArialMT-32"/>
       <use x="27.783203" xlink:href="#ArialMT-49"/>
       <use x="83.398438" xlink:href="#ArialMT-56"/>
       <use x="139.013672" xlink:href="#ArialMT-47"/>
       <use x="166.796875" xlink:href="#ArialMT-48"/>
       <use x="222.412109" xlink:href="#ArialMT-51"/>
      </g>
     </g>
    </g>
    <g id="xtick_4">
     <g id="line2d_7">
      <path clip-path="url(#pc3252c942e)" d="M 396.654545 346.5 
L 396.654545 47.52 
" style="fill:none;stroke:#ffffff;stroke-linecap:round;"/>
     </g>
     <g id="line2d_8"/>
     <g id="text_4">
      <!-- 19/03 to  -->
      <defs>
       <path d="M 5.46875 16.546875 
L 13.921875 17.328125 
Q 14.984375 11.375 18.015625 8.6875 
Q 21.046875 6 25.78125 6 
Q 29.828125 6 32.875 7.859375 
Q 35.9375 9.71875 37.890625 12.8125 
Q 39.84375 15.921875 41.15625 21.1875 
Q 42.484375 26.46875 42.484375 31.9375 
Q 42.484375 32.515625 42.4375 33.6875 
Q 39.796875 29.5 35.234375 26.875 
Q 30.671875 24.265625 25.34375 24.265625 
Q 16.453125 24.265625 10.296875 30.703125 
Q 4.15625 37.15625 4.15625 47.703125 
Q 4.15625 58.59375 10.578125 65.234375 
Q 17 71.875 26.65625 71.875 
Q 33.640625 71.875 39.421875 68.109375 
Q 45.21875 64.359375 48.21875 57.390625 
Q 51.21875 50.4375 51.21875 37.25 
Q 51.21875 23.53125 48.234375 15.40625 
Q 45.265625 7.28125 39.375 3.03125 
Q 33.5 -1.21875 25.59375 -1.21875 
Q 17.1875 -1.21875 11.859375 3.4375 
Q 6.546875 8.109375 5.46875 16.546875 
z
M 41.453125 48.140625 
Q 41.453125 55.71875 37.421875 60.15625 
Q 33.40625 64.59375 27.734375 64.59375 
Q 21.875 64.59375 17.53125 59.8125 
Q 13.1875 55.03125 13.1875 47.40625 
Q 13.1875 40.578125 17.3125 36.296875 
Q 21.4375 32.03125 27.484375 32.03125 
Q 33.59375 32.03125 37.515625 36.296875 
Q 41.453125 40.578125 41.453125 48.140625 
z
" id="ArialMT-57"/>
      </defs>
      <g style="fill:#262626;" transform="translate(357.737358 367.815625)scale(0.2 -0.2)">
       <use xlink:href="#ArialMT-49"/>
       <use x="55.615234" xlink:href="#ArialMT-57"/>
       <use x="111.230469" xlink:href="#ArialMT-47"/>
       <use x="139.013672" xlink:href="#ArialMT-48"/>
       <use x="194.628906" xlink:href="#ArialMT-51"/>
       <use x="250.244141" xlink:href="#ArialMT-32"/>
       <use x="278.027344" xlink:href="#ArialMT-116"/>
       <use x="305.810547" xlink:href="#ArialMT-111"/>
       <use x="361.425781" xlink:href="#ArialMT-32"/>
      </g>
      <!--  19/04 -->
      <defs>
       <path d="M 32.328125 0 
L 32.328125 17.140625 
L 1.265625 17.140625 
L 1.265625 25.203125 
L 33.9375 71.578125 
L 41.109375 71.578125 
L 41.109375 25.203125 
L 50.78125 25.203125 
L 50.78125 17.140625 
L 41.109375 17.140625 
L 41.109375 0 
z
M 32.328125 25.203125 
L 32.328125 57.46875 
L 9.90625 25.203125 
z
" id="ArialMT-52"/>
      </defs>
      <g style="fill:#262626;" transform="translate(368.854545 388.969375)scale(0.2 -0.2)">
       <use xlink:href="#ArialMT-32"/>
       <use x="27.783203" xlink:href="#ArialMT-49"/>
       <use x="83.398438" xlink:href="#ArialMT-57"/>
       <use x="139.013672" xlink:href="#ArialMT-47"/>
       <use x="166.796875" xlink:href="#ArialMT-48"/>
       <use x="222.412109" xlink:href="#ArialMT-52"/>
      </g>
     </g>
    </g>
    <g id="xtick_5">
     <g id="line2d_9">
      <path clip-path="url(#pc3252c942e)" d="M 498.109091 346.5 
L 498.109091 47.52 
" style="fill:none;stroke:#ffffff;stroke-linecap:round;"/>
     </g>
     <g id="line2d_10"/>
     <g id="text_5">
      <!-- 20/04 to  -->
      <g style="fill:#262626;" transform="translate(459.191903 367.815625)scale(0.2 -0.2)">
       <use xlink:href="#ArialMT-50"/>
       <use x="55.615234" xlink:href="#ArialMT-48"/>
       <use x="111.230469" xlink:href="#ArialMT-47"/>
       <use x="139.013672" xlink:href="#ArialMT-48"/>
       <use x="194.628906" xlink:href="#ArialMT-52"/>
       <use x="250.244141" xlink:href="#ArialMT-32"/>
       <use x="278.027344" xlink:href="#ArialMT-116"/>
       <use x="305.810547" xlink:href="#ArialMT-111"/>
       <use x="361.425781" xlink:href="#ArialMT-32"/>
      </g>
      <!--  20/05 -->
      <g style="fill:#262626;" transform="translate(470.309091 388.969375)scale(0.2 -0.2)">
       <use xlink:href="#ArialMT-32"/>
       <use x="27.783203" xlink:href="#ArialMT-50"/>
       <use x="83.398438" xlink:href="#ArialMT-48"/>
       <use x="139.013672" xlink:href="#ArialMT-47"/>
       <use x="166.796875" xlink:href="#ArialMT-48"/>
       <use x="222.412109" xlink:href="#ArialMT-53"/>
      </g>
     </g>
    </g>
   </g>
   <g id="matplotlib.axis_2">
    <g id="ytick_1">
     <g id="line2d_11">
      <path clip-path="url(#pc3252c942e)" d="M 72 334.7975 
L 518.4 334.7975 
" style="fill:none;stroke:#ffffff;stroke-linecap:round;"/>
     </g>
     <g id="line2d_12"/>
     <g id="text_6">
      <!-- 0.00 -->
      <defs>
       <path d="M 9.078125 0 
L 9.078125 10.015625 
L 19.09375 10.015625 
L 19.09375 0 
z
" id="ArialMT-46"/>
      </defs>
      <g style="fill:#262626;" transform="translate(26.078125 341.955312)scale(0.2 -0.2)">
       <use xlink:href="#ArialMT-48"/>
       <use x="55.615234" xlink:href="#ArialMT-46"/>
       <use x="83.398438" xlink:href="#ArialMT-48"/>
       <use x="139.013672" xlink:href="#ArialMT-48"/>
      </g>
     </g>
    </g>
    <g id="ytick_2">
     <g id="line2d_13">
      <path clip-path="url(#pc3252c942e)" d="M 72 283.083146 
L 518.4 283.083146 
" style="fill:none;stroke:#ffffff;stroke-linecap:round;"/>
     </g>
     <g id="line2d_14"/>
     <g id="text_7">
      <!-- 0.25 -->
      <g style="fill:#262626;" transform="translate(26.078125 290.240958)scale(0.2 -0.2)">
       <use xlink:href="#ArialMT-48"/>
       <use x="55.615234" xlink:href="#ArialMT-46"/>
       <use x="83.398438" xlink:href="#ArialMT-50"/>
       <use x="139.013672" xlink:href="#ArialMT-53"/>
      </g>
     </g>
    </g>
    <g id="ytick_3">
     <g id="line2d_15">
      <path clip-path="url(#pc3252c942e)" d="M 72 231.368792 
L 518.4 231.368792 
" style="fill:none;stroke:#ffffff;stroke-linecap:round;"/>
     </g>
     <g id="line2d_16"/>
     <g id="text_8">
      <!-- 0.50 -->
      <g style="fill:#262626;" transform="translate(26.078125 238.526604)scale(0.2 -0.2)">
       <use xlink:href="#ArialMT-48"/>
       <use x="55.615234" xlink:href="#ArialMT-46"/>
       <use x="83.398438" xlink:href="#ArialMT-53"/>
       <use x="139.013672" xlink:href="#ArialMT-48"/>
      </g>
     </g>
    </g>
    <g id="ytick_4">
     <g id="line2d_17">
      <path clip-path="url(#pc3252c942e)" d="M 72 179.654438 
L 518.4 179.654438 
" style="fill:none;stroke:#ffffff;stroke-linecap:round;"/>
     </g>
     <g id="line2d_18"/>
     <g id="text_9">
      <!-- 0.75 -->
      <g style="fill:#262626;" transform="translate(26.078125 186.81225)scale(0.2 -0.2)">
       <use xlink:href="#ArialMT-48"/>
       <use x="55.615234" xlink:href="#ArialMT-46"/>
       <use x="83.398438" xlink:href="#ArialMT-55"/>
       <use x="139.013672" xlink:href="#ArialMT-53"/>
      </g>
     </g>
    </g>
    <g id="ytick_5">
     <g id="line2d_19">
      <path clip-path="url(#pc3252c942e)" d="M 72 127.940083 
L 518.4 127.940083 
" style="fill:none;stroke:#ffffff;stroke-linecap:round;"/>
     </g>
     <g id="line2d_20"/>
     <g id="text_10">
      <!-- 1.00 -->
      <g style="fill:#262626;" transform="translate(26.078125 135.097896)scale(0.2 -0.2)">
       <use xlink:href="#ArialMT-49"/>
       <use x="55.615234" xlink:href="#ArialMT-46"/>
       <use x="83.398438" xlink:href="#ArialMT-48"/>
       <use x="139.013672" xlink:href="#ArialMT-48"/>
      </g>
     </g>
    </g>
    <g id="ytick_6">
     <g id="line2d_21">
      <path clip-path="url(#pc3252c942e)" d="M 72 76.225729 
L 518.4 76.225729 
" style="fill:none;stroke:#ffffff;stroke-linecap:round;"/>
     </g>
     <g id="line2d_22"/>
     <g id="text_11">
      <!-- 1.25 -->
      <g style="fill:#262626;" transform="translate(26.078125 83.383542)scale(0.2 -0.2)">
       <use xlink:href="#ArialMT-49"/>
       <use x="55.615234" xlink:href="#ArialMT-46"/>
       <use x="83.398438" xlink:href="#ArialMT-50"/>
       <use x="139.013672" xlink:href="#ArialMT-53"/>
      </g>
     </g>
    </g>
    <g id="text_12">
     <!-- % of total (stable edges) -->
     <defs>
      <path d="M 5.8125 54.390625 
Q 5.8125 62.0625 9.671875 67.421875 
Q 13.53125 72.796875 20.84375 72.796875 
Q 27.59375 72.796875 32 67.984375 
Q 36.421875 63.1875 36.421875 53.859375 
Q 36.421875 44.78125 31.953125 39.875 
Q 27.484375 34.96875 20.953125 34.96875 
Q 14.453125 34.96875 10.125 39.796875 
Q 5.8125 44.625 5.8125 54.390625 
z
M 21.09375 66.75 
Q 17.828125 66.75 15.65625 63.90625 
Q 13.484375 61.078125 13.484375 53.515625 
Q 13.484375 46.625 15.671875 43.8125 
Q 17.875 41.015625 21.09375 41.015625 
Q 24.421875 41.015625 26.59375 43.84375 
Q 28.765625 46.6875 28.765625 54.203125 
Q 28.765625 61.140625 26.5625 63.9375 
Q 24.359375 66.75 21.09375 66.75 
z
M 21.140625 -2.640625 
L 60.296875 72.796875 
L 67.4375 72.796875 
L 28.421875 -2.640625 
z
M 52.09375 16.796875 
Q 52.09375 24.515625 55.953125 29.859375 
Q 59.8125 35.203125 67.1875 35.203125 
Q 73.921875 35.203125 78.34375 30.390625 
Q 82.765625 25.59375 82.765625 16.265625 
Q 82.765625 7.171875 78.296875 2.265625 
Q 73.828125 -2.640625 67.234375 -2.640625 
Q 60.75 -2.640625 56.421875 2.21875 
Q 52.09375 7.078125 52.09375 16.796875 
z
M 67.4375 29.15625 
Q 64.109375 29.15625 61.9375 26.3125 
Q 59.765625 23.484375 59.765625 15.921875 
Q 59.765625 9.078125 61.953125 6.25 
Q 64.15625 3.421875 67.390625 3.421875 
Q 70.75 3.421875 72.921875 6.25 
Q 75.09375 9.078125 75.09375 16.609375 
Q 75.09375 23.53125 72.890625 26.34375 
Q 70.703125 29.15625 67.4375 29.15625 
z
" id="ArialMT-37"/>
      <path d="M 8.6875 0 
L 8.6875 45.015625 
L 0.921875 45.015625 
L 0.921875 51.859375 
L 8.6875 51.859375 
L 8.6875 57.375 
Q 8.6875 62.59375 9.625 65.140625 
Q 10.890625 68.5625 14.078125 70.671875 
Q 17.28125 72.796875 23.046875 72.796875 
Q 26.765625 72.796875 31.25 71.921875 
L 29.9375 64.265625 
Q 27.203125 64.75 24.75 64.75 
Q 20.75 64.75 19.09375 63.03125 
Q 17.4375 61.328125 17.4375 56.640625 
L 17.4375 51.859375 
L 27.546875 51.859375 
L 27.546875 45.015625 
L 17.4375 45.015625 
L 17.4375 0 
z
" id="ArialMT-102"/>
      <path d="M 40.4375 6.390625 
Q 35.546875 2.25 31.03125 0.53125 
Q 26.515625 -1.171875 21.34375 -1.171875 
Q 12.796875 -1.171875 8.203125 3 
Q 3.609375 7.171875 3.609375 13.671875 
Q 3.609375 17.484375 5.34375 20.625 
Q 7.078125 23.78125 9.890625 25.6875 
Q 12.703125 27.59375 16.21875 28.5625 
Q 18.796875 29.25 24.03125 29.890625 
Q 34.671875 31.15625 39.703125 32.90625 
Q 39.75 34.71875 39.75 35.203125 
Q 39.75 40.578125 37.25 42.78125 
Q 33.890625 45.75 27.25 45.75 
Q 21.046875 45.75 18.09375 43.578125 
Q 15.140625 41.40625 13.71875 35.890625 
L 5.125 37.0625 
Q 6.296875 42.578125 8.984375 45.96875 
Q 11.671875 49.359375 16.75 51.1875 
Q 21.828125 53.03125 28.515625 53.03125 
Q 35.15625 53.03125 39.296875 51.46875 
Q 43.453125 49.90625 45.40625 47.53125 
Q 47.359375 45.171875 48.140625 41.546875 
Q 48.578125 39.3125 48.578125 33.453125 
L 48.578125 21.734375 
Q 48.578125 9.46875 49.140625 6.21875 
Q 49.703125 2.984375 51.375 0 
L 42.1875 0 
Q 40.828125 2.734375 40.4375 6.390625 
z
M 39.703125 26.03125 
Q 34.90625 24.078125 25.34375 22.703125 
Q 19.921875 21.921875 17.671875 20.9375 
Q 15.4375 19.96875 14.203125 18.09375 
Q 12.984375 16.21875 12.984375 13.921875 
Q 12.984375 10.40625 15.640625 8.0625 
Q 18.3125 5.71875 23.4375 5.71875 
Q 28.515625 5.71875 32.46875 7.9375 
Q 36.421875 10.15625 38.28125 14.015625 
Q 39.703125 17 39.703125 22.796875 
z
" id="ArialMT-97"/>
      <path d="M 6.390625 0 
L 6.390625 71.578125 
L 15.1875 71.578125 
L 15.1875 0 
z
" id="ArialMT-108"/>
      <path d="M 23.390625 -21.046875 
Q 16.109375 -11.859375 11.078125 0.4375 
Q 6.0625 12.75 6.0625 25.921875 
Q 6.0625 37.546875 9.8125 48.1875 
Q 14.203125 60.546875 23.390625 72.796875 
L 29.6875 72.796875 
Q 23.78125 62.640625 21.875 58.296875 
Q 18.890625 51.5625 17.1875 44.234375 
Q 15.09375 35.109375 15.09375 25.875 
Q 15.09375 2.390625 29.6875 -21.046875 
z
" id="ArialMT-40"/>
      <path d="M 3.078125 15.484375 
L 11.765625 16.84375 
Q 12.5 11.625 15.84375 8.84375 
Q 19.1875 6.0625 25.203125 6.0625 
Q 31.25 6.0625 34.171875 8.515625 
Q 37.109375 10.984375 37.109375 14.3125 
Q 37.109375 17.28125 34.515625 19 
Q 32.71875 20.171875 25.53125 21.96875 
Q 15.875 24.421875 12.140625 26.203125 
Q 8.40625 27.984375 6.46875 31.125 
Q 4.546875 34.28125 4.546875 38.09375 
Q 4.546875 41.546875 6.125 44.5 
Q 7.71875 47.46875 10.453125 49.421875 
Q 12.5 50.921875 16.03125 51.96875 
Q 19.578125 53.03125 23.640625 53.03125 
Q 29.734375 53.03125 34.34375 51.265625 
Q 38.96875 49.515625 41.15625 46.5 
Q 43.359375 43.5 44.1875 38.484375 
L 35.59375 37.3125 
Q 35.015625 41.3125 32.203125 43.546875 
Q 29.390625 45.796875 24.265625 45.796875 
Q 18.21875 45.796875 15.625 43.796875 
Q 13.03125 41.796875 13.03125 39.109375 
Q 13.03125 37.40625 14.109375 36.03125 
Q 15.1875 34.625 17.484375 33.6875 
Q 18.796875 33.203125 25.25 31.453125 
Q 34.578125 28.953125 38.25 27.359375 
Q 41.9375 25.78125 44.03125 22.75 
Q 46.140625 19.734375 46.140625 15.234375 
Q 46.140625 10.84375 43.578125 6.953125 
Q 41.015625 3.078125 36.171875 0.953125 
Q 31.34375 -1.171875 25.25 -1.171875 
Q 15.140625 -1.171875 9.84375 3.03125 
Q 4.546875 7.234375 3.078125 15.484375 
z
" id="ArialMT-115"/>
      <path d="M 14.703125 0 
L 6.546875 0 
L 6.546875 71.578125 
L 15.328125 71.578125 
L 15.328125 46.046875 
Q 20.90625 53.03125 29.546875 53.03125 
Q 34.328125 53.03125 38.59375 51.09375 
Q 42.875 49.171875 45.625 45.671875 
Q 48.390625 42.1875 49.953125 37.25 
Q 51.515625 32.328125 51.515625 26.703125 
Q 51.515625 13.375 44.921875 6.09375 
Q 38.328125 -1.171875 29.109375 -1.171875 
Q 19.921875 -1.171875 14.703125 6.5 
z
M 14.59375 26.3125 
Q 14.59375 17 17.140625 12.84375 
Q 21.296875 6.0625 28.375 6.0625 
Q 34.125 6.0625 38.328125 11.0625 
Q 42.53125 16.0625 42.53125 25.984375 
Q 42.53125 36.140625 38.5 40.96875 
Q 34.46875 45.796875 28.765625 45.796875 
Q 23 45.796875 18.796875 40.796875 
Q 14.59375 35.796875 14.59375 26.3125 
z
" id="ArialMT-98"/>
      <path d="M 42.09375 16.703125 
L 51.171875 15.578125 
Q 49.03125 7.625 43.21875 3.21875 
Q 37.40625 -1.171875 28.375 -1.171875 
Q 17 -1.171875 10.328125 5.828125 
Q 3.65625 12.84375 3.65625 25.484375 
Q 3.65625 38.578125 10.390625 45.796875 
Q 17.140625 53.03125 27.875 53.03125 
Q 38.28125 53.03125 44.875 45.953125 
Q 51.46875 38.875 51.46875 26.03125 
Q 51.46875 25.25 51.421875 23.6875 
L 12.75 23.6875 
Q 13.234375 15.140625 17.578125 10.59375 
Q 21.921875 6.0625 28.421875 6.0625 
Q 33.25 6.0625 36.671875 8.59375 
Q 40.09375 11.140625 42.09375 16.703125 
z
M 13.234375 30.90625 
L 42.1875 30.90625 
Q 41.609375 37.453125 38.875 40.71875 
Q 34.671875 45.796875 27.984375 45.796875 
Q 21.921875 45.796875 17.796875 41.75 
Q 13.671875 37.703125 13.234375 30.90625 
z
" id="ArialMT-101"/>
      <path d="M 40.234375 0 
L 40.234375 6.546875 
Q 35.296875 -1.171875 25.734375 -1.171875 
Q 19.53125 -1.171875 14.328125 2.25 
Q 9.125 5.671875 6.265625 11.796875 
Q 3.421875 17.921875 3.421875 25.875 
Q 3.421875 33.640625 6 39.96875 
Q 8.59375 46.296875 13.765625 49.65625 
Q 18.953125 53.03125 25.34375 53.03125 
Q 30.03125 53.03125 33.6875 51.046875 
Q 37.359375 49.078125 39.65625 45.90625 
L 39.65625 71.578125 
L 48.390625 71.578125 
L 48.390625 0 
z
M 12.453125 25.875 
Q 12.453125 15.921875 16.640625 10.984375 
Q 20.84375 6.0625 26.5625 6.0625 
Q 32.328125 6.0625 36.34375 10.765625 
Q 40.375 15.484375 40.375 25.140625 
Q 40.375 35.796875 36.265625 40.765625 
Q 32.171875 45.75 26.171875 45.75 
Q 20.3125 45.75 16.375 40.96875 
Q 12.453125 36.1875 12.453125 25.875 
z
" id="ArialMT-100"/>
      <path d="M 4.984375 -4.296875 
L 13.53125 -5.5625 
Q 14.0625 -9.515625 16.5 -11.328125 
Q 19.78125 -13.765625 25.4375 -13.765625 
Q 31.546875 -13.765625 34.859375 -11.328125 
Q 38.1875 -8.890625 39.359375 -4.5 
Q 40.046875 -1.8125 39.984375 6.78125 
Q 34.234375 0 25.640625 0 
Q 14.9375 0 9.078125 7.71875 
Q 3.21875 15.4375 3.21875 26.21875 
Q 3.21875 33.640625 5.90625 39.90625 
Q 8.59375 46.1875 13.6875 49.609375 
Q 18.796875 53.03125 25.6875 53.03125 
Q 34.859375 53.03125 40.828125 45.609375 
L 40.828125 51.859375 
L 48.921875 51.859375 
L 48.921875 7.03125 
Q 48.921875 -5.078125 46.453125 -10.125 
Q 44 -15.1875 38.640625 -18.109375 
Q 33.296875 -21.046875 25.484375 -21.046875 
Q 16.21875 -21.046875 10.5 -16.875 
Q 4.78125 -12.703125 4.984375 -4.296875 
z
M 12.25 26.859375 
Q 12.25 16.65625 16.296875 11.96875 
Q 20.359375 7.28125 26.46875 7.28125 
Q 32.515625 7.28125 36.609375 11.9375 
Q 40.71875 16.609375 40.71875 26.5625 
Q 40.71875 36.078125 36.5 40.90625 
Q 32.28125 45.75 26.3125 45.75 
Q 20.453125 45.75 16.34375 40.984375 
Q 12.25 36.234375 12.25 26.859375 
z
" id="ArialMT-103"/>
      <path d="M 12.359375 -21.046875 
L 6.0625 -21.046875 
Q 20.65625 2.390625 20.65625 25.875 
Q 20.65625 35.0625 18.5625 44.09375 
Q 16.890625 51.421875 13.921875 58.15625 
Q 12.015625 62.546875 6.0625 72.796875 
L 12.359375 72.796875 
Q 21.53125 60.546875 25.921875 48.1875 
Q 29.6875 37.546875 29.6875 25.921875 
Q 29.6875 12.75 24.625 0.4375 
Q 19.578125 -11.859375 12.359375 -21.046875 
z
" id="ArialMT-41"/>
     </defs>
     <g style="fill:#262626;" transform="translate(17.86875 304.839687)rotate(-90)scale(0.2 -0.2)">
      <use xlink:href="#ArialMT-37"/>
      <use x="88.916016" xlink:href="#ArialMT-32"/>
      <use x="116.699219" xlink:href="#ArialMT-111"/>
      <use x="172.314453" xlink:href="#ArialMT-102"/>
      <use x="200.097656" xlink:href="#ArialMT-32"/>
      <use x="227.880859" xlink:href="#ArialMT-116"/>
      <use x="255.664062" xlink:href="#ArialMT-111"/>
      <use x="311.279297" xlink:href="#ArialMT-116"/>
      <use x="339.0625" xlink:href="#ArialMT-97"/>
      <use x="394.677734" xlink:href="#ArialMT-108"/>
      <use x="416.894531" xlink:href="#ArialMT-32"/>
      <use x="444.677734" xlink:href="#ArialMT-40"/>
      <use x="477.978516" xlink:href="#ArialMT-115"/>
      <use x="527.978516" xlink:href="#ArialMT-116"/>
      <use x="555.761719" xlink:href="#ArialMT-97"/>
      <use x="611.376953" xlink:href="#ArialMT-98"/>
      <use x="666.992188" xlink:href="#ArialMT-108"/>
      <use x="689.208984" xlink:href="#ArialMT-101"/>
      <use x="744.824219" xlink:href="#ArialMT-32"/>
      <use x="772.607422" xlink:href="#ArialMT-101"/>
      <use x="828.222656" xlink:href="#ArialMT-100"/>
      <use x="883.837891" xlink:href="#ArialMT-103"/>
      <use x="939.453125" xlink:href="#ArialMT-101"/>
      <use x="995.068359" xlink:href="#ArialMT-115"/>
      <use x="1045.068359" xlink:href="#ArialMT-41"/>
     </g>
    </g>
   </g>
   <g id="line2d_23">
    <path clip-path="url(#pc3252c942e)" d="M 92.290909 249.230833 
L 100.095105 303.024583 
L 107.899301 275.970417 
L 115.703497 61.11 
L 123.507692 296.418333 
L 131.311888 287.61 
L 139.116084 314.664167 
L 146.92028 299.249583 
L 154.724476 295.789167 
L 162.528671 309.001667 
L 170.332867 274.3975 
L 178.137063 310.26 
L 185.941259 296.732917 
L 193.745455 314.035 
L 201.54965 318.124583 
L 209.353846 294.21625 
L 217.158042 241.995417 
L 224.962238 292.643333 
L 232.766434 304.912083 
L 240.570629 301.451667 
L 248.374825 290.44125 
L 256.179021 283.205833 
L 263.983217 292.643333 
L 271.787413 303.024583 
L 279.591608 307.114167 
L 287.395804 305.855833 
L 295.2 304.282917 
L 303.004196 291.699583 
L 310.808392 297.0475 
L 318.612587 291.070417 
L 326.416783 301.137083 
L 334.220979 294.845417 
L 342.025175 284.149583 
L 349.829371 295.474583 
L 357.633566 308.3725 
L 365.437762 303.65375 
L 373.241958 309.630833 
L 381.046154 322.52875 
L 388.85035 304.282917 
L 396.654545 301.451667 
L 404.458741 244.826667 
L 412.262937 259.926667 
L 420.067133 288.55375 
L 427.871329 281.632917 
L 435.675524 303.339167 
L 443.47972 282.262083 
L 451.283916 279.430833 
L 459.088112 286.66625 
L 466.892308 303.968333 
L 474.696503 312.776667 
L 482.500699 296.418333 
L 490.304895 296.732917 
L 498.109091 279.745417 
" style="fill:none;stroke:#e73d0a;stroke-dasharray:6.475,2.8;stroke-dashoffset:0;stroke-width:1.75;"/>
    <defs>
     <path d="M 0 -3.5 
L -3.5 3.5 
L 3.5 3.5 
z
" id="mc7b42a4d56"/>
    </defs>
    <g clip-path="url(#pc3252c942e)">
     <use style="fill:#e73d0a;" x="92.290909" xlink:href="#mc7b42a4d56" y="249.230833"/>
     <use style="fill:#e73d0a;" x="100.095105" xlink:href="#mc7b42a4d56" y="303.024583"/>
     <use style="fill:#e73d0a;" x="107.899301" xlink:href="#mc7b42a4d56" y="275.970417"/>
     <use style="fill:#e73d0a;" x="115.703497" xlink:href="#mc7b42a4d56" y="61.11"/>
     <use style="fill:#e73d0a;" x="123.507692" xlink:href="#mc7b42a4d56" y="296.418333"/>
     <use style="fill:#e73d0a;" x="131.311888" xlink:href="#mc7b42a4d56" y="287.61"/>
     <use style="fill:#e73d0a;" x="139.116084" xlink:href="#mc7b42a4d56" y="314.664167"/>
     <use style="fill:#e73d0a;" x="146.92028" xlink:href="#mc7b42a4d56" y="299.249583"/>
     <use style="fill:#e73d0a;" x="154.724476" xlink:href="#mc7b42a4d56" y="295.789167"/>
     <use style="fill:#e73d0a;" x="162.528671" xlink:href="#mc7b42a4d56" y="309.001667"/>
     <use style="fill:#e73d0a;" x="170.332867" xlink:href="#mc7b42a4d56" y="274.3975"/>
     <use style="fill:#e73d0a;" x="178.137063" xlink:href="#mc7b42a4d56" y="310.26"/>
     <use style="fill:#e73d0a;" x="185.941259" xlink:href="#mc7b42a4d56" y="296.732917"/>
     <use style="fill:#e73d0a;" x="193.745455" xlink:href="#mc7b42a4d56" y="314.035"/>
     <use style="fill:#e73d0a;" x="201.54965" xlink:href="#mc7b42a4d56" y="318.124583"/>
     <use style="fill:#e73d0a;" x="209.353846" xlink:href="#mc7b42a4d56" y="294.21625"/>
     <use style="fill:#e73d0a;" x="217.158042" xlink:href="#mc7b42a4d56" y="241.995417"/>
     <use style="fill:#e73d0a;" x="224.962238" xlink:href="#mc7b42a4d56" y="292.643333"/>
     <use style="fill:#e73d0a;" x="232.766434" xlink:href="#mc7b42a4d56" y="304.912083"/>
     <use style="fill:#e73d0a;" x="240.570629" xlink:href="#mc7b42a4d56" y="301.451667"/>
     <use style="fill:#e73d0a;" x="248.374825" xlink:href="#mc7b42a4d56" y="290.44125"/>
     <use style="fill:#e73d0a;" x="256.179021" xlink:href="#mc7b42a4d56" y="283.205833"/>
     <use style="fill:#e73d0a;" x="263.983217" xlink:href="#mc7b42a4d56" y="292.643333"/>
     <use style="fill:#e73d0a;" x="271.787413" xlink:href="#mc7b42a4d56" y="303.024583"/>
     <use style="fill:#e73d0a;" x="279.591608" xlink:href="#mc7b42a4d56" y="307.114167"/>
     <use style="fill:#e73d0a;" x="287.395804" xlink:href="#mc7b42a4d56" y="305.855833"/>
     <use style="fill:#e73d0a;" x="295.2" xlink:href="#mc7b42a4d56" y="304.282917"/>
     <use style="fill:#e73d0a;" x="303.004196" xlink:href="#mc7b42a4d56" y="291.699583"/>
     <use style="fill:#e73d0a;" x="310.808392" xlink:href="#mc7b42a4d56" y="297.0475"/>
     <use style="fill:#e73d0a;" x="318.612587" xlink:href="#mc7b42a4d56" y="291.070417"/>
     <use style="fill:#e73d0a;" x="326.416783" xlink:href="#mc7b42a4d56" y="301.137083"/>
     <use style="fill:#e73d0a;" x="334.220979" xlink:href="#mc7b42a4d56" y="294.845417"/>
     <use style="fill:#e73d0a;" x="342.025175" xlink:href="#mc7b42a4d56" y="284.149583"/>
     <use style="fill:#e73d0a;" x="349.829371" xlink:href="#mc7b42a4d56" y="295.474583"/>
     <use style="fill:#e73d0a;" x="357.633566" xlink:href="#mc7b42a4d56" y="308.3725"/>
     <use style="fill:#e73d0a;" x="365.437762" xlink:href="#mc7b42a4d56" y="303.65375"/>
     <use style="fill:#e73d0a;" x="373.241958" xlink:href="#mc7b42a4d56" y="309.630833"/>
     <use style="fill:#e73d0a;" x="381.046154" xlink:href="#mc7b42a4d56" y="322.52875"/>
     <use style="fill:#e73d0a;" x="388.85035" xlink:href="#mc7b42a4d56" y="304.282917"/>
     <use style="fill:#e73d0a;" x="396.654545" xlink:href="#mc7b42a4d56" y="301.451667"/>
     <use style="fill:#e73d0a;" x="404.458741" xlink:href="#mc7b42a4d56" y="244.826667"/>
     <use style="fill:#e73d0a;" x="412.262937" xlink:href="#mc7b42a4d56" y="259.926667"/>
     <use style="fill:#e73d0a;" x="420.067133" xlink:href="#mc7b42a4d56" y="288.55375"/>
     <use style="fill:#e73d0a;" x="427.871329" xlink:href="#mc7b42a4d56" y="281.632917"/>
     <use style="fill:#e73d0a;" x="435.675524" xlink:href="#mc7b42a4d56" y="303.339167"/>
     <use style="fill:#e73d0a;" x="443.47972" xlink:href="#mc7b42a4d56" y="282.262083"/>
     <use style="fill:#e73d0a;" x="451.283916" xlink:href="#mc7b42a4d56" y="279.430833"/>
     <use style="fill:#e73d0a;" x="459.088112" xlink:href="#mc7b42a4d56" y="286.66625"/>
     <use style="fill:#e73d0a;" x="466.892308" xlink:href="#mc7b42a4d56" y="303.968333"/>
     <use style="fill:#e73d0a;" x="474.696503" xlink:href="#mc7b42a4d56" y="312.776667"/>
     <use style="fill:#e73d0a;" x="482.500699" xlink:href="#mc7b42a4d56" y="296.418333"/>
     <use style="fill:#e73d0a;" x="490.304895" xlink:href="#mc7b42a4d56" y="296.732917"/>
     <use style="fill:#e73d0a;" x="498.109091" xlink:href="#mc7b42a4d56" y="279.745417"/>
    </g>
   </g>
   <g id="line2d_24">
    <path clip-path="url(#pc3252c942e)" d="M 92.290909 304.912083 
L 100.095105 273.768333 
L 107.899301 282.89125 
L 115.703497 255.837083 
L 123.507692 65.514167 
L 131.311888 310.574583 
L 139.116084 299.87875 
L 146.92028 308.057917 
L 154.724476 289.4975 
L 162.528671 268.105833 
L 170.332867 306.799583 
L 178.137063 298.305833 
L 185.941259 304.912083 
L 193.745455 268.420417 
L 201.54965 311.832917 
L 209.353846 236.332917 
L 217.158042 310.889167 
L 224.962238 289.182917 
L 232.766434 301.137083 
L 240.570629 282.262083 
L 248.374825 291.385 
L 256.179021 307.743333 
L 263.983217 281.9475 
L 271.787413 305.54125 
L 279.591608 306.799583 
L 287.395804 311.832917 
L 295.2 289.4975 
L 303.004196 299.87875 
L 310.808392 303.65375 
L 318.612587 257.724583 
L 326.416783 301.137083 
L 334.220979 286.351667 
L 342.025175 307.743333 
L 349.829371 292.014167 
L 357.633566 303.024583 
L 365.437762 314.97875 
L 373.241958 317.495417 
L 381.046154 316.551667 
L 388.85035 307.42875 
L 396.654545 253.635 
L 404.458741 294.845417 
L 412.262937 299.564167 
L 420.067133 238.220417 
L 427.871329 268.420417 
L 435.675524 314.97875 
L 443.47972 301.451667 
L 451.283916 270.307917 
L 459.088112 289.4975 
L 466.892308 305.54125 
L 474.696503 296.732917 
L 482.500699 312.776667 
L 490.304895 302.080833 
L 498.109091 292.643333 
" style="fill:none;stroke:#5e8a00;stroke-dasharray:6.475,2.8;stroke-dashoffset:0;stroke-width:1.75;"/>
    <defs>
     <path d="M 0 -3.5 
L -3.5 3.5 
L 3.5 3.5 
z
" id="m2d3e53334e"/>
    </defs>
    <g clip-path="url(#pc3252c942e)">
     <use style="fill:#5e8a00;" x="92.290909" xlink:href="#m2d3e53334e" y="304.912083"/>
     <use style="fill:#5e8a00;" x="100.095105" xlink:href="#m2d3e53334e" y="273.768333"/>
     <use style="fill:#5e8a00;" x="107.899301" xlink:href="#m2d3e53334e" y="282.89125"/>
     <use style="fill:#5e8a00;" x="115.703497" xlink:href="#m2d3e53334e" y="255.837083"/>
     <use style="fill:#5e8a00;" x="123.507692" xlink:href="#m2d3e53334e" y="65.514167"/>
     <use style="fill:#5e8a00;" x="131.311888" xlink:href="#m2d3e53334e" y="310.574583"/>
     <use style="fill:#5e8a00;" x="139.116084" xlink:href="#m2d3e53334e" y="299.87875"/>
     <use style="fill:#5e8a00;" x="146.92028" xlink:href="#m2d3e53334e" y="308.057917"/>
     <use style="fill:#5e8a00;" x="154.724476" xlink:href="#m2d3e53334e" y="289.4975"/>
     <use style="fill:#5e8a00;" x="162.528671" xlink:href="#m2d3e53334e" y="268.105833"/>
     <use style="fill:#5e8a00;" x="170.332867" xlink:href="#m2d3e53334e" y="306.799583"/>
     <use style="fill:#5e8a00;" x="178.137063" xlink:href="#m2d3e53334e" y="298.305833"/>
     <use style="fill:#5e8a00;" x="185.941259" xlink:href="#m2d3e53334e" y="304.912083"/>
     <use style="fill:#5e8a00;" x="193.745455" xlink:href="#m2d3e53334e" y="268.420417"/>
     <use style="fill:#5e8a00;" x="201.54965" xlink:href="#m2d3e53334e" y="311.832917"/>
     <use style="fill:#5e8a00;" x="209.353846" xlink:href="#m2d3e53334e" y="236.332917"/>
     <use style="fill:#5e8a00;" x="217.158042" xlink:href="#m2d3e53334e" y="310.889167"/>
     <use style="fill:#5e8a00;" x="224.962238" xlink:href="#m2d3e53334e" y="289.182917"/>
     <use style="fill:#5e8a00;" x="232.766434" xlink:href="#m2d3e53334e" y="301.137083"/>
     <use style="fill:#5e8a00;" x="240.570629" xlink:href="#m2d3e53334e" y="282.262083"/>
     <use style="fill:#5e8a00;" x="248.374825" xlink:href="#m2d3e53334e" y="291.385"/>
     <use style="fill:#5e8a00;" x="256.179021" xlink:href="#m2d3e53334e" y="307.743333"/>
     <use style="fill:#5e8a00;" x="263.983217" xlink:href="#m2d3e53334e" y="281.9475"/>
     <use style="fill:#5e8a00;" x="271.787413" xlink:href="#m2d3e53334e" y="305.54125"/>
     <use style="fill:#5e8a00;" x="279.591608" xlink:href="#m2d3e53334e" y="306.799583"/>
     <use style="fill:#5e8a00;" x="287.395804" xlink:href="#m2d3e53334e" y="311.832917"/>
     <use style="fill:#5e8a00;" x="295.2" xlink:href="#m2d3e53334e" y="289.4975"/>
     <use style="fill:#5e8a00;" x="303.004196" xlink:href="#m2d3e53334e" y="299.87875"/>
     <use style="fill:#5e8a00;" x="310.808392" xlink:href="#m2d3e53334e" y="303.65375"/>
     <use style="fill:#5e8a00;" x="318.612587" xlink:href="#m2d3e53334e" y="257.724583"/>
     <use style="fill:#5e8a00;" x="326.416783" xlink:href="#m2d3e53334e" y="301.137083"/>
     <use style="fill:#5e8a00;" x="334.220979" xlink:href="#m2d3e53334e" y="286.351667"/>
     <use style="fill:#5e8a00;" x="342.025175" xlink:href="#m2d3e53334e" y="307.743333"/>
     <use style="fill:#5e8a00;" x="349.829371" xlink:href="#m2d3e53334e" y="292.014167"/>
     <use style="fill:#5e8a00;" x="357.633566" xlink:href="#m2d3e53334e" y="303.024583"/>
     <use style="fill:#5e8a00;" x="365.437762" xlink:href="#m2d3e53334e" y="314.97875"/>
     <use style="fill:#5e8a00;" x="373.241958" xlink:href="#m2d3e53334e" y="317.495417"/>
     <use style="fill:#5e8a00;" x="381.046154" xlink:href="#m2d3e53334e" y="316.551667"/>
     <use style="fill:#5e8a00;" x="388.85035" xlink:href="#m2d3e53334e" y="307.42875"/>
     <use style="fill:#5e8a00;" x="396.654545" xlink:href="#m2d3e53334e" y="253.635"/>
     <use style="fill:#5e8a00;" x="404.458741" xlink:href="#m2d3e53334e" y="294.845417"/>
     <use style="fill:#5e8a00;" x="412.262937" xlink:href="#m2d3e53334e" y="299.564167"/>
     <use style="fill:#5e8a00;" x="420.067133" xlink:href="#m2d3e53334e" y="238.220417"/>
     <use style="fill:#5e8a00;" x="427.871329" xlink:href="#m2d3e53334e" y="268.420417"/>
     <use style="fill:#5e8a00;" x="435.675524" xlink:href="#m2d3e53334e" y="314.97875"/>
     <use style="fill:#5e8a00;" x="443.47972" xlink:href="#m2d3e53334e" y="301.451667"/>
     <use style="fill:#5e8a00;" x="451.283916" xlink:href="#m2d3e53334e" y="270.307917"/>
     <use style="fill:#5e8a00;" x="459.088112" xlink:href="#m2d3e53334e" y="289.4975"/>
     <use style="fill:#5e8a00;" x="466.892308" xlink:href="#m2d3e53334e" y="305.54125"/>
     <use style="fill:#5e8a00;" x="474.696503" xlink:href="#m2d3e53334e" y="296.732917"/>
     <use style="fill:#5e8a00;" x="482.500699" xlink:href="#m2d3e53334e" y="312.776667"/>
     <use style="fill:#5e8a00;" x="490.304895" xlink:href="#m2d3e53334e" y="302.080833"/>
     <use style="fill:#5e8a00;" x="498.109091" xlink:href="#m2d3e53334e" y="292.643333"/>
    </g>
   </g>
   <g id="line2d_25">
    <path clip-path="url(#pc3252c942e)" d="M 92.290909 330.07875 
L 100.095105 331.651667 
L 107.899301 329.449583 
L 115.703497 328.505833 
L 123.507692 325.045417 
L 131.311888 328.19125 
L 139.116084 330.07875 
L 146.92028 329.764167 
L 154.724476 329.449583 
L 162.528671 329.764167 
L 170.332867 331.0225 
L 178.137063 330.393333 
L 185.941259 328.820417 
L 193.745455 330.07875 
L 201.54965 329.135 
L 209.353846 327.876667 
L 217.158042 331.0225 
L 224.962238 330.707917 
L 232.766434 330.393333 
L 240.570629 329.135 
L 248.374825 329.135 
L 256.179021 331.337083 
L 263.983217 331.337083 
L 271.787413 329.449583 
L 279.591608 330.707917 
L 287.395804 332.91 
L 295.2 330.07875 
L 303.004196 328.820417 
L 310.808392 329.449583 
L 318.612587 330.07875 
L 326.416783 329.764167 
L 334.220979 328.505833 
L 342.025175 327.562083 
L 349.829371 327.562083 
L 357.633566 331.651667 
L 365.437762 329.449583 
L 373.241958 330.393333 
L 381.046154 330.07875 
L 388.85035 331.651667 
L 396.654545 328.820417 
L 404.458741 329.764167 
L 412.262937 331.337083 
L 420.067133 328.505833 
L 427.871329 331.337083 
L 435.675524 331.337083 
L 443.47972 330.07875 
L 451.283916 329.135 
L 459.088112 330.07875 
L 466.892308 330.07875 
L 474.696503 329.135 
L 482.500699 331.96625 
L 490.304895 330.07875 
L 498.109091 328.505833 
" style="fill:none;stroke:#006793;stroke-dasharray:6.475,2.8;stroke-dashoffset:0;stroke-width:1.75;"/>
    <defs>
     <path d="M 0 -3.5 
L -3.5 3.5 
L 3.5 3.5 
z
" id="md599b1065e"/>
    </defs>
    <g clip-path="url(#pc3252c942e)">
     <use style="fill:#006793;" x="92.290909" xlink:href="#md599b1065e" y="330.07875"/>
     <use style="fill:#006793;" x="100.095105" xlink:href="#md599b1065e" y="331.651667"/>
     <use style="fill:#006793;" x="107.899301" xlink:href="#md599b1065e" y="329.449583"/>
     <use style="fill:#006793;" x="115.703497" xlink:href="#md599b1065e" y="328.505833"/>
     <use style="fill:#006793;" x="123.507692" xlink:href="#md599b1065e" y="325.045417"/>
     <use style="fill:#006793;" x="131.311888" xlink:href="#md599b1065e" y="328.19125"/>
     <use style="fill:#006793;" x="139.116084" xlink:href="#md599b1065e" y="330.07875"/>
     <use style="fill:#006793;" x="146.92028" xlink:href="#md599b1065e" y="329.764167"/>
     <use style="fill:#006793;" x="154.724476" xlink:href="#md599b1065e" y="329.449583"/>
     <use style="fill:#006793;" x="162.528671" xlink:href="#md599b1065e" y="329.764167"/>
     <use style="fill:#006793;" x="170.332867" xlink:href="#md599b1065e" y="331.0225"/>
     <use style="fill:#006793;" x="178.137063" xlink:href="#md599b1065e" y="330.393333"/>
     <use style="fill:#006793;" x="185.941259" xlink:href="#md599b1065e" y="328.820417"/>
     <use style="fill:#006793;" x="193.745455" xlink:href="#md599b1065e" y="330.07875"/>
     <use style="fill:#006793;" x="201.54965" xlink:href="#md599b1065e" y="329.135"/>
     <use style="fill:#006793;" x="209.353846" xlink:href="#md599b1065e" y="327.876667"/>
     <use style="fill:#006793;" x="217.158042" xlink:href="#md599b1065e" y="331.0225"/>
     <use style="fill:#006793;" x="224.962238" xlink:href="#md599b1065e" y="330.707917"/>
     <use style="fill:#006793;" x="232.766434" xlink:href="#md599b1065e" y="330.393333"/>
     <use style="fill:#006793;" x="240.570629" xlink:href="#md599b1065e" y="329.135"/>
     <use style="fill:#006793;" x="248.374825" xlink:href="#md599b1065e" y="329.135"/>
     <use style="fill:#006793;" x="256.179021" xlink:href="#md599b1065e" y="331.337083"/>
     <use style="fill:#006793;" x="263.983217" xlink:href="#md599b1065e" y="331.337083"/>
     <use style="fill:#006793;" x="271.787413" xlink:href="#md599b1065e" y="329.449583"/>
     <use style="fill:#006793;" x="279.591608" xlink:href="#md599b1065e" y="330.707917"/>
     <use style="fill:#006793;" x="287.395804" xlink:href="#md599b1065e" y="332.91"/>
     <use style="fill:#006793;" x="295.2" xlink:href="#md599b1065e" y="330.07875"/>
     <use style="fill:#006793;" x="303.004196" xlink:href="#md599b1065e" y="328.820417"/>
     <use style="fill:#006793;" x="310.808392" xlink:href="#md599b1065e" y="329.449583"/>
     <use style="fill:#006793;" x="318.612587" xlink:href="#md599b1065e" y="330.07875"/>
     <use style="fill:#006793;" x="326.416783" xlink:href="#md599b1065e" y="329.764167"/>
     <use style="fill:#006793;" x="334.220979" xlink:href="#md599b1065e" y="328.505833"/>
     <use style="fill:#006793;" x="342.025175" xlink:href="#md599b1065e" y="327.562083"/>
     <use style="fill:#006793;" x="349.829371" xlink:href="#md599b1065e" y="327.562083"/>
     <use style="fill:#006793;" x="357.633566" xlink:href="#md599b1065e" y="331.651667"/>
     <use style="fill:#006793;" x="365.437762" xlink:href="#md599b1065e" y="329.449583"/>
     <use style="fill:#006793;" x="373.241958" xlink:href="#md599b1065e" y="330.393333"/>
     <use style="fill:#006793;" x="381.046154" xlink:href="#md599b1065e" y="330.07875"/>
     <use style="fill:#006793;" x="388.85035" xlink:href="#md599b1065e" y="331.651667"/>
     <use style="fill:#006793;" x="396.654545" xlink:href="#md599b1065e" y="328.820417"/>
     <use style="fill:#006793;" x="404.458741" xlink:href="#md599b1065e" y="329.764167"/>
     <use style="fill:#006793;" x="412.262937" xlink:href="#md599b1065e" y="331.337083"/>
     <use style="fill:#006793;" x="420.067133" xlink:href="#md599b1065e" y="328.505833"/>
     <use style="fill:#006793;" x="427.871329" xlink:href="#md599b1065e" y="331.337083"/>
     <use style="fill:#006793;" x="435.675524" xlink:href="#md599b1065e" y="331.337083"/>
     <use style="fill:#006793;" x="443.47972" xlink:href="#md599b1065e" y="330.07875"/>
     <use style="fill:#006793;" x="451.283916" xlink:href="#md599b1065e" y="329.135"/>
     <use style="fill:#006793;" x="459.088112" xlink:href="#md599b1065e" y="330.07875"/>
     <use style="fill:#006793;" x="466.892308" xlink:href="#md599b1065e" y="330.07875"/>
     <use style="fill:#006793;" x="474.696503" xlink:href="#md599b1065e" y="329.135"/>
     <use style="fill:#006793;" x="482.500699" xlink:href="#md599b1065e" y="331.96625"/>
     <use style="fill:#006793;" x="490.304895" xlink:href="#md599b1065e" y="330.07875"/>
     <use style="fill:#006793;" x="498.109091" xlink:href="#md599b1065e" y="328.505833"/>
    </g>
   </g>
   <g id="patch_3">
    <path d="M 72 346.5 
L 72 47.52 
" style="fill:none;"/>
   </g>
   <g id="patch_4">
    <path d="M 518.4 346.5 
L 518.4 47.52 
" style="fill:none;"/>
   </g>
   <g id="patch_5">
    <path d="M 72 346.5 
L 518.4 346.5 
" style="fill:none;"/>
   </g>
   <g id="patch_6">
    <path d="M 72 47.52 
L 518.4 47.52 
" style="fill:none;"/>
   </g>
   <g id="legend_1">
    <g id="line2d_26">
     <path d="M 286.868437 65.411562 
L 314.868437 65.411562 
" style="fill:none;stroke:#e73d0a;stroke-dasharray:6.475,2.8;stroke-dashoffset:0;stroke-width:1.75;"/>
    </g>
    <g id="line2d_27">
     <g>
      <use style="fill:#e73d0a;" x="300.868437" xlink:href="#mc7b42a4d56" y="65.411562"/>
     </g>
    </g>
    <g id="text_13">
     <!-- Customer becoming peer -->
     <defs>
      <path d="M 58.796875 25.09375 
L 68.265625 22.703125 
Q 65.28125 11.03125 57.546875 4.90625 
Q 49.8125 -1.21875 38.625 -1.21875 
Q 27.046875 -1.21875 19.796875 3.484375 
Q 12.546875 8.203125 8.765625 17.140625 
Q 4.984375 26.078125 4.984375 36.328125 
Q 4.984375 47.515625 9.25 55.828125 
Q 13.53125 64.15625 21.40625 68.46875 
Q 29.296875 72.796875 38.765625 72.796875 
Q 49.515625 72.796875 56.828125 67.328125 
Q 64.15625 61.859375 67.046875 51.953125 
L 57.71875 49.75 
Q 55.21875 57.5625 50.484375 61.125 
Q 45.75 64.703125 38.578125 64.703125 
Q 30.328125 64.703125 24.78125 60.734375 
Q 19.234375 56.78125 16.984375 50.109375 
Q 14.75 43.453125 14.75 36.375 
Q 14.75 27.25 17.40625 20.4375 
Q 20.0625 13.625 25.671875 10.25 
Q 31.296875 6.890625 37.84375 6.890625 
Q 45.796875 6.890625 51.3125 11.46875 
Q 56.84375 16.0625 58.796875 25.09375 
z
" id="ArialMT-67"/>
      <path d="M 40.578125 0 
L 40.578125 7.625 
Q 34.515625 -1.171875 24.125 -1.171875 
Q 19.53125 -1.171875 15.546875 0.578125 
Q 11.578125 2.34375 9.640625 5 
Q 7.71875 7.671875 6.9375 11.53125 
Q 6.390625 14.109375 6.390625 19.734375 
L 6.390625 51.859375 
L 15.1875 51.859375 
L 15.1875 23.09375 
Q 15.1875 16.21875 15.71875 13.8125 
Q 16.546875 10.359375 19.234375 8.375 
Q 21.921875 6.390625 25.875 6.390625 
Q 29.828125 6.390625 33.296875 8.421875 
Q 36.765625 10.453125 38.203125 13.9375 
Q 39.65625 17.4375 39.65625 24.078125 
L 39.65625 51.859375 
L 48.4375 51.859375 
L 48.4375 0 
z
" id="ArialMT-117"/>
      <path d="M 6.59375 0 
L 6.59375 51.859375 
L 14.453125 51.859375 
L 14.453125 44.578125 
Q 16.890625 48.390625 20.9375 50.703125 
Q 25 53.03125 30.171875 53.03125 
Q 35.9375 53.03125 39.625 50.640625 
Q 43.3125 48.25 44.828125 43.953125 
Q 50.984375 53.03125 60.84375 53.03125 
Q 68.5625 53.03125 72.703125 48.75 
Q 76.859375 44.484375 76.859375 35.59375 
L 76.859375 0 
L 68.109375 0 
L 68.109375 32.671875 
Q 68.109375 37.9375 67.25 40.25 
Q 66.40625 42.578125 64.15625 43.984375 
Q 61.921875 45.40625 58.890625 45.40625 
Q 53.421875 45.40625 49.796875 41.765625 
Q 46.1875 38.140625 46.1875 30.125 
L 46.1875 0 
L 37.40625 0 
L 37.40625 33.6875 
Q 37.40625 39.546875 35.25 42.46875 
Q 33.109375 45.40625 28.21875 45.40625 
Q 24.515625 45.40625 21.359375 43.453125 
Q 18.21875 41.5 16.796875 37.734375 
Q 15.375 33.984375 15.375 26.90625 
L 15.375 0 
z
" id="ArialMT-109"/>
      <path d="M 6.5 0 
L 6.5 51.859375 
L 14.40625 51.859375 
L 14.40625 44 
Q 17.4375 49.515625 20 51.265625 
Q 22.5625 53.03125 25.640625 53.03125 
Q 30.078125 53.03125 34.671875 50.203125 
L 31.640625 42.046875 
Q 28.421875 43.953125 25.203125 43.953125 
Q 22.3125 43.953125 20.015625 42.21875 
Q 17.71875 40.484375 16.75 37.40625 
Q 15.28125 32.71875 15.28125 27.15625 
L 15.28125 0 
z
" id="ArialMT-114"/>
      <path d="M 40.4375 19 
L 49.078125 17.875 
Q 47.65625 8.9375 41.8125 3.875 
Q 35.984375 -1.171875 27.484375 -1.171875 
Q 16.84375 -1.171875 10.375 5.78125 
Q 3.90625 12.75 3.90625 25.734375 
Q 3.90625 34.125 6.6875 40.421875 
Q 9.46875 46.734375 15.15625 49.875 
Q 20.84375 53.03125 27.546875 53.03125 
Q 35.984375 53.03125 41.359375 48.75 
Q 46.734375 44.484375 48.25 36.625 
L 39.703125 35.296875 
Q 38.484375 40.53125 35.375 43.15625 
Q 32.28125 45.796875 27.875 45.796875 
Q 21.234375 45.796875 17.078125 41.03125 
Q 12.9375 36.28125 12.9375 25.984375 
Q 12.9375 15.53125 16.9375 10.796875 
Q 20.953125 6.0625 27.390625 6.0625 
Q 32.5625 6.0625 36.03125 9.234375 
Q 39.5 12.40625 40.4375 19 
z
" id="ArialMT-99"/>
      <path d="M 6.640625 61.46875 
L 6.640625 71.578125 
L 15.4375 71.578125 
L 15.4375 61.46875 
z
M 6.640625 0 
L 6.640625 51.859375 
L 15.4375 51.859375 
L 15.4375 0 
z
" id="ArialMT-105"/>
      <path d="M 6.59375 0 
L 6.59375 51.859375 
L 14.5 51.859375 
L 14.5 44.484375 
Q 20.21875 53.03125 31 53.03125 
Q 35.6875 53.03125 39.625 51.34375 
Q 43.5625 49.65625 45.515625 46.921875 
Q 47.46875 44.1875 48.25 40.4375 
Q 48.734375 37.984375 48.734375 31.890625 
L 48.734375 0 
L 39.9375 0 
L 39.9375 31.546875 
Q 39.9375 36.921875 38.90625 39.578125 
Q 37.890625 42.234375 35.28125 43.8125 
Q 32.671875 45.40625 29.15625 45.40625 
Q 23.53125 45.40625 19.453125 41.84375 
Q 15.375 38.28125 15.375 28.328125 
L 15.375 0 
z
" id="ArialMT-110"/>
      <path d="M 6.59375 -19.875 
L 6.59375 51.859375 
L 14.59375 51.859375 
L 14.59375 45.125 
Q 17.4375 49.078125 21 51.046875 
Q 24.5625 53.03125 29.640625 53.03125 
Q 36.28125 53.03125 41.359375 49.609375 
Q 46.4375 46.1875 49.015625 39.953125 
Q 51.609375 33.734375 51.609375 26.3125 
Q 51.609375 18.359375 48.75 11.984375 
Q 45.90625 5.609375 40.453125 2.21875 
Q 35.015625 -1.171875 29 -1.171875 
Q 24.609375 -1.171875 21.109375 0.6875 
Q 17.625 2.546875 15.375 5.375 
L 15.375 -19.875 
z
M 14.546875 25.640625 
Q 14.546875 15.625 18.59375 10.84375 
Q 22.65625 6.0625 28.421875 6.0625 
Q 34.28125 6.0625 38.453125 11.015625 
Q 42.625 15.96875 42.625 26.375 
Q 42.625 36.28125 38.546875 41.203125 
Q 34.46875 46.140625 28.8125 46.140625 
Q 23.1875 46.140625 18.859375 40.890625 
Q 14.546875 35.640625 14.546875 25.640625 
z
" id="ArialMT-112"/>
     </defs>
     <g style="fill:#262626;" transform="translate(326.068437 70.311562)scale(0.14 -0.14)">
      <use xlink:href="#ArialMT-67"/>
      <use x="72.216797" xlink:href="#ArialMT-117"/>
      <use x="127.832031" xlink:href="#ArialMT-115"/>
      <use x="177.832031" xlink:href="#ArialMT-116"/>
      <use x="205.615234" xlink:href="#ArialMT-111"/>
      <use x="261.230469" xlink:href="#ArialMT-109"/>
      <use x="344.53125" xlink:href="#ArialMT-101"/>
      <use x="400.146484" xlink:href="#ArialMT-114"/>
      <use x="433.447266" xlink:href="#ArialMT-32"/>
      <use x="461.230469" xlink:href="#ArialMT-98"/>
      <use x="516.845703" xlink:href="#ArialMT-101"/>
      <use x="572.460938" xlink:href="#ArialMT-99"/>
      <use x="622.460938" xlink:href="#ArialMT-111"/>
      <use x="678.076172" xlink:href="#ArialMT-109"/>
      <use x="761.376953" xlink:href="#ArialMT-105"/>
      <use x="783.59375" xlink:href="#ArialMT-110"/>
      <use x="839.208984" xlink:href="#ArialMT-103"/>
      <use x="894.824219" xlink:href="#ArialMT-32"/>
      <use x="922.607422" xlink:href="#ArialMT-112"/>
      <use x="978.222656" xlink:href="#ArialMT-101"/>
      <use x="1033.837891" xlink:href="#ArialMT-101"/>
      <use x="1089.453125" xlink:href="#ArialMT-114"/>
     </g>
    </g>
    <g id="line2d_28">
     <path d="M 286.868437 85.379063 
L 314.868437 85.379063 
" style="fill:none;stroke:#5e8a00;stroke-dasharray:6.475,2.8;stroke-dashoffset:0;stroke-width:1.75;"/>
    </g>
    <g id="line2d_29">
     <g>
      <use style="fill:#5e8a00;" x="300.868437" xlink:href="#m2d3e53334e" y="85.379063"/>
     </g>
    </g>
    <g id="text_14">
     <!-- Peer becoming customer -->
     <defs>
      <path d="M 7.71875 0 
L 7.71875 71.578125 
L 34.71875 71.578125 
Q 41.84375 71.578125 45.609375 70.90625 
Q 50.875 70.015625 54.4375 67.546875 
Q 58.015625 65.09375 60.1875 60.640625 
Q 62.359375 56.203125 62.359375 50.875 
Q 62.359375 41.75 56.546875 35.421875 
Q 50.734375 29.109375 35.546875 29.109375 
L 17.1875 29.109375 
L 17.1875 0 
z
M 17.1875 37.546875 
L 35.6875 37.546875 
Q 44.875 37.546875 48.734375 40.96875 
Q 52.59375 44.390625 52.59375 50.59375 
Q 52.59375 55.078125 50.3125 58.265625 
Q 48.046875 61.46875 44.34375 62.5 
Q 41.9375 63.140625 35.5 63.140625 
L 17.1875 63.140625 
z
" id="ArialMT-80"/>
     </defs>
     <g style="fill:#262626;" transform="translate(326.068437 90.279063)scale(0.14 -0.14)">
      <use xlink:href="#ArialMT-80"/>
      <use x="66.699219" xlink:href="#ArialMT-101"/>
      <use x="122.314453" xlink:href="#ArialMT-101"/>
      <use x="177.929688" xlink:href="#ArialMT-114"/>
      <use x="211.230469" xlink:href="#ArialMT-32"/>
      <use x="239.013672" xlink:href="#ArialMT-98"/>
      <use x="294.628906" xlink:href="#ArialMT-101"/>
      <use x="350.244141" xlink:href="#ArialMT-99"/>
      <use x="400.244141" xlink:href="#ArialMT-111"/>
      <use x="455.859375" xlink:href="#ArialMT-109"/>
      <use x="539.160156" xlink:href="#ArialMT-105"/>
      <use x="561.376953" xlink:href="#ArialMT-110"/>
      <use x="616.992188" xlink:href="#ArialMT-103"/>
      <use x="672.607422" xlink:href="#ArialMT-32"/>
      <use x="700.390625" xlink:href="#ArialMT-99"/>
      <use x="750.390625" xlink:href="#ArialMT-117"/>
      <use x="806.005859" xlink:href="#ArialMT-115"/>
      <use x="856.005859" xlink:href="#ArialMT-116"/>
      <use x="883.789062" xlink:href="#ArialMT-111"/>
      <use x="939.404297" xlink:href="#ArialMT-109"/>
      <use x="1022.705078" xlink:href="#ArialMT-101"/>
      <use x="1078.320312" xlink:href="#ArialMT-114"/>
     </g>
    </g>
    <g id="line2d_30">
     <path d="M 286.868437 105.517187 
L 314.868437 105.517187 
" style="fill:none;stroke:#006793;stroke-dasharray:6.475,2.8;stroke-dashoffset:0;stroke-width:1.75;"/>
    </g>
    <g id="line2d_31">
     <g>
      <use style="fill:#006793;" x="300.868437" xlink:href="#md599b1065e" y="105.517187"/>
     </g>
    </g>
    <g id="text_15">
     <!-- Customer becoming provider -->
     <defs>
      <path d="M 21 0 
L 1.265625 51.859375 
L 10.546875 51.859375 
L 21.6875 20.796875 
Q 23.484375 15.765625 25 10.359375 
Q 26.171875 14.453125 28.265625 20.21875 
L 39.796875 51.859375 
L 48.828125 51.859375 
L 29.203125 0 
z
" id="ArialMT-118"/>
     </defs>
     <g style="fill:#262626;" transform="translate(326.068437 110.417187)scale(0.14 -0.14)">
      <use xlink:href="#ArialMT-67"/>
      <use x="72.216797" xlink:href="#ArialMT-117"/>
      <use x="127.832031" xlink:href="#ArialMT-115"/>
      <use x="177.832031" xlink:href="#ArialMT-116"/>
      <use x="205.615234" xlink:href="#ArialMT-111"/>
      <use x="261.230469" xlink:href="#ArialMT-109"/>
      <use x="344.53125" xlink:href="#ArialMT-101"/>
      <use x="400.146484" xlink:href="#ArialMT-114"/>
      <use x="433.447266" xlink:href="#ArialMT-32"/>
      <use x="461.230469" xlink:href="#ArialMT-98"/>
      <use x="516.845703" xlink:href="#ArialMT-101"/>
      <use x="572.460938" xlink:href="#ArialMT-99"/>
      <use x="622.460938" xlink:href="#ArialMT-111"/>
      <use x="678.076172" xlink:href="#ArialMT-109"/>
      <use x="761.376953" xlink:href="#ArialMT-105"/>
      <use x="783.59375" xlink:href="#ArialMT-110"/>
      <use x="839.208984" xlink:href="#ArialMT-103"/>
      <use x="894.824219" xlink:href="#ArialMT-32"/>
      <use x="922.607422" xlink:href="#ArialMT-112"/>
      <use x="978.222656" xlink:href="#ArialMT-114"/>
      <use x="1011.523438" xlink:href="#ArialMT-111"/>
      <use x="1067.138672" xlink:href="#ArialMT-118"/>
      <use x="1117.138672" xlink:href="#ArialMT-105"/>
      <use x="1139.355469" xlink:href="#ArialMT-100"/>
      <use x="1194.970703" xlink:href="#ArialMT-101"/>
      <use x="1250.585938" xlink:href="#ArialMT-114"/>
     </g>
    </g>
   </g>
  </g>
 </g>
 <defs>
  <clipPath id="pc3252c942e">
   <rect height="298.98" width="446.4" x="72" y="47.52"/>
  </clipPath>
 </defs>
</svg>
