<?xml version="1.0" encoding="utf-8" standalone="no"?>
<!DOCTYPE svg PUBLIC "-//W3C//DTD SVG 1.1//EN"
  "http://www.w3.org/Graphics/SVG/1.1/DTD/svg11.dtd">
<!-- Created with matplotlib (https://matplotlib.org/) -->
<svg height="396pt" version="1.1" viewBox="0 0 576 396" width="576pt" xmlns="http://www.w3.org/2000/svg" xmlns:xlink="http://www.w3.org/1999/xlink">
 <defs>
  <style type="text/css">
*{stroke-linecap:butt;stroke-linejoin:round;}
  </style>
 </defs>
 <g id="figure_1">
  <g id="patch_1">
   <path d="M 0 396 
L 576 396 
L 576 0 
L 0 0 
z
" style="fill:#ffffff;"/>
  </g>
  <g id="axes_1">
   <g id="patch_2">
    <path d="M 72 346.5 
L 518.4 346.5 
L 518.4 47.52 
L 72 47.52 
z
" style="fill:#eaeaf2;"/>
   </g>
   <g id="matplotlib.axis_1">
    <g id="xtick_1">
     <g id="line2d_1">
      <path clip-path="url(#p61cf04f51f)" d="M 137.381818 346.5 
L 137.381818 47.52 
" style="fill:none;stroke:#ffffff;stroke-linecap:round;"/>
     </g>
     <g id="line2d_2"/>
     <g id="text_1">
      <!-- 0.5 -->
      <defs>
       <path d="M 4.15625 35.296875 
Q 4.15625 48 6.765625 55.734375 
Q 9.375 63.484375 14.515625 67.671875 
Q 19.671875 71.875 27.484375 71.875 
Q 33.25 71.875 37.59375 69.546875 
Q 41.9375 67.234375 44.765625 62.859375 
Q 47.609375 58.5 49.21875 52.21875 
Q 50.828125 45.953125 50.828125 35.296875 
Q 50.828125 22.703125 48.234375 14.96875 
Q 45.65625 7.234375 40.5 3 
Q 35.359375 -1.21875 27.484375 -1.21875 
Q 17.140625 -1.21875 11.234375 6.203125 
Q 4.15625 15.140625 4.15625 35.296875 
z
M 13.1875 35.296875 
Q 13.1875 17.671875 17.3125 11.828125 
Q 21.4375 6 27.484375 6 
Q 33.546875 6 37.671875 11.859375 
Q 41.796875 17.71875 41.796875 35.296875 
Q 41.796875 52.984375 37.671875 58.78125 
Q 33.546875 64.59375 27.390625 64.59375 
Q 21.34375 64.59375 17.71875 59.46875 
Q 13.1875 52.9375 13.1875 35.296875 
z
" id="ArialMT-48"/>
       <path d="M 9.078125 0 
L 9.078125 10.015625 
L 19.09375 10.015625 
L 19.09375 0 
z
" id="ArialMT-46"/>
       <path d="M 4.15625 18.75 
L 13.375 19.53125 
Q 14.40625 12.796875 18.140625 9.390625 
Q 21.875 6 27.15625 6 
Q 33.5 6 37.890625 10.78125 
Q 42.28125 15.578125 42.28125 23.484375 
Q 42.28125 31 38.0625 35.34375 
Q 33.84375 39.703125 27 39.703125 
Q 22.75 39.703125 19.328125 37.765625 
Q 15.921875 35.84375 13.96875 32.765625 
L 5.71875 33.84375 
L 12.640625 70.609375 
L 48.25 70.609375 
L 48.25 62.203125 
L 19.671875 62.203125 
L 15.828125 42.96875 
Q 22.265625 47.46875 29.34375 47.46875 
Q 38.71875 47.46875 45.15625 40.96875 
Q 51.609375 34.46875 51.609375 24.265625 
Q 51.609375 14.546875 45.953125 7.46875 
Q 39.0625 -1.21875 27.15625 -1.21875 
Q 17.390625 -1.21875 11.203125 4.25 
Q 5.03125 9.71875 4.15625 18.75 
z
" id="ArialMT-53"/>
      </defs>
      <g style="fill:#262626;" transform="translate(130.431818 360.657812)scale(0.1 -0.1)">
       <use xlink:href="#ArialMT-48"/>
       <use x="55.615234" xlink:href="#ArialMT-46"/>
       <use x="83.398438" xlink:href="#ArialMT-53"/>
      </g>
     </g>
    </g>
    <g id="xtick_2">
     <g id="line2d_3">
      <path clip-path="url(#p61cf04f51f)" d="M 227.563636 346.5 
L 227.563636 47.52 
" style="fill:none;stroke:#ffffff;stroke-linecap:round;"/>
     </g>
     <g id="line2d_4"/>
     <g id="text_2">
      <!-- 1.0 -->
      <defs>
       <path d="M 37.25 0 
L 28.46875 0 
L 28.46875 56 
Q 25.296875 52.984375 20.140625 49.953125 
Q 14.984375 46.921875 10.890625 45.40625 
L 10.890625 53.90625 
Q 18.265625 57.375 23.78125 62.296875 
Q 29.296875 67.234375 31.59375 71.875 
L 37.25 71.875 
z
" id="ArialMT-49"/>
      </defs>
      <g style="fill:#262626;" transform="translate(220.613636 360.657812)scale(0.1 -0.1)">
       <use xlink:href="#ArialMT-49"/>
       <use x="55.615234" xlink:href="#ArialMT-46"/>
       <use x="83.398438" xlink:href="#ArialMT-48"/>
      </g>
     </g>
    </g>
    <g id="xtick_3">
     <g id="line2d_5">
      <path clip-path="url(#p61cf04f51f)" d="M 317.745455 346.5 
L 317.745455 47.52 
" style="fill:none;stroke:#ffffff;stroke-linecap:round;"/>
     </g>
     <g id="line2d_6"/>
     <g id="text_3">
      <!-- 1.5 -->
      <g style="fill:#262626;" transform="translate(310.795455 360.657812)scale(0.1 -0.1)">
       <use xlink:href="#ArialMT-49"/>
       <use x="55.615234" xlink:href="#ArialMT-46"/>
       <use x="83.398438" xlink:href="#ArialMT-53"/>
      </g>
     </g>
    </g>
    <g id="xtick_4">
     <g id="line2d_7">
      <path clip-path="url(#p61cf04f51f)" d="M 407.927273 346.5 
L 407.927273 47.52 
" style="fill:none;stroke:#ffffff;stroke-linecap:round;"/>
     </g>
     <g id="line2d_8"/>
     <g id="text_4">
      <!-- 2.0 -->
      <defs>
       <path d="M 50.34375 8.453125 
L 50.34375 0 
L 3.03125 0 
Q 2.9375 3.171875 4.046875 6.109375 
Q 5.859375 10.9375 9.828125 15.625 
Q 13.8125 20.3125 21.34375 26.46875 
Q 33.015625 36.03125 37.109375 41.625 
Q 41.21875 47.21875 41.21875 52.203125 
Q 41.21875 57.421875 37.46875 61 
Q 33.734375 64.59375 27.734375 64.59375 
Q 21.390625 64.59375 17.578125 60.78125 
Q 13.765625 56.984375 13.71875 50.25 
L 4.6875 51.171875 
Q 5.609375 61.28125 11.65625 66.578125 
Q 17.71875 71.875 27.9375 71.875 
Q 38.234375 71.875 44.234375 66.15625 
Q 50.25 60.453125 50.25 52 
Q 50.25 47.703125 48.484375 43.546875 
Q 46.734375 39.40625 42.65625 34.8125 
Q 38.578125 30.21875 29.109375 22.21875 
Q 21.1875 15.578125 18.9375 13.203125 
Q 16.703125 10.84375 15.234375 8.453125 
z
" id="ArialMT-50"/>
      </defs>
      <g style="fill:#262626;" transform="translate(400.977273 360.657812)scale(0.1 -0.1)">
       <use xlink:href="#ArialMT-50"/>
       <use x="55.615234" xlink:href="#ArialMT-46"/>
       <use x="83.398438" xlink:href="#ArialMT-48"/>
      </g>
     </g>
    </g>
    <g id="xtick_5">
     <g id="line2d_9">
      <path clip-path="url(#p61cf04f51f)" d="M 498.109091 346.5 
L 498.109091 47.52 
" style="fill:none;stroke:#ffffff;stroke-linecap:round;"/>
     </g>
     <g id="line2d_10"/>
     <g id="text_5">
      <!-- 2.5 -->
      <g style="fill:#262626;" transform="translate(491.159091 360.657812)scale(0.1 -0.1)">
       <use xlink:href="#ArialMT-50"/>
       <use x="55.615234" xlink:href="#ArialMT-46"/>
       <use x="83.398438" xlink:href="#ArialMT-53"/>
      </g>
     </g>
    </g>
    <g id="text_6">
     <!-- Stretch -->
     <defs>
      <path d="M 4.5 23 
L 13.421875 23.78125 
Q 14.0625 18.40625 16.375 14.96875 
Q 18.703125 11.53125 23.578125 9.40625 
Q 28.46875 7.28125 34.578125 7.28125 
Q 39.984375 7.28125 44.140625 8.890625 
Q 48.296875 10.5 50.3125 13.296875 
Q 52.34375 16.109375 52.34375 19.4375 
Q 52.34375 22.796875 50.390625 25.3125 
Q 48.4375 27.828125 43.953125 29.546875 
Q 41.0625 30.671875 31.203125 33.03125 
Q 21.34375 35.40625 17.390625 37.5 
Q 12.25 40.1875 9.734375 44.15625 
Q 7.234375 48.140625 7.234375 53.078125 
Q 7.234375 58.5 10.296875 63.203125 
Q 13.375 67.921875 19.28125 70.359375 
Q 25.203125 72.796875 32.421875 72.796875 
Q 40.375 72.796875 46.453125 70.234375 
Q 52.546875 67.671875 55.8125 62.6875 
Q 59.078125 57.71875 59.328125 51.421875 
L 50.25 50.734375 
Q 49.515625 57.515625 45.28125 60.984375 
Q 41.0625 64.453125 32.8125 64.453125 
Q 24.21875 64.453125 20.28125 61.296875 
Q 16.359375 58.15625 16.359375 53.71875 
Q 16.359375 49.859375 19.140625 47.359375 
Q 21.875 44.875 33.421875 42.265625 
Q 44.96875 39.65625 49.265625 37.703125 
Q 55.515625 34.8125 58.484375 30.390625 
Q 61.46875 25.984375 61.46875 20.21875 
Q 61.46875 14.5 58.203125 9.4375 
Q 54.9375 4.390625 48.796875 1.578125 
Q 42.671875 -1.21875 35.015625 -1.21875 
Q 25.296875 -1.21875 18.71875 1.609375 
Q 12.15625 4.4375 8.421875 10.125 
Q 4.6875 15.828125 4.5 23 
z
" id="ArialMT-83"/>
      <path d="M 25.78125 7.859375 
L 27.046875 0.09375 
Q 23.34375 -0.6875 20.40625 -0.6875 
Q 15.625 -0.6875 12.984375 0.828125 
Q 10.359375 2.34375 9.28125 4.8125 
Q 8.203125 7.28125 8.203125 15.1875 
L 8.203125 45.015625 
L 1.765625 45.015625 
L 1.765625 51.859375 
L 8.203125 51.859375 
L 8.203125 64.703125 
L 16.9375 69.96875 
L 16.9375 51.859375 
L 25.78125 51.859375 
L 25.78125 45.015625 
L 16.9375 45.015625 
L 16.9375 14.703125 
Q 16.9375 10.9375 17.40625 9.859375 
Q 17.875 8.796875 18.921875 8.15625 
Q 19.96875 7.515625 21.921875 7.515625 
Q 23.390625 7.515625 25.78125 7.859375 
z
" id="ArialMT-116"/>
      <path d="M 6.5 0 
L 6.5 51.859375 
L 14.40625 51.859375 
L 14.40625 44 
Q 17.4375 49.515625 20 51.265625 
Q 22.5625 53.03125 25.640625 53.03125 
Q 30.078125 53.03125 34.671875 50.203125 
L 31.640625 42.046875 
Q 28.421875 43.953125 25.203125 43.953125 
Q 22.3125 43.953125 20.015625 42.21875 
Q 17.71875 40.484375 16.75 37.40625 
Q 15.28125 32.71875 15.28125 27.15625 
L 15.28125 0 
z
" id="ArialMT-114"/>
      <path d="M 42.09375 16.703125 
L 51.171875 15.578125 
Q 49.03125 7.625 43.21875 3.21875 
Q 37.40625 -1.171875 28.375 -1.171875 
Q 17 -1.171875 10.328125 5.828125 
Q 3.65625 12.84375 3.65625 25.484375 
Q 3.65625 38.578125 10.390625 45.796875 
Q 17.140625 53.03125 27.875 53.03125 
Q 38.28125 53.03125 44.875 45.953125 
Q 51.46875 38.875 51.46875 26.03125 
Q 51.46875 25.25 51.421875 23.6875 
L 12.75 23.6875 
Q 13.234375 15.140625 17.578125 10.59375 
Q 21.921875 6.0625 28.421875 6.0625 
Q 33.25 6.0625 36.671875 8.59375 
Q 40.09375 11.140625 42.09375 16.703125 
z
M 13.234375 30.90625 
L 42.1875 30.90625 
Q 41.609375 37.453125 38.875 40.71875 
Q 34.671875 45.796875 27.984375 45.796875 
Q 21.921875 45.796875 17.796875 41.75 
Q 13.671875 37.703125 13.234375 30.90625 
z
" id="ArialMT-101"/>
      <path d="M 40.4375 19 
L 49.078125 17.875 
Q 47.65625 8.9375 41.8125 3.875 
Q 35.984375 -1.171875 27.484375 -1.171875 
Q 16.84375 -1.171875 10.375 5.78125 
Q 3.90625 12.75 3.90625 25.734375 
Q 3.90625 34.125 6.6875 40.421875 
Q 9.46875 46.734375 15.15625 49.875 
Q 20.84375 53.03125 27.546875 53.03125 
Q 35.984375 53.03125 41.359375 48.75 
Q 46.734375 44.484375 48.25 36.625 
L 39.703125 35.296875 
Q 38.484375 40.53125 35.375 43.15625 
Q 32.28125 45.796875 27.875 45.796875 
Q 21.234375 45.796875 17.078125 41.03125 
Q 12.9375 36.28125 12.9375 25.984375 
Q 12.9375 15.53125 16.9375 10.796875 
Q 20.953125 6.0625 27.390625 6.0625 
Q 32.5625 6.0625 36.03125 9.234375 
Q 39.5 12.40625 40.4375 19 
z
" id="ArialMT-99"/>
      <path d="M 6.59375 0 
L 6.59375 71.578125 
L 15.375 71.578125 
L 15.375 45.90625 
Q 21.53125 53.03125 30.90625 53.03125 
Q 36.671875 53.03125 40.921875 50.75 
Q 45.171875 48.484375 47 44.484375 
Q 48.828125 40.484375 48.828125 32.859375 
L 48.828125 0 
L 40.046875 0 
L 40.046875 32.859375 
Q 40.046875 39.453125 37.1875 42.453125 
Q 34.328125 45.453125 29.109375 45.453125 
Q 25.203125 45.453125 21.75 43.421875 
Q 18.3125 41.40625 16.84375 37.9375 
Q 15.375 34.46875 15.375 28.375 
L 15.375 0 
z
" id="ArialMT-104"/>
     </defs>
     <g style="fill:#262626;" transform="translate(277.777031 374.518906)scale(0.11 -0.11)">
      <use xlink:href="#ArialMT-83"/>
      <use x="66.699219" xlink:href="#ArialMT-116"/>
      <use x="94.482422" xlink:href="#ArialMT-114"/>
      <use x="127.783203" xlink:href="#ArialMT-101"/>
      <use x="183.398438" xlink:href="#ArialMT-116"/>
      <use x="211.181641" xlink:href="#ArialMT-99"/>
      <use x="261.181641" xlink:href="#ArialMT-104"/>
     </g>
    </g>
   </g>
   <g id="matplotlib.axis_2">
    <g id="ytick_1">
     <g id="line2d_11">
      <path clip-path="url(#p61cf04f51f)" d="M 72 332.91 
L 518.4 332.91 
" style="fill:none;stroke:#ffffff;stroke-linecap:round;"/>
     </g>
     <g id="line2d_12"/>
     <g id="text_7">
      <!-- 0.0 -->
      <g style="fill:#262626;" transform="translate(51.1 336.488906)scale(0.1 -0.1)">
       <use xlink:href="#ArialMT-48"/>
       <use x="55.615234" xlink:href="#ArialMT-46"/>
       <use x="83.398438" xlink:href="#ArialMT-48"/>
      </g>
     </g>
    </g>
    <g id="ytick_2">
     <g id="line2d_13">
      <path clip-path="url(#p61cf04f51f)" d="M 72 278.536262 
L 518.4 278.536262 
" style="fill:none;stroke:#ffffff;stroke-linecap:round;"/>
     </g>
     <g id="line2d_14"/>
     <g id="text_8">
      <!-- 0.2 -->
      <g style="fill:#262626;" transform="translate(51.1 282.115169)scale(0.1 -0.1)">
       <use xlink:href="#ArialMT-48"/>
       <use x="55.615234" xlink:href="#ArialMT-46"/>
       <use x="83.398438" xlink:href="#ArialMT-50"/>
      </g>
     </g>
    </g>
    <g id="ytick_3">
     <g id="line2d_15">
      <path clip-path="url(#p61cf04f51f)" d="M 72 224.162525 
L 518.4 224.162525 
" style="fill:none;stroke:#ffffff;stroke-linecap:round;"/>
     </g>
     <g id="line2d_16"/>
     <g id="text_9">
      <!-- 0.4 -->
      <defs>
       <path d="M 32.328125 0 
L 32.328125 17.140625 
L 1.265625 17.140625 
L 1.265625 25.203125 
L 33.9375 71.578125 
L 41.109375 71.578125 
L 41.109375 25.203125 
L 50.78125 25.203125 
L 50.78125 17.140625 
L 41.109375 17.140625 
L 41.109375 0 
z
M 32.328125 25.203125 
L 32.328125 57.46875 
L 9.90625 25.203125 
z
" id="ArialMT-52"/>
      </defs>
      <g style="fill:#262626;" transform="translate(51.1 227.741431)scale(0.1 -0.1)">
       <use xlink:href="#ArialMT-48"/>
       <use x="55.615234" xlink:href="#ArialMT-46"/>
       <use x="83.398438" xlink:href="#ArialMT-52"/>
      </g>
     </g>
    </g>
    <g id="ytick_4">
     <g id="line2d_17">
      <path clip-path="url(#p61cf04f51f)" d="M 72 169.788787 
L 518.4 169.788787 
" style="fill:none;stroke:#ffffff;stroke-linecap:round;"/>
     </g>
     <g id="line2d_18"/>
     <g id="text_10">
      <!-- 0.6 -->
      <defs>
       <path d="M 49.75 54.046875 
L 41.015625 53.375 
Q 39.84375 58.546875 37.703125 60.890625 
Q 34.125 64.65625 28.90625 64.65625 
Q 24.703125 64.65625 21.53125 62.3125 
Q 17.390625 59.28125 14.984375 53.46875 
Q 12.59375 47.65625 12.5 36.921875 
Q 15.671875 41.75 20.265625 44.09375 
Q 24.859375 46.4375 29.890625 46.4375 
Q 38.671875 46.4375 44.84375 39.96875 
Q 51.03125 33.5 51.03125 23.25 
Q 51.03125 16.5 48.125 10.71875 
Q 45.21875 4.9375 40.140625 1.859375 
Q 35.0625 -1.21875 28.609375 -1.21875 
Q 17.625 -1.21875 10.6875 6.859375 
Q 3.765625 14.9375 3.765625 33.5 
Q 3.765625 54.25 11.421875 63.671875 
Q 18.109375 71.875 29.4375 71.875 
Q 37.890625 71.875 43.28125 67.140625 
Q 48.6875 62.40625 49.75 54.046875 
z
M 13.875 23.1875 
Q 13.875 18.65625 15.796875 14.5 
Q 17.71875 10.359375 21.1875 8.171875 
Q 24.65625 6 28.46875 6 
Q 34.03125 6 38.03125 10.484375 
Q 42.046875 14.984375 42.046875 22.703125 
Q 42.046875 30.125 38.078125 34.390625 
Q 34.125 38.671875 28.125 38.671875 
Q 22.171875 38.671875 18.015625 34.390625 
Q 13.875 30.125 13.875 23.1875 
z
" id="ArialMT-54"/>
      </defs>
      <g style="fill:#262626;" transform="translate(51.1 173.367693)scale(0.1 -0.1)">
       <use xlink:href="#ArialMT-48"/>
       <use x="55.615234" xlink:href="#ArialMT-46"/>
       <use x="83.398438" xlink:href="#ArialMT-54"/>
      </g>
     </g>
    </g>
    <g id="ytick_5">
     <g id="line2d_19">
      <path clip-path="url(#p61cf04f51f)" d="M 72 115.415049 
L 518.4 115.415049 
" style="fill:none;stroke:#ffffff;stroke-linecap:round;"/>
     </g>
     <g id="line2d_20"/>
     <g id="text_11">
      <!-- 0.8 -->
      <defs>
       <path d="M 17.671875 38.8125 
Q 12.203125 40.828125 9.5625 44.53125 
Q 6.9375 48.25 6.9375 53.421875 
Q 6.9375 61.234375 12.546875 66.546875 
Q 18.171875 71.875 27.484375 71.875 
Q 36.859375 71.875 42.578125 66.421875 
Q 48.296875 60.984375 48.296875 53.171875 
Q 48.296875 48.1875 45.671875 44.5 
Q 43.0625 40.828125 37.75 38.8125 
Q 44.34375 36.671875 47.78125 31.875 
Q 51.21875 27.09375 51.21875 20.453125 
Q 51.21875 11.28125 44.71875 5.03125 
Q 38.234375 -1.21875 27.640625 -1.21875 
Q 17.046875 -1.21875 10.546875 5.046875 
Q 4.046875 11.328125 4.046875 20.703125 
Q 4.046875 27.6875 7.59375 32.390625 
Q 11.140625 37.109375 17.671875 38.8125 
z
M 15.921875 53.71875 
Q 15.921875 48.640625 19.1875 45.40625 
Q 22.46875 42.1875 27.6875 42.1875 
Q 32.765625 42.1875 36.015625 45.375 
Q 39.265625 48.578125 39.265625 53.21875 
Q 39.265625 58.0625 35.90625 61.359375 
Q 32.5625 64.65625 27.59375 64.65625 
Q 22.5625 64.65625 19.234375 61.421875 
Q 15.921875 58.203125 15.921875 53.71875 
z
M 13.09375 20.65625 
Q 13.09375 16.890625 14.875 13.375 
Q 16.65625 9.859375 20.171875 7.921875 
Q 23.6875 6 27.734375 6 
Q 34.03125 6 38.125 10.046875 
Q 42.234375 14.109375 42.234375 20.359375 
Q 42.234375 26.703125 38.015625 30.859375 
Q 33.796875 35.015625 27.4375 35.015625 
Q 21.234375 35.015625 17.15625 30.90625 
Q 13.09375 26.8125 13.09375 20.65625 
z
" id="ArialMT-56"/>
      </defs>
      <g style="fill:#262626;" transform="translate(51.1 118.993956)scale(0.1 -0.1)">
       <use xlink:href="#ArialMT-48"/>
       <use x="55.615234" xlink:href="#ArialMT-46"/>
       <use x="83.398438" xlink:href="#ArialMT-56"/>
      </g>
     </g>
    </g>
    <g id="ytick_6">
     <g id="line2d_21">
      <path clip-path="url(#p61cf04f51f)" d="M 72 61.041312 
L 518.4 61.041312 
" style="fill:none;stroke:#ffffff;stroke-linecap:round;"/>
     </g>
     <g id="line2d_22"/>
     <g id="text_12">
      <!-- 1.0 -->
      <g style="fill:#262626;" transform="translate(51.1 64.620218)scale(0.1 -0.1)">
       <use xlink:href="#ArialMT-49"/>
       <use x="55.615234" xlink:href="#ArialMT-46"/>
       <use x="83.398438" xlink:href="#ArialMT-48"/>
      </g>
     </g>
    </g>
    <g id="text_13">
     <!-- Probability -->
     <defs>
      <path d="M 7.71875 0 
L 7.71875 71.578125 
L 34.71875 71.578125 
Q 41.84375 71.578125 45.609375 70.90625 
Q 50.875 70.015625 54.4375 67.546875 
Q 58.015625 65.09375 60.1875 60.640625 
Q 62.359375 56.203125 62.359375 50.875 
Q 62.359375 41.75 56.546875 35.421875 
Q 50.734375 29.109375 35.546875 29.109375 
L 17.1875 29.109375 
L 17.1875 0 
z
M 17.1875 37.546875 
L 35.6875 37.546875 
Q 44.875 37.546875 48.734375 40.96875 
Q 52.59375 44.390625 52.59375 50.59375 
Q 52.59375 55.078125 50.3125 58.265625 
Q 48.046875 61.46875 44.34375 62.5 
Q 41.9375 63.140625 35.5 63.140625 
L 17.1875 63.140625 
z
" id="ArialMT-80"/>
      <path d="M 3.328125 25.921875 
Q 3.328125 40.328125 11.328125 47.265625 
Q 18.015625 53.03125 27.640625 53.03125 
Q 38.328125 53.03125 45.109375 46.015625 
Q 51.90625 39.015625 51.90625 26.65625 
Q 51.90625 16.65625 48.90625 10.90625 
Q 45.90625 5.171875 40.15625 2 
Q 34.421875 -1.171875 27.640625 -1.171875 
Q 16.75 -1.171875 10.03125 5.8125 
Q 3.328125 12.796875 3.328125 25.921875 
z
M 12.359375 25.921875 
Q 12.359375 15.96875 16.703125 11.015625 
Q 21.046875 6.0625 27.640625 6.0625 
Q 34.1875 6.0625 38.53125 11.03125 
Q 42.875 16.015625 42.875 26.21875 
Q 42.875 35.84375 38.5 40.796875 
Q 34.125 45.75 27.640625 45.75 
Q 21.046875 45.75 16.703125 40.8125 
Q 12.359375 35.890625 12.359375 25.921875 
z
" id="ArialMT-111"/>
      <path d="M 14.703125 0 
L 6.546875 0 
L 6.546875 71.578125 
L 15.328125 71.578125 
L 15.328125 46.046875 
Q 20.90625 53.03125 29.546875 53.03125 
Q 34.328125 53.03125 38.59375 51.09375 
Q 42.875 49.171875 45.625 45.671875 
Q 48.390625 42.1875 49.953125 37.25 
Q 51.515625 32.328125 51.515625 26.703125 
Q 51.515625 13.375 44.921875 6.09375 
Q 38.328125 -1.171875 29.109375 -1.171875 
Q 19.921875 -1.171875 14.703125 6.5 
z
M 14.59375 26.3125 
Q 14.59375 17 17.140625 12.84375 
Q 21.296875 6.0625 28.375 6.0625 
Q 34.125 6.0625 38.328125 11.0625 
Q 42.53125 16.0625 42.53125 25.984375 
Q 42.53125 36.140625 38.5 40.96875 
Q 34.46875 45.796875 28.765625 45.796875 
Q 23 45.796875 18.796875 40.796875 
Q 14.59375 35.796875 14.59375 26.3125 
z
" id="ArialMT-98"/>
      <path d="M 40.4375 6.390625 
Q 35.546875 2.25 31.03125 0.53125 
Q 26.515625 -1.171875 21.34375 -1.171875 
Q 12.796875 -1.171875 8.203125 3 
Q 3.609375 7.171875 3.609375 13.671875 
Q 3.609375 17.484375 5.34375 20.625 
Q 7.078125 23.78125 9.890625 25.6875 
Q 12.703125 27.59375 16.21875 28.5625 
Q 18.796875 29.25 24.03125 29.890625 
Q 34.671875 31.15625 39.703125 32.90625 
Q 39.75 34.71875 39.75 35.203125 
Q 39.75 40.578125 37.25 42.78125 
Q 33.890625 45.75 27.25 45.75 
Q 21.046875 45.75 18.09375 43.578125 
Q 15.140625 41.40625 13.71875 35.890625 
L 5.125 37.0625 
Q 6.296875 42.578125 8.984375 45.96875 
Q 11.671875 49.359375 16.75 51.1875 
Q 21.828125 53.03125 28.515625 53.03125 
Q 35.15625 53.03125 39.296875 51.46875 
Q 43.453125 49.90625 45.40625 47.53125 
Q 47.359375 45.171875 48.140625 41.546875 
Q 48.578125 39.3125 48.578125 33.453125 
L 48.578125 21.734375 
Q 48.578125 9.46875 49.140625 6.21875 
Q 49.703125 2.984375 51.375 0 
L 42.1875 0 
Q 40.828125 2.734375 40.4375 6.390625 
z
M 39.703125 26.03125 
Q 34.90625 24.078125 25.34375 22.703125 
Q 19.921875 21.921875 17.671875 20.9375 
Q 15.4375 19.96875 14.203125 18.09375 
Q 12.984375 16.21875 12.984375 13.921875 
Q 12.984375 10.40625 15.640625 8.0625 
Q 18.3125 5.71875 23.4375 5.71875 
Q 28.515625 5.71875 32.46875 7.9375 
Q 36.421875 10.15625 38.28125 14.015625 
Q 39.703125 17 39.703125 22.796875 
z
" id="ArialMT-97"/>
      <path d="M 6.640625 61.46875 
L 6.640625 71.578125 
L 15.4375 71.578125 
L 15.4375 61.46875 
z
M 6.640625 0 
L 6.640625 51.859375 
L 15.4375 51.859375 
L 15.4375 0 
z
" id="ArialMT-105"/>
      <path d="M 6.390625 0 
L 6.390625 71.578125 
L 15.1875 71.578125 
L 15.1875 0 
z
" id="ArialMT-108"/>
      <path d="M 6.203125 -19.96875 
L 5.21875 -11.71875 
Q 8.109375 -12.5 10.25 -12.5 
Q 13.1875 -12.5 14.9375 -11.515625 
Q 16.703125 -10.546875 17.828125 -8.796875 
Q 18.65625 -7.46875 20.515625 -2.25 
Q 20.75 -1.515625 21.296875 -0.09375 
L 1.609375 51.859375 
L 11.078125 51.859375 
L 21.875 21.828125 
Q 23.96875 16.109375 25.640625 9.8125 
Q 27.15625 15.875 29.25 21.625 
L 40.328125 51.859375 
L 49.125 51.859375 
L 29.390625 -0.875 
Q 26.21875 -9.421875 24.46875 -12.640625 
Q 22.125 -17 19.09375 -19.015625 
Q 16.0625 -21.046875 11.859375 -21.046875 
Q 9.328125 -21.046875 6.203125 -19.96875 
z
" id="ArialMT-121"/>
     </defs>
     <g style="fill:#262626;" transform="translate(44.784844 222.688125)rotate(-90)scale(0.11 -0.11)">
      <use xlink:href="#ArialMT-80"/>
      <use x="66.699219" xlink:href="#ArialMT-114"/>
      <use x="100" xlink:href="#ArialMT-111"/>
      <use x="155.615234" xlink:href="#ArialMT-98"/>
      <use x="211.230469" xlink:href="#ArialMT-97"/>
      <use x="266.845703" xlink:href="#ArialMT-98"/>
      <use x="322.460938" xlink:href="#ArialMT-105"/>
      <use x="344.677734" xlink:href="#ArialMT-108"/>
      <use x="366.894531" xlink:href="#ArialMT-105"/>
      <use x="389.111328" xlink:href="#ArialMT-116"/>
      <use x="416.894531" xlink:href="#ArialMT-121"/>
     </g>
    </g>
   </g>
   <g id="patch_3">
    <path clip-path="url(#p61cf04f51f)" d="M 92.290909 61.110209 
L 96.390083 61.179106 
L 101.309091 61.316901 
L 102.696503 61.454695 
L 107.321212 62.143668 
L 111.615584 62.212565 
L 112.786777 62.419257 
L 114.836364 63.10823 
L 116.570629 63.246025 
L 119.345455 64.210587 
L 122.351515 64.348381 
L 124.498701 64.89956 
L 127.361616 67.104273 
L 129.183471 67.999937 
L 137.381818 73.305028 
L 143.393939 73.373926 
L 145.580165 73.580618 
L 147.40202 75.440844 
L 150.264935 78.33453 
L 152.412121 78.472325 
L 155.418182 81.159319 
L 158.193007 81.228216 
L 159.927273 83.432929 
L 167.442424 90.52935 
L 173.454545 90.598247 
L 176.031169 93.974214 
L 178.373554 94.180906 
L 182.472727 99.485997 
L 187.482828 99.968278 
L 191.490909 110.785152 
L 194.770248 110.854049 
L 197.50303 119.121723 
L 201.797403 120.98195 
L 205.018182 121.670923 
L 207.523232 121.808717 
L 227.563636 223.570008 
L 250.109091 223.638905 
L 253.32987 223.707803 
L 257.624242 226.188105 
L 263.636364 236.867184 
L 272.654545 276.207534 
L 279.096104 276.276431 
L 287.684848 313.963247 
L 299.709091 315.272295 
L 317.745455 323.057688 
L 347.806061 330.154109 
L 407.927273 332.772205 
L 498.109091 332.91 
L 498.109091 332.91 
L 468.048485 331.742297 
L 407.927273 331.60492 
L 362.836364 325.766406 
L 347.806061 320.683465 
L 335.781818 298.359735 
L 317.745455 296.299083 
L 304.862338 266.419629 
L 299.709091 266.35094 
L 287.684848 254.605224 
L 279.096104 241.348362 
L 272.654545 241.073609 
L 263.636364 216.689227 
L 257.624242 200.616141 
L 253.32987 196.220083 
L 227.563636 195.121069 
L 209.527273 107.680735 
L 207.523232 107.612047 
L 205.018182 107.337293 
L 201.797403 105.963525 
L 197.50303 103.834185 
L 191.490909 98.201736 
L 187.482828 91.745027 
L 182.472727 90.920766 
L 178.373554 85.425694 
L 176.031169 85.357005 
L 173.454545 82.952911 
L 167.442424 82.334716 
L 161.97686 77.732593 
L 159.927273 77.389151 
L 155.418182 75.397187 
L 152.412121 73.061782 
L 150.264935 72.855716 
L 147.40202 71.481948 
L 145.580165 69.764738 
L 144.318881 69.146543 
L 137.381818 69.077854 
L 129.183471 65.712123 
L 127.361616 64.887862 
L 124.498701 63.994913 
L 122.351515 63.788848 
L 119.345455 63.651471 
L 114.836364 63.170652 
L 112.786777 62.346391 
L 111.615584 62.071638 
L 107.321212 61.934261 
L 98.732468 61.384754 
L 95.29697 61.178688 
L 92.290909 61.11 
z
" style="fill:#cccccc;"/>
   </g>
   <g id="line2d_23">
    <path clip-path="url(#p61cf04f51f)" d="M 92.290909 61.11 
L 95.29697 61.178688 
L 98.732468 61.384754 
L 107.321212 61.934261 
L 111.615584 62.071638 
L 112.786777 62.346391 
L 114.836364 63.170652 
L 119.345455 63.651471 
L 122.351515 63.788848 
L 124.498701 63.994913 
L 127.361616 64.887862 
L 129.183471 65.712123 
L 137.381818 69.077854 
L 144.318881 69.146543 
L 145.580165 69.764738 
L 147.40202 71.481948 
L 150.264935 72.855716 
L 152.412121 73.061782 
L 155.418182 75.397187 
L 159.927273 77.389151 
L 161.97686 77.732593 
L 167.442424 82.334716 
L 173.454545 82.952911 
L 176.031169 85.357005 
L 178.373554 85.425694 
L 182.472727 90.920766 
L 187.482828 91.745027 
L 191.490909 98.201736 
L 197.50303 103.834185 
L 201.797403 105.963525 
L 205.018182 107.337293 
L 207.523232 107.612047 
L 209.527273 107.680735 
L 227.563636 195.121069 
L 253.32987 196.220083 
L 257.624242 200.616141 
L 263.636364 216.689227 
L 272.654545 241.073609 
L 279.096104 241.348362 
L 287.684848 254.605224 
L 299.709091 266.35094 
L 304.862338 266.419629 
L 317.745455 296.299083 
L 335.781818 298.359735 
L 347.806061 320.683465 
L 362.836364 325.766406 
L 407.927273 331.60492 
L 468.048485 331.742297 
L 498.109091 332.91 
" style="fill:none;stroke:#c45054;stroke-linecap:round;stroke-opacity:0.6;stroke-width:1.75;"/>
   </g>
   <g id="line2d_24">
    <path clip-path="url(#p61cf04f51f)" d="M 92.290909 61.110209 
L 96.390083 61.179106 
L 101.309091 61.316901 
L 102.696503 61.454695 
L 107.321212 62.143668 
L 111.615584 62.212565 
L 112.786777 62.419257 
L 114.836364 63.10823 
L 116.570629 63.246025 
L 119.345455 64.210587 
L 122.351515 64.348381 
L 124.498701 64.89956 
L 127.361616 67.104273 
L 129.183471 67.999937 
L 137.381818 73.305028 
L 143.393939 73.373926 
L 145.580165 73.580618 
L 147.40202 75.440844 
L 150.264935 78.33453 
L 152.412121 78.472325 
L 155.418182 81.159319 
L 158.193007 81.228216 
L 159.927273 83.432929 
L 167.442424 90.52935 
L 173.454545 90.598247 
L 176.031169 93.974214 
L 178.373554 94.180906 
L 182.472727 99.485997 
L 187.482828 99.968278 
L 191.490909 110.785152 
L 194.770248 110.854049 
L 197.50303 119.121723 
L 201.797403 120.98195 
L 205.018182 121.670923 
L 207.523232 121.808717 
L 227.563636 223.570008 
L 250.109091 223.638905 
L 253.32987 223.707803 
L 257.624242 226.188105 
L 263.636364 236.867184 
L 272.654545 276.207534 
L 279.096104 276.276431 
L 287.684848 313.963247 
L 299.709091 315.272295 
L 317.745455 323.057688 
L 347.806061 330.154109 
L 407.927273 332.772205 
L 498.109091 332.91 
" style="fill:none;stroke:#41734d;stroke-linecap:round;stroke-opacity:0.6;stroke-width:1.75;"/>
   </g>
   <g id="line2d_25">
    <path clip-path="url(#p61cf04f51f)" d="M 92.290909 332.841103 
L 96.390083 332.841103 
L 101.309091 332.772205 
L 102.696503 332.772205 
L 107.321212 332.221027 
L 111.615584 332.841103 
L 112.786777 332.703308 
L 114.836364 332.221027 
L 116.570629 332.772205 
L 119.345455 331.945438 
L 122.351515 332.772205 
L 124.498701 332.358822 
L 127.361616 330.705287 
L 129.183471 332.014335 
L 137.381818 327.604909 
L 143.393939 332.841103 
L 145.580165 332.703308 
L 147.40202 331.049773 
L 150.264935 330.016314 
L 152.412121 332.772205 
L 155.418182 330.223006 
L 158.193007 332.841103 
L 159.927273 330.705287 
L 167.442424 325.81358 
L 173.454545 332.841103 
L 176.031169 329.534033 
L 178.373554 332.703308 
L 182.472727 327.604909 
L 187.482828 332.427719 
L 191.490909 322.093126 
L 194.770248 332.841103 
L 197.50303 324.642326 
L 201.797403 331.049773 
L 205.018182 332.221027 
L 207.523232 332.772205 
L 227.563636 231.148709 
L 250.109091 332.841103 
L 253.32987 332.841103 
L 257.624242 330.429698 
L 263.636364 322.230921 
L 272.654545 293.56965 
L 279.096104 332.841103 
L 287.684848 295.223185 
L 299.709091 331.600952 
L 317.745455 325.124607 
L 347.806061 325.81358 
L 407.927273 330.291903 
L 498.109091 332.772205 
" style="fill:none;stroke:#14b359;stroke-dasharray:11.2,2.8,1.75,2.8;stroke-dashoffset:0;stroke-opacity:0.9;stroke-width:1.75;"/>
    <defs>
     <path d="M 0 3.5 
C 0.928211 3.5 1.81853 3.131218 2.474874 2.474874 
C 3.131218 1.81853 3.5 0.928211 3.5 0 
C 3.5 -0.928211 3.131218 -1.81853 2.474874 -2.474874 
C 1.81853 -3.131218 0.928211 -3.5 0 -3.5 
C -0.928211 -3.5 -1.81853 -3.131218 -2.474874 -2.474874 
C -3.131218 -1.81853 -3.5 -0.928211 -3.5 0 
C -3.5 0.928211 -3.131218 1.81853 -2.474874 2.474874 
C -1.81853 3.131218 -0.928211 3.5 0 3.5 
z
" id="m70024d201e"/>
    </defs>
    <g clip-path="url(#p61cf04f51f)">
     <use style="fill:#14b359;fill-opacity:0.9;" x="92.290909" xlink:href="#m70024d201e" y="332.841103"/>
     <use style="fill:#14b359;fill-opacity:0.9;" x="96.390083" xlink:href="#m70024d201e" y="332.841103"/>
     <use style="fill:#14b359;fill-opacity:0.9;" x="101.309091" xlink:href="#m70024d201e" y="332.772205"/>
     <use style="fill:#14b359;fill-opacity:0.9;" x="102.696503" xlink:href="#m70024d201e" y="332.772205"/>
     <use style="fill:#14b359;fill-opacity:0.9;" x="107.321212" xlink:href="#m70024d201e" y="332.221027"/>
     <use style="fill:#14b359;fill-opacity:0.9;" x="111.615584" xlink:href="#m70024d201e" y="332.841103"/>
     <use style="fill:#14b359;fill-opacity:0.9;" x="112.786777" xlink:href="#m70024d201e" y="332.703308"/>
     <use style="fill:#14b359;fill-opacity:0.9;" x="114.836364" xlink:href="#m70024d201e" y="332.221027"/>
     <use style="fill:#14b359;fill-opacity:0.9;" x="116.570629" xlink:href="#m70024d201e" y="332.772205"/>
     <use style="fill:#14b359;fill-opacity:0.9;" x="119.345455" xlink:href="#m70024d201e" y="331.945438"/>
     <use style="fill:#14b359;fill-opacity:0.9;" x="122.351515" xlink:href="#m70024d201e" y="332.772205"/>
     <use style="fill:#14b359;fill-opacity:0.9;" x="124.498701" xlink:href="#m70024d201e" y="332.358822"/>
     <use style="fill:#14b359;fill-opacity:0.9;" x="127.361616" xlink:href="#m70024d201e" y="330.705287"/>
     <use style="fill:#14b359;fill-opacity:0.9;" x="129.183471" xlink:href="#m70024d201e" y="332.014335"/>
     <use style="fill:#14b359;fill-opacity:0.9;" x="137.381818" xlink:href="#m70024d201e" y="327.604909"/>
     <use style="fill:#14b359;fill-opacity:0.9;" x="143.393939" xlink:href="#m70024d201e" y="332.841103"/>
     <use style="fill:#14b359;fill-opacity:0.9;" x="145.580165" xlink:href="#m70024d201e" y="332.703308"/>
     <use style="fill:#14b359;fill-opacity:0.9;" x="147.40202" xlink:href="#m70024d201e" y="331.049773"/>
     <use style="fill:#14b359;fill-opacity:0.9;" x="150.264935" xlink:href="#m70024d201e" y="330.016314"/>
     <use style="fill:#14b359;fill-opacity:0.9;" x="152.412121" xlink:href="#m70024d201e" y="332.772205"/>
     <use style="fill:#14b359;fill-opacity:0.9;" x="155.418182" xlink:href="#m70024d201e" y="330.223006"/>
     <use style="fill:#14b359;fill-opacity:0.9;" x="158.193007" xlink:href="#m70024d201e" y="332.841103"/>
     <use style="fill:#14b359;fill-opacity:0.9;" x="159.927273" xlink:href="#m70024d201e" y="330.705287"/>
     <use style="fill:#14b359;fill-opacity:0.9;" x="167.442424" xlink:href="#m70024d201e" y="325.81358"/>
     <use style="fill:#14b359;fill-opacity:0.9;" x="173.454545" xlink:href="#m70024d201e" y="332.841103"/>
     <use style="fill:#14b359;fill-opacity:0.9;" x="176.031169" xlink:href="#m70024d201e" y="329.534033"/>
     <use style="fill:#14b359;fill-opacity:0.9;" x="178.373554" xlink:href="#m70024d201e" y="332.703308"/>
     <use style="fill:#14b359;fill-opacity:0.9;" x="182.472727" xlink:href="#m70024d201e" y="327.604909"/>
     <use style="fill:#14b359;fill-opacity:0.9;" x="187.482828" xlink:href="#m70024d201e" y="332.427719"/>
     <use style="fill:#14b359;fill-opacity:0.9;" x="191.490909" xlink:href="#m70024d201e" y="322.093126"/>
     <use style="fill:#14b359;fill-opacity:0.9;" x="194.770248" xlink:href="#m70024d201e" y="332.841103"/>
     <use style="fill:#14b359;fill-opacity:0.9;" x="197.50303" xlink:href="#m70024d201e" y="324.642326"/>
     <use style="fill:#14b359;fill-opacity:0.9;" x="201.797403" xlink:href="#m70024d201e" y="331.049773"/>
     <use style="fill:#14b359;fill-opacity:0.9;" x="205.018182" xlink:href="#m70024d201e" y="332.221027"/>
     <use style="fill:#14b359;fill-opacity:0.9;" x="207.523232" xlink:href="#m70024d201e" y="332.772205"/>
     <use style="fill:#14b359;fill-opacity:0.9;" x="227.563636" xlink:href="#m70024d201e" y="231.148709"/>
     <use style="fill:#14b359;fill-opacity:0.9;" x="250.109091" xlink:href="#m70024d201e" y="332.841103"/>
     <use style="fill:#14b359;fill-opacity:0.9;" x="253.32987" xlink:href="#m70024d201e" y="332.841103"/>
     <use style="fill:#14b359;fill-opacity:0.9;" x="257.624242" xlink:href="#m70024d201e" y="330.429698"/>
     <use style="fill:#14b359;fill-opacity:0.9;" x="263.636364" xlink:href="#m70024d201e" y="322.230921"/>
     <use style="fill:#14b359;fill-opacity:0.9;" x="272.654545" xlink:href="#m70024d201e" y="293.56965"/>
     <use style="fill:#14b359;fill-opacity:0.9;" x="279.096104" xlink:href="#m70024d201e" y="332.841103"/>
     <use style="fill:#14b359;fill-opacity:0.9;" x="287.684848" xlink:href="#m70024d201e" y="295.223185"/>
     <use style="fill:#14b359;fill-opacity:0.9;" x="299.709091" xlink:href="#m70024d201e" y="331.600952"/>
     <use style="fill:#14b359;fill-opacity:0.9;" x="317.745455" xlink:href="#m70024d201e" y="325.124607"/>
     <use style="fill:#14b359;fill-opacity:0.9;" x="347.806061" xlink:href="#m70024d201e" y="325.81358"/>
     <use style="fill:#14b359;fill-opacity:0.9;" x="407.927273" xlink:href="#m70024d201e" y="330.291903"/>
     <use style="fill:#14b359;fill-opacity:0.9;" x="498.109091" xlink:href="#m70024d201e" y="332.772205"/>
    </g>
   </g>
   <g id="line2d_26">
    <path clip-path="url(#p61cf04f51f)" d="M 92.290909 332.841312 
L 95.29697 332.841312 
L 98.732468 332.703935 
L 107.321212 332.360493 
L 111.615584 332.772623 
L 112.786777 332.635246 
L 114.836364 332.085739 
L 119.345455 332.429181 
L 122.351515 332.772623 
L 124.498701 332.703935 
L 127.361616 332.017051 
L 129.183471 332.085739 
L 137.381818 329.544268 
L 144.318881 332.841312 
L 145.580165 332.291804 
L 147.40202 331.19279 
L 150.264935 331.536232 
L 152.412121 332.703935 
L 155.418182 330.574594 
L 159.927273 330.918036 
L 161.97686 332.566558 
L 167.442424 328.307877 
L 173.454545 332.291804 
L 176.031169 330.505906 
L 178.373554 332.841312 
L 182.472727 327.414928 
L 187.482828 332.085739 
L 191.490909 326.45329 
L 197.50303 327.277551 
L 201.797403 330.78066 
L 205.018182 331.536232 
L 207.523232 332.635246 
L 209.527273 332.841312 
L 227.563636 245.469666 
L 253.32987 331.810986 
L 257.624242 328.513942 
L 263.636364 316.836914 
L 272.654545 308.525618 
L 279.096104 332.635246 
L 287.684848 319.653139 
L 299.709091 321.164284 
L 304.862338 332.841312 
L 317.745455 303.030546 
L 335.781818 330.849348 
L 347.806061 310.58627 
L 362.836364 327.827058 
L 407.927273 327.071486 
L 468.048485 332.772623 
L 498.109091 331.742297 
" style="fill:none;stroke:#d11b1b;stroke-dasharray:11.2,2.8,1.75,2.8;stroke-dashoffset:0;stroke-opacity:0.9;stroke-width:1.75;"/>
    <defs>
     <path d="M 0 3.5 
C 0.928211 3.5 1.81853 3.131218 2.474874 2.474874 
C 3.131218 1.81853 3.5 0.928211 3.5 0 
C 3.5 -0.928211 3.131218 -1.81853 2.474874 -2.474874 
C 1.81853 -3.131218 0.928211 -3.5 0 -3.5 
C -0.928211 -3.5 -1.81853 -3.131218 -2.474874 -2.474874 
C -3.131218 -1.81853 -3.5 -0.928211 -3.5 0 
C -3.5 0.928211 -3.131218 1.81853 -2.474874 2.474874 
C -1.81853 3.131218 -0.928211 3.5 0 3.5 
z
" id="mcf831a9c0a"/>
    </defs>
    <g clip-path="url(#p61cf04f51f)">
     <use style="fill:#d11b1b;fill-opacity:0.9;" x="92.290909" xlink:href="#mcf831a9c0a" y="332.841312"/>
     <use style="fill:#d11b1b;fill-opacity:0.9;" x="95.29697" xlink:href="#mcf831a9c0a" y="332.841312"/>
     <use style="fill:#d11b1b;fill-opacity:0.9;" x="98.732468" xlink:href="#mcf831a9c0a" y="332.703935"/>
     <use style="fill:#d11b1b;fill-opacity:0.9;" x="107.321212" xlink:href="#mcf831a9c0a" y="332.360493"/>
     <use style="fill:#d11b1b;fill-opacity:0.9;" x="111.615584" xlink:href="#mcf831a9c0a" y="332.772623"/>
     <use style="fill:#d11b1b;fill-opacity:0.9;" x="112.786777" xlink:href="#mcf831a9c0a" y="332.635246"/>
     <use style="fill:#d11b1b;fill-opacity:0.9;" x="114.836364" xlink:href="#mcf831a9c0a" y="332.085739"/>
     <use style="fill:#d11b1b;fill-opacity:0.9;" x="119.345455" xlink:href="#mcf831a9c0a" y="332.429181"/>
     <use style="fill:#d11b1b;fill-opacity:0.9;" x="122.351515" xlink:href="#mcf831a9c0a" y="332.772623"/>
     <use style="fill:#d11b1b;fill-opacity:0.9;" x="124.498701" xlink:href="#mcf831a9c0a" y="332.703935"/>
     <use style="fill:#d11b1b;fill-opacity:0.9;" x="127.361616" xlink:href="#mcf831a9c0a" y="332.017051"/>
     <use style="fill:#d11b1b;fill-opacity:0.9;" x="129.183471" xlink:href="#mcf831a9c0a" y="332.085739"/>
     <use style="fill:#d11b1b;fill-opacity:0.9;" x="137.381818" xlink:href="#mcf831a9c0a" y="329.544268"/>
     <use style="fill:#d11b1b;fill-opacity:0.9;" x="144.318881" xlink:href="#mcf831a9c0a" y="332.841312"/>
     <use style="fill:#d11b1b;fill-opacity:0.9;" x="145.580165" xlink:href="#mcf831a9c0a" y="332.291804"/>
     <use style="fill:#d11b1b;fill-opacity:0.9;" x="147.40202" xlink:href="#mcf831a9c0a" y="331.19279"/>
     <use style="fill:#d11b1b;fill-opacity:0.9;" x="150.264935" xlink:href="#mcf831a9c0a" y="331.536232"/>
     <use style="fill:#d11b1b;fill-opacity:0.9;" x="152.412121" xlink:href="#mcf831a9c0a" y="332.703935"/>
     <use style="fill:#d11b1b;fill-opacity:0.9;" x="155.418182" xlink:href="#mcf831a9c0a" y="330.574594"/>
     <use style="fill:#d11b1b;fill-opacity:0.9;" x="159.927273" xlink:href="#mcf831a9c0a" y="330.918036"/>
     <use style="fill:#d11b1b;fill-opacity:0.9;" x="161.97686" xlink:href="#mcf831a9c0a" y="332.566558"/>
     <use style="fill:#d11b1b;fill-opacity:0.9;" x="167.442424" xlink:href="#mcf831a9c0a" y="328.307877"/>
     <use style="fill:#d11b1b;fill-opacity:0.9;" x="173.454545" xlink:href="#mcf831a9c0a" y="332.291804"/>
     <use style="fill:#d11b1b;fill-opacity:0.9;" x="176.031169" xlink:href="#mcf831a9c0a" y="330.505906"/>
     <use style="fill:#d11b1b;fill-opacity:0.9;" x="178.373554" xlink:href="#mcf831a9c0a" y="332.841312"/>
     <use style="fill:#d11b1b;fill-opacity:0.9;" x="182.472727" xlink:href="#mcf831a9c0a" y="327.414928"/>
     <use style="fill:#d11b1b;fill-opacity:0.9;" x="187.482828" xlink:href="#mcf831a9c0a" y="332.085739"/>
     <use style="fill:#d11b1b;fill-opacity:0.9;" x="191.490909" xlink:href="#mcf831a9c0a" y="326.45329"/>
     <use style="fill:#d11b1b;fill-opacity:0.9;" x="197.50303" xlink:href="#mcf831a9c0a" y="327.277551"/>
     <use style="fill:#d11b1b;fill-opacity:0.9;" x="201.797403" xlink:href="#mcf831a9c0a" y="330.78066"/>
     <use style="fill:#d11b1b;fill-opacity:0.9;" x="205.018182" xlink:href="#mcf831a9c0a" y="331.536232"/>
     <use style="fill:#d11b1b;fill-opacity:0.9;" x="207.523232" xlink:href="#mcf831a9c0a" y="332.635246"/>
     <use style="fill:#d11b1b;fill-opacity:0.9;" x="209.527273" xlink:href="#mcf831a9c0a" y="332.841312"/>
     <use style="fill:#d11b1b;fill-opacity:0.9;" x="227.563636" xlink:href="#mcf831a9c0a" y="245.469666"/>
     <use style="fill:#d11b1b;fill-opacity:0.9;" x="253.32987" xlink:href="#mcf831a9c0a" y="331.810986"/>
     <use style="fill:#d11b1b;fill-opacity:0.9;" x="257.624242" xlink:href="#mcf831a9c0a" y="328.513942"/>
     <use style="fill:#d11b1b;fill-opacity:0.9;" x="263.636364" xlink:href="#mcf831a9c0a" y="316.836914"/>
     <use style="fill:#d11b1b;fill-opacity:0.9;" x="272.654545" xlink:href="#mcf831a9c0a" y="308.525618"/>
     <use style="fill:#d11b1b;fill-opacity:0.9;" x="279.096104" xlink:href="#mcf831a9c0a" y="332.635246"/>
     <use style="fill:#d11b1b;fill-opacity:0.9;" x="287.684848" xlink:href="#mcf831a9c0a" y="319.653139"/>
     <use style="fill:#d11b1b;fill-opacity:0.9;" x="299.709091" xlink:href="#mcf831a9c0a" y="321.164284"/>
     <use style="fill:#d11b1b;fill-opacity:0.9;" x="304.862338" xlink:href="#mcf831a9c0a" y="332.841312"/>
     <use style="fill:#d11b1b;fill-opacity:0.9;" x="317.745455" xlink:href="#mcf831a9c0a" y="303.030546"/>
     <use style="fill:#d11b1b;fill-opacity:0.9;" x="335.781818" xlink:href="#mcf831a9c0a" y="330.849348"/>
     <use style="fill:#d11b1b;fill-opacity:0.9;" x="347.806061" xlink:href="#mcf831a9c0a" y="310.58627"/>
     <use style="fill:#d11b1b;fill-opacity:0.9;" x="362.836364" xlink:href="#mcf831a9c0a" y="327.827058"/>
     <use style="fill:#d11b1b;fill-opacity:0.9;" x="407.927273" xlink:href="#mcf831a9c0a" y="327.071486"/>
     <use style="fill:#d11b1b;fill-opacity:0.9;" x="468.048485" xlink:href="#mcf831a9c0a" y="332.772623"/>
     <use style="fill:#d11b1b;fill-opacity:0.9;" x="498.109091" xlink:href="#mcf831a9c0a" y="331.742297"/>
    </g>
   </g>
   <g id="patch_4">
    <path d="M 72 346.5 
L 72 47.52 
" style="fill:none;"/>
   </g>
   <g id="patch_5">
    <path d="M 518.4 346.5 
L 518.4 47.52 
" style="fill:none;"/>
   </g>
   <g id="patch_6">
    <path d="M 72 346.5 
L 518.4 346.5 
" style="fill:none;"/>
   </g>
   <g id="patch_7">
    <path d="M 72 47.52 
L 518.4 47.52 
" style="fill:none;"/>
   </g>
   <g id="legend_1">
    <g id="line2d_27">
     <path d="M 362.4875 60.177812 
L 382.4875 60.177812 
" style="fill:none;stroke:#c45054;stroke-linecap:round;stroke-opacity:0.6;stroke-width:1.75;"/>
    </g>
    <g id="line2d_28"/>
    <g id="text_14">
     <!-- CCDF, random selection -->
     <defs>
      <path d="M 58.796875 25.09375 
L 68.265625 22.703125 
Q 65.28125 11.03125 57.546875 4.90625 
Q 49.8125 -1.21875 38.625 -1.21875 
Q 27.046875 -1.21875 19.796875 3.484375 
Q 12.546875 8.203125 8.765625 17.140625 
Q 4.984375 26.078125 4.984375 36.328125 
Q 4.984375 47.515625 9.25 55.828125 
Q 13.53125 64.15625 21.40625 68.46875 
Q 29.296875 72.796875 38.765625 72.796875 
Q 49.515625 72.796875 56.828125 67.328125 
Q 64.15625 61.859375 67.046875 51.953125 
L 57.71875 49.75 
Q 55.21875 57.5625 50.484375 61.125 
Q 45.75 64.703125 38.578125 64.703125 
Q 30.328125 64.703125 24.78125 60.734375 
Q 19.234375 56.78125 16.984375 50.109375 
Q 14.75 43.453125 14.75 36.375 
Q 14.75 27.25 17.40625 20.4375 
Q 20.0625 13.625 25.671875 10.25 
Q 31.296875 6.890625 37.84375 6.890625 
Q 45.796875 6.890625 51.3125 11.46875 
Q 56.84375 16.0625 58.796875 25.09375 
z
" id="ArialMT-67"/>
      <path d="M 7.71875 0 
L 7.71875 71.578125 
L 32.375 71.578125 
Q 40.71875 71.578125 45.125 70.5625 
Q 51.265625 69.140625 55.609375 65.4375 
Q 61.28125 60.640625 64.078125 53.1875 
Q 66.890625 45.75 66.890625 36.1875 
Q 66.890625 28.03125 64.984375 21.734375 
Q 63.09375 15.4375 60.109375 11.296875 
Q 57.125 7.171875 53.578125 4.796875 
Q 50.046875 2.4375 45.046875 1.21875 
Q 40.046875 0 33.546875 0 
z
M 17.1875 8.453125 
L 32.46875 8.453125 
Q 39.546875 8.453125 43.578125 9.765625 
Q 47.609375 11.078125 50 13.484375 
Q 53.375 16.84375 55.25 22.53125 
Q 57.125 28.21875 57.125 36.328125 
Q 57.125 47.5625 53.4375 53.59375 
Q 49.75 59.625 44.484375 61.671875 
Q 40.671875 63.140625 32.234375 63.140625 
L 17.1875 63.140625 
z
" id="ArialMT-68"/>
      <path d="M 8.203125 0 
L 8.203125 71.578125 
L 56.5 71.578125 
L 56.5 63.140625 
L 17.671875 63.140625 
L 17.671875 40.96875 
L 51.265625 40.96875 
L 51.265625 32.515625 
L 17.671875 32.515625 
L 17.671875 0 
z
" id="ArialMT-70"/>
      <path d="M 8.890625 0 
L 8.890625 10.015625 
L 18.890625 10.015625 
L 18.890625 0 
Q 18.890625 -5.515625 16.9375 -8.90625 
Q 14.984375 -12.3125 10.75 -14.15625 
L 8.296875 -10.40625 
Q 11.078125 -9.1875 12.390625 -6.8125 
Q 13.71875 -4.4375 13.875 0 
z
" id="ArialMT-44"/>
      <path id="ArialMT-32"/>
      <path d="M 6.59375 0 
L 6.59375 51.859375 
L 14.5 51.859375 
L 14.5 44.484375 
Q 20.21875 53.03125 31 53.03125 
Q 35.6875 53.03125 39.625 51.34375 
Q 43.5625 49.65625 45.515625 46.921875 
Q 47.46875 44.1875 48.25 40.4375 
Q 48.734375 37.984375 48.734375 31.890625 
L 48.734375 0 
L 39.9375 0 
L 39.9375 31.546875 
Q 39.9375 36.921875 38.90625 39.578125 
Q 37.890625 42.234375 35.28125 43.8125 
Q 32.671875 45.40625 29.15625 45.40625 
Q 23.53125 45.40625 19.453125 41.84375 
Q 15.375 38.28125 15.375 28.328125 
L 15.375 0 
z
" id="ArialMT-110"/>
      <path d="M 40.234375 0 
L 40.234375 6.546875 
Q 35.296875 -1.171875 25.734375 -1.171875 
Q 19.53125 -1.171875 14.328125 2.25 
Q 9.125 5.671875 6.265625 11.796875 
Q 3.421875 17.921875 3.421875 25.875 
Q 3.421875 33.640625 6 39.96875 
Q 8.59375 46.296875 13.765625 49.65625 
Q 18.953125 53.03125 25.34375 53.03125 
Q 30.03125 53.03125 33.6875 51.046875 
Q 37.359375 49.078125 39.65625 45.90625 
L 39.65625 71.578125 
L 48.390625 71.578125 
L 48.390625 0 
z
M 12.453125 25.875 
Q 12.453125 15.921875 16.640625 10.984375 
Q 20.84375 6.0625 26.5625 6.0625 
Q 32.328125 6.0625 36.34375 10.765625 
Q 40.375 15.484375 40.375 25.140625 
Q 40.375 35.796875 36.265625 40.765625 
Q 32.171875 45.75 26.171875 45.75 
Q 20.3125 45.75 16.375 40.96875 
Q 12.453125 36.1875 12.453125 25.875 
z
" id="ArialMT-100"/>
      <path d="M 6.59375 0 
L 6.59375 51.859375 
L 14.453125 51.859375 
L 14.453125 44.578125 
Q 16.890625 48.390625 20.9375 50.703125 
Q 25 53.03125 30.171875 53.03125 
Q 35.9375 53.03125 39.625 50.640625 
Q 43.3125 48.25 44.828125 43.953125 
Q 50.984375 53.03125 60.84375 53.03125 
Q 68.5625 53.03125 72.703125 48.75 
Q 76.859375 44.484375 76.859375 35.59375 
L 76.859375 0 
L 68.109375 0 
L 68.109375 32.671875 
Q 68.109375 37.9375 67.25 40.25 
Q 66.40625 42.578125 64.15625 43.984375 
Q 61.921875 45.40625 58.890625 45.40625 
Q 53.421875 45.40625 49.796875 41.765625 
Q 46.1875 38.140625 46.1875 30.125 
L 46.1875 0 
L 37.40625 0 
L 37.40625 33.6875 
Q 37.40625 39.546875 35.25 42.46875 
Q 33.109375 45.40625 28.21875 45.40625 
Q 24.515625 45.40625 21.359375 43.453125 
Q 18.21875 41.5 16.796875 37.734375 
Q 15.375 33.984375 15.375 26.90625 
L 15.375 0 
z
" id="ArialMT-109"/>
      <path d="M 3.078125 15.484375 
L 11.765625 16.84375 
Q 12.5 11.625 15.84375 8.84375 
Q 19.1875 6.0625 25.203125 6.0625 
Q 31.25 6.0625 34.171875 8.515625 
Q 37.109375 10.984375 37.109375 14.3125 
Q 37.109375 17.28125 34.515625 19 
Q 32.71875 20.171875 25.53125 21.96875 
Q 15.875 24.421875 12.140625 26.203125 
Q 8.40625 27.984375 6.46875 31.125 
Q 4.546875 34.28125 4.546875 38.09375 
Q 4.546875 41.546875 6.125 44.5 
Q 7.71875 47.46875 10.453125 49.421875 
Q 12.5 50.921875 16.03125 51.96875 
Q 19.578125 53.03125 23.640625 53.03125 
Q 29.734375 53.03125 34.34375 51.265625 
Q 38.96875 49.515625 41.15625 46.5 
Q 43.359375 43.5 44.1875 38.484375 
L 35.59375 37.3125 
Q 35.015625 41.3125 32.203125 43.546875 
Q 29.390625 45.796875 24.265625 45.796875 
Q 18.21875 45.796875 15.625 43.796875 
Q 13.03125 41.796875 13.03125 39.109375 
Q 13.03125 37.40625 14.109375 36.03125 
Q 15.1875 34.625 17.484375 33.6875 
Q 18.796875 33.203125 25.25 31.453125 
Q 34.578125 28.953125 38.25 27.359375 
Q 41.9375 25.78125 44.03125 22.75 
Q 46.140625 19.734375 46.140625 15.234375 
Q 46.140625 10.84375 43.578125 6.953125 
Q 41.015625 3.078125 36.171875 0.953125 
Q 31.34375 -1.171875 25.25 -1.171875 
Q 15.140625 -1.171875 9.84375 3.03125 
Q 4.546875 7.234375 3.078125 15.484375 
z
" id="ArialMT-115"/>
     </defs>
     <g style="fill:#262626;" transform="translate(390.4875 63.677812)scale(0.1 -0.1)">
      <use xlink:href="#ArialMT-67"/>
      <use x="72.216797" xlink:href="#ArialMT-67"/>
      <use x="144.433594" xlink:href="#ArialMT-68"/>
      <use x="216.650391" xlink:href="#ArialMT-70"/>
      <use x="277.5625" xlink:href="#ArialMT-44"/>
      <use x="305.345703" xlink:href="#ArialMT-32"/>
      <use x="333.128906" xlink:href="#ArialMT-114"/>
      <use x="366.429688" xlink:href="#ArialMT-97"/>
      <use x="422.044922" xlink:href="#ArialMT-110"/>
      <use x="477.660156" xlink:href="#ArialMT-100"/>
      <use x="533.275391" xlink:href="#ArialMT-111"/>
      <use x="588.890625" xlink:href="#ArialMT-109"/>
      <use x="672.191406" xlink:href="#ArialMT-32"/>
      <use x="699.974609" xlink:href="#ArialMT-115"/>
      <use x="749.974609" xlink:href="#ArialMT-101"/>
      <use x="805.589844" xlink:href="#ArialMT-108"/>
      <use x="827.806641" xlink:href="#ArialMT-101"/>
      <use x="883.421875" xlink:href="#ArialMT-99"/>
      <use x="933.421875" xlink:href="#ArialMT-116"/>
      <use x="961.205078" xlink:href="#ArialMT-105"/>
      <use x="983.421875" xlink:href="#ArialMT-111"/>
      <use x="1039.037109" xlink:href="#ArialMT-110"/>
     </g>
    </g>
    <g id="line2d_29">
     <path d="M 362.4875 74.445 
L 382.4875 74.445 
" style="fill:none;stroke:#41734d;stroke-linecap:round;stroke-opacity:0.6;stroke-width:1.75;"/>
    </g>
    <g id="line2d_30"/>
    <g id="text_15">
     <!-- CCDF, popularity selection -->
     <defs>
      <path d="M 6.59375 -19.875 
L 6.59375 51.859375 
L 14.59375 51.859375 
L 14.59375 45.125 
Q 17.4375 49.078125 21 51.046875 
Q 24.5625 53.03125 29.640625 53.03125 
Q 36.28125 53.03125 41.359375 49.609375 
Q 46.4375 46.1875 49.015625 39.953125 
Q 51.609375 33.734375 51.609375 26.3125 
Q 51.609375 18.359375 48.75 11.984375 
Q 45.90625 5.609375 40.453125 2.21875 
Q 35.015625 -1.171875 29 -1.171875 
Q 24.609375 -1.171875 21.109375 0.6875 
Q 17.625 2.546875 15.375 5.375 
L 15.375 -19.875 
z
M 14.546875 25.640625 
Q 14.546875 15.625 18.59375 10.84375 
Q 22.65625 6.0625 28.421875 6.0625 
Q 34.28125 6.0625 38.453125 11.015625 
Q 42.625 15.96875 42.625 26.375 
Q 42.625 36.28125 38.546875 41.203125 
Q 34.46875 46.140625 28.8125 46.140625 
Q 23.1875 46.140625 18.859375 40.890625 
Q 14.546875 35.640625 14.546875 25.640625 
z
" id="ArialMT-112"/>
      <path d="M 40.578125 0 
L 40.578125 7.625 
Q 34.515625 -1.171875 24.125 -1.171875 
Q 19.53125 -1.171875 15.546875 0.578125 
Q 11.578125 2.34375 9.640625 5 
Q 7.71875 7.671875 6.9375 11.53125 
Q 6.390625 14.109375 6.390625 19.734375 
L 6.390625 51.859375 
L 15.1875 51.859375 
L 15.1875 23.09375 
Q 15.1875 16.21875 15.71875 13.8125 
Q 16.546875 10.359375 19.234375 8.375 
Q 21.921875 6.390625 25.875 6.390625 
Q 29.828125 6.390625 33.296875 8.421875 
Q 36.765625 10.453125 38.203125 13.9375 
Q 39.65625 17.4375 39.65625 24.078125 
L 39.65625 51.859375 
L 48.4375 51.859375 
L 48.4375 0 
z
" id="ArialMT-117"/>
     </defs>
     <g style="fill:#262626;" transform="translate(390.4875 77.945)scale(0.1 -0.1)">
      <use xlink:href="#ArialMT-67"/>
      <use x="72.216797" xlink:href="#ArialMT-67"/>
      <use x="144.433594" xlink:href="#ArialMT-68"/>
      <use x="216.650391" xlink:href="#ArialMT-70"/>
      <use x="277.5625" xlink:href="#ArialMT-44"/>
      <use x="305.345703" xlink:href="#ArialMT-32"/>
      <use x="333.128906" xlink:href="#ArialMT-112"/>
      <use x="388.744141" xlink:href="#ArialMT-111"/>
      <use x="444.359375" xlink:href="#ArialMT-112"/>
      <use x="499.974609" xlink:href="#ArialMT-117"/>
      <use x="555.589844" xlink:href="#ArialMT-108"/>
      <use x="577.806641" xlink:href="#ArialMT-97"/>
      <use x="633.421875" xlink:href="#ArialMT-114"/>
      <use x="666.722656" xlink:href="#ArialMT-105"/>
      <use x="688.939453" xlink:href="#ArialMT-116"/>
      <use x="716.722656" xlink:href="#ArialMT-121"/>
      <use x="766.722656" xlink:href="#ArialMT-32"/>
      <use x="794.505859" xlink:href="#ArialMT-115"/>
      <use x="844.505859" xlink:href="#ArialMT-101"/>
      <use x="900.121094" xlink:href="#ArialMT-108"/>
      <use x="922.337891" xlink:href="#ArialMT-101"/>
      <use x="977.953125" xlink:href="#ArialMT-99"/>
      <use x="1027.953125" xlink:href="#ArialMT-116"/>
      <use x="1055.736328" xlink:href="#ArialMT-105"/>
      <use x="1077.953125" xlink:href="#ArialMT-111"/>
      <use x="1133.568359" xlink:href="#ArialMT-110"/>
     </g>
    </g>
    <g id="line2d_31">
     <path d="M 362.4875 88.7075 
L 382.4875 88.7075 
" style="fill:none;stroke:#14b359;stroke-dasharray:11.2,2.8,1.75,2.8;stroke-dashoffset:0;stroke-opacity:0.9;stroke-width:1.75;"/>
    </g>
    <g id="line2d_32">
     <g>
      <use style="fill:#14b359;fill-opacity:0.9;" x="372.4875" xlink:href="#m70024d201e" y="88.7075"/>
     </g>
    </g>
    <g id="text_16">
     <!-- PDF, popularity selection -->
     <g style="fill:#262626;" transform="translate(390.4875 92.2075)scale(0.1 -0.1)">
      <use xlink:href="#ArialMT-80"/>
      <use x="66.699219" xlink:href="#ArialMT-68"/>
      <use x="138.916016" xlink:href="#ArialMT-70"/>
      <use x="199.828125" xlink:href="#ArialMT-44"/>
      <use x="227.611328" xlink:href="#ArialMT-32"/>
      <use x="255.394531" xlink:href="#ArialMT-112"/>
      <use x="311.009766" xlink:href="#ArialMT-111"/>
      <use x="366.625" xlink:href="#ArialMT-112"/>
      <use x="422.240234" xlink:href="#ArialMT-117"/>
      <use x="477.855469" xlink:href="#ArialMT-108"/>
      <use x="500.072266" xlink:href="#ArialMT-97"/>
      <use x="555.6875" xlink:href="#ArialMT-114"/>
      <use x="588.988281" xlink:href="#ArialMT-105"/>
      <use x="611.205078" xlink:href="#ArialMT-116"/>
      <use x="638.988281" xlink:href="#ArialMT-121"/>
      <use x="688.988281" xlink:href="#ArialMT-32"/>
      <use x="716.771484" xlink:href="#ArialMT-115"/>
      <use x="766.771484" xlink:href="#ArialMT-101"/>
      <use x="822.386719" xlink:href="#ArialMT-108"/>
      <use x="844.603516" xlink:href="#ArialMT-101"/>
      <use x="900.21875" xlink:href="#ArialMT-99"/>
      <use x="950.21875" xlink:href="#ArialMT-116"/>
      <use x="978.001953" xlink:href="#ArialMT-105"/>
      <use x="1000.21875" xlink:href="#ArialMT-111"/>
      <use x="1055.833984" xlink:href="#ArialMT-110"/>
     </g>
    </g>
    <g id="line2d_33">
     <path d="M 362.4875 102.97 
L 382.4875 102.97 
" style="fill:none;stroke:#d11b1b;stroke-dasharray:11.2,2.8,1.75,2.8;stroke-dashoffset:0;stroke-opacity:0.9;stroke-width:1.75;"/>
    </g>
    <g id="line2d_34">
     <g>
      <use style="fill:#d11b1b;fill-opacity:0.9;" x="372.4875" xlink:href="#mcf831a9c0a" y="102.97"/>
     </g>
    </g>
    <g id="text_17">
     <!-- PDF, random selection -->
     <g style="fill:#262626;" transform="translate(390.4875 106.47)scale(0.1 -0.1)">
      <use xlink:href="#ArialMT-80"/>
      <use x="66.699219" xlink:href="#ArialMT-68"/>
      <use x="138.916016" xlink:href="#ArialMT-70"/>
      <use x="199.828125" xlink:href="#ArialMT-44"/>
      <use x="227.611328" xlink:href="#ArialMT-32"/>
      <use x="255.394531" xlink:href="#ArialMT-114"/>
      <use x="288.695312" xlink:href="#ArialMT-97"/>
      <use x="344.310547" xlink:href="#ArialMT-110"/>
      <use x="399.925781" xlink:href="#ArialMT-100"/>
      <use x="455.541016" xlink:href="#ArialMT-111"/>
      <use x="511.15625" xlink:href="#ArialMT-109"/>
      <use x="594.457031" xlink:href="#ArialMT-32"/>
      <use x="622.240234" xlink:href="#ArialMT-115"/>
      <use x="672.240234" xlink:href="#ArialMT-101"/>
      <use x="727.855469" xlink:href="#ArialMT-108"/>
      <use x="750.072266" xlink:href="#ArialMT-101"/>
      <use x="805.6875" xlink:href="#ArialMT-99"/>
      <use x="855.6875" xlink:href="#ArialMT-116"/>
      <use x="883.470703" xlink:href="#ArialMT-105"/>
      <use x="905.6875" xlink:href="#ArialMT-111"/>
      <use x="961.302734" xlink:href="#ArialMT-110"/>
     </g>
    </g>
   </g>
  </g>
 </g>
 <defs>
  <clipPath id="p61cf04f51f">
   <rect height="298.98" width="446.4" x="72" y="47.52"/>
  </clipPath>
 </defs>
</svg>
