<?xml version="1.0" encoding="UTF-8" standalone="no"?>
<!-- Created with matplotlib (https://matplotlib.org/) -->

<svg
   xmlns:dc="http://purl.org/dc/elements/1.1/"
   xmlns:cc="http://creativecommons.org/ns#"
   xmlns:rdf="http://www.w3.org/1999/02/22-rdf-syntax-ns#"
   xmlns:svg="http://www.w3.org/2000/svg"
   xmlns="http://www.w3.org/2000/svg"
   xmlns:xlink="http://www.w3.org/1999/xlink"
   xmlns:sodipodi="http://sodipodi.sourceforge.net/DTD/sodipodi-0.dtd"
   xmlns:inkscape="http://www.inkscape.org/namespaces/inkscape"
   height="396pt"
   version="1.1"
   viewBox="0 0 576 396"
   width="576pt"
   id="svg403"
   sodipodi:docname="landmarks_levels_del_balanced.svg"
   inkscape:version="0.92.4 (5da689c313, 2019-01-14)">
  <metadata
     id="metadata407">
    <rdf:RDF>
      <cc:Work
         rdf:about="">
        <dc:format>image/svg+xml</dc:format>
        <dc:type
           rdf:resource="http://purl.org/dc/dcmitype/StillImage" />
        <dc:title></dc:title>
      </cc:Work>
    </rdf:RDF>
  </metadata>
  <sodipodi:namedview
     pagecolor="#ffffff"
     bordercolor="#666666"
     borderopacity="1"
     objecttolerance="10"
     gridtolerance="10"
     guidetolerance="10"
     inkscape:pageopacity="0"
     inkscape:pageshadow="2"
     inkscape:window-width="727"
     inkscape:window-height="480"
     id="namedview405"
     showgrid="false"
     inkscape:zoom="0.4469697"
     inkscape:cx="384"
     inkscape:cy="264"
     inkscape:window-x="2630"
     inkscape:window-y="117"
     inkscape:window-maximized="0"
     inkscape:current-layer="svg403" />
  <defs
     id="defs4">
    <style
       type="text/css"
       id="style2">
*{stroke-linecap:butt;stroke-linejoin:round;}
  </style>
  </defs>
  <g
     id="figure_1">
    <g
       id="patch_1">
      <path
         d="M 0 396  L 576 396  L 576 0  L 0 0  z "
         style="fill:#ffffff;"
         id="path6" />
    </g>
    <g
       id="axes_1">
      <g
         id="patch_2">
        <path
           d="M 72 346.5  L 518.4 346.5  L 518.4 47.52  L 72 47.52  z "
           style="fill:#eaeaf2;"
           id="path9" />
      </g>
      <g
         id="matplotlib.axis_1">
        <g
           id="xtick_1">
          <g
             id="line2d_1">
            <path
               clip-path="url(#p20aa652e69)"
               d="M 112.399017 346.5  L 112.399017 47.52  "
               style="fill:none;stroke:#ffffff;stroke-linecap:round;"
               id="path12" />
          </g>
          <g
             id="line2d_2" />
          <g
             id="text_1">
            <!-- 1 -->
            <defs
               id="defs17">
              <path
                 d="M 37.25 0  L 28.46875 0  L 28.46875 56  Q 25.296875 52.984375 20.140625 49.953125  Q 14.984375 46.921875 10.890625 45.40625  L 10.890625 53.90625  Q 18.265625 57.375 23.78125 62.296875  Q 29.296875 67.234375 31.59375 71.875  L 37.25 71.875  z "
                 id="ArialMT-49" />
            </defs>
            <g
               style="fill:#262626;"
               transform="translate(106.83808 367.815625)scale(0.2 -0.2)"
               id="g21">
              <use
                 xlink:href="#ArialMT-49"
                 id="use19" />
            </g>
          </g>
        </g>
        <g
           id="xtick_2">
          <g
             id="line2d_3">
            <path
               clip-path="url(#p20aa652e69)"
               d="M 185.51941 346.5  L 185.51941 47.52  "
               style="fill:none;stroke:#ffffff;stroke-linecap:round;"
               id="path25" />
          </g>
          <g
             id="line2d_4" />
          <g
             id="text_2">
            <!-- 2 -->
            <defs
               id="defs30">
              <path
                 d="M 50.34375 8.453125  L 50.34375 0  L 3.03125 0  Q 2.9375 3.171875 4.046875 6.109375  Q 5.859375 10.9375 9.828125 15.625  Q 13.8125 20.3125 21.34375 26.46875  Q 33.015625 36.03125 37.109375 41.625  Q 41.21875 47.21875 41.21875 52.203125  Q 41.21875 57.421875 37.46875 61  Q 33.734375 64.59375 27.734375 64.59375  Q 21.390625 64.59375 17.578125 60.78125  Q 13.765625 56.984375 13.71875 50.25  L 4.6875 51.171875  Q 5.609375 61.28125 11.65625 66.578125  Q 17.71875 71.875 27.9375 71.875  Q 38.234375 71.875 44.234375 66.15625  Q 50.25 60.453125 50.25 52  Q 50.25 47.703125 48.484375 43.546875  Q 46.734375 39.40625 42.65625 34.8125  Q 38.578125 30.21875 29.109375 22.21875  Q 21.1875 15.578125 18.9375 13.203125  Q 16.703125 10.84375 15.234375 8.453125  z "
                 id="ArialMT-50" />
            </defs>
            <g
               style="fill:#262626;"
               transform="translate(179.958473 367.815625)scale(0.2 -0.2)"
               id="g34">
              <use
                 xlink:href="#ArialMT-50"
                 id="use32" />
            </g>
          </g>
        </g>
        <g
           id="xtick_3">
          <g
             id="line2d_5">
            <path
               clip-path="url(#p20aa652e69)"
               d="M 258.639803 346.5  L 258.639803 47.52  "
               style="fill:none;stroke:#ffffff;stroke-linecap:round;"
               id="path38" />
          </g>
          <g
             id="line2d_6" />
          <g
             id="text_3">
            <!-- 3 -->
            <defs
               id="defs43">
              <path
                 d="M 4.203125 18.890625  L 12.984375 20.0625  Q 14.5 12.59375 18.140625 9.296875  Q 21.78125 6 27 6  Q 33.203125 6 37.46875 10.296875  Q 41.75 14.59375 41.75 20.953125  Q 41.75 27 37.796875 30.921875  Q 33.84375 34.859375 27.734375 34.859375  Q 25.25 34.859375 21.53125 33.890625  L 22.515625 41.609375  Q 23.390625 41.5 23.921875 41.5  Q 29.546875 41.5 34.03125 44.421875  Q 38.53125 47.359375 38.53125 53.46875  Q 38.53125 58.296875 35.25 61.46875  Q 31.984375 64.65625 26.8125 64.65625  Q 21.6875 64.65625 18.265625 61.421875  Q 14.84375 58.203125 13.875 51.765625  L 5.078125 53.328125  Q 6.6875 62.15625 12.390625 67.015625  Q 18.109375 71.875 26.609375 71.875  Q 32.46875 71.875 37.390625 69.359375  Q 42.328125 66.84375 44.9375 62.5  Q 47.5625 58.15625 47.5625 53.265625  Q 47.5625 48.640625 45.0625 44.828125  Q 42.578125 41.015625 37.703125 38.765625  Q 44.046875 37.3125 47.5625 32.6875  Q 51.078125 28.078125 51.078125 21.140625  Q 51.078125 11.765625 44.234375 5.25  Q 37.40625 -1.265625 26.953125 -1.265625  Q 17.53125 -1.265625 11.296875 4.34375  Q 5.078125 9.96875 4.203125 18.890625  z "
                 id="ArialMT-51" />
            </defs>
            <g
               style="fill:#262626;"
               transform="translate(253.078866 367.815625)scale(0.2 -0.2)"
               id="g47">
              <use
                 xlink:href="#ArialMT-51"
                 id="use45" />
            </g>
          </g>
        </g>
        <g
           id="xtick_4">
          <g
             id="line2d_7">
            <path
               clip-path="url(#p20aa652e69)"
               d="M 331.760197 346.5  L 331.760197 47.52  "
               style="fill:none;stroke:#ffffff;stroke-linecap:round;"
               id="path51" />
          </g>
          <g
             id="line2d_8" />
          <g
             id="text_4">
            <!-- 4 -->
            <defs
               id="defs56">
              <path
                 d="M 32.328125 0  L 32.328125 17.140625  L 1.265625 17.140625  L 1.265625 25.203125  L 33.9375 71.578125  L 41.109375 71.578125  L 41.109375 25.203125  L 50.78125 25.203125  L 50.78125 17.140625  L 41.109375 17.140625  L 41.109375 0  z M 32.328125 25.203125  L 32.328125 57.46875  L 9.90625 25.203125  z "
                 id="ArialMT-52" />
            </defs>
            <g
               style="fill:#262626;"
               transform="translate(326.199259 367.815625)scale(0.2 -0.2)"
               id="g60">
              <use
                 xlink:href="#ArialMT-52"
                 id="use58" />
            </g>
          </g>
        </g>
        <g
           id="xtick_5">
          <g
             id="line2d_9">
            <path
               clip-path="url(#p20aa652e69)"
               d="M 404.88059 346.5  L 404.88059 47.52  "
               style="fill:none;stroke:#ffffff;stroke-linecap:round;"
               id="path64" />
          </g>
          <g
             id="line2d_10" />
          <g
             id="text_5">
            <!-- 5 -->
            <defs
               id="defs69">
              <path
                 d="M 4.15625 18.75  L 13.375 19.53125  Q 14.40625 12.796875 18.140625 9.390625  Q 21.875 6 27.15625 6  Q 33.5 6 37.890625 10.78125  Q 42.28125 15.578125 42.28125 23.484375  Q 42.28125 31 38.0625 35.34375  Q 33.84375 39.703125 27 39.703125  Q 22.75 39.703125 19.328125 37.765625  Q 15.921875 35.84375 13.96875 32.765625  L 5.71875 33.84375  L 12.640625 70.609375  L 48.25 70.609375  L 48.25 62.203125  L 19.671875 62.203125  L 15.828125 42.96875  Q 22.265625 47.46875 29.34375 47.46875  Q 38.71875 47.46875 45.15625 40.96875  Q 51.609375 34.46875 51.609375 24.265625  Q 51.609375 14.546875 45.953125 7.46875  Q 39.0625 -1.21875 27.15625 -1.21875  Q 17.390625 -1.21875 11.203125 4.25  Q 5.03125 9.71875 4.15625 18.75  z "
                 id="ArialMT-53" />
            </defs>
            <g
               style="fill:#262626;"
               transform="translate(399.319652 367.815625)scale(0.2 -0.2)"
               id="g73">
              <use
                 xlink:href="#ArialMT-53"
                 id="use71" />
            </g>
          </g>
        </g>
        <g
           id="xtick_6">
          <g
             id="line2d_11">
            <path
               clip-path="url(#p20aa652e69)"
               d="M 478.000983 346.5  L 478.000983 47.52  "
               style="fill:none;stroke:#ffffff;stroke-linecap:round;"
               id="path77" />
          </g>
          <g
             id="line2d_12" />
          <g
             id="text_6">
            <!-- 6 -->
            <defs
               id="defs82">
              <path
                 d="M 49.75 54.046875  L 41.015625 53.375  Q 39.84375 58.546875 37.703125 60.890625  Q 34.125 64.65625 28.90625 64.65625  Q 24.703125 64.65625 21.53125 62.3125  Q 17.390625 59.28125 14.984375 53.46875  Q 12.59375 47.65625 12.5 36.921875  Q 15.671875 41.75 20.265625 44.09375  Q 24.859375 46.4375 29.890625 46.4375  Q 38.671875 46.4375 44.84375 39.96875  Q 51.03125 33.5 51.03125 23.25  Q 51.03125 16.5 48.125 10.71875  Q 45.21875 4.9375 40.140625 1.859375  Q 35.0625 -1.21875 28.609375 -1.21875  Q 17.625 -1.21875 10.6875 6.859375  Q 3.765625 14.9375 3.765625 33.5  Q 3.765625 54.25 11.421875 63.671875  Q 18.109375 71.875 29.4375 71.875  Q 37.890625 71.875 43.28125 67.140625  Q 48.6875 62.40625 49.75 54.046875  z M 13.875 23.1875  Q 13.875 18.65625 15.796875 14.5  Q 17.71875 10.359375 21.1875 8.171875  Q 24.65625 6 28.46875 6  Q 34.03125 6 38.03125 10.484375  Q 42.046875 14.984375 42.046875 22.703125  Q 42.046875 30.125 38.078125 34.390625  Q 34.125 38.671875 28.125 38.671875  Q 22.171875 38.671875 18.015625 34.390625  Q 13.875 30.125 13.875 23.1875  z "
                 id="ArialMT-54" />
            </defs>
            <g
               style="fill:#262626;"
               transform="translate(472.440045 367.815625)scale(0.2 -0.2)"
               id="g86">
              <use
                 xlink:href="#ArialMT-54"
                 id="use84" />
            </g>
          </g>
        </g>
        <g
           id="text_7">
          <!-- TZ path increase $\delta_{TZ}^2 / \delta_{TZ}^1$ -->
          <defs
             id="defs109">
            <path
               d="M 25.921875 0  L 25.921875 63.140625  L 2.34375 63.140625  L 2.34375 71.578125  L 59.078125 71.578125  L 59.078125 63.140625  L 35.40625 63.140625  L 35.40625 0  z "
               id="ArialMT-84" />
            <path
               d="M 2 0  L 2 8.796875  L 38.671875 54.640625  Q 42.578125 59.515625 46.09375 63.140625  L 6.15625 63.140625  L 6.15625 71.578125  L 57.421875 71.578125  L 57.421875 63.140625  L 17.234375 13.484375  L 12.890625 8.453125  L 58.59375 8.453125  L 58.59375 0  z "
               id="ArialMT-90" />
            <path
               id="ArialMT-32" />
            <path
               d="M 6.59375 -19.875  L 6.59375 51.859375  L 14.59375 51.859375  L 14.59375 45.125  Q 17.4375 49.078125 21 51.046875  Q 24.5625 53.03125 29.640625 53.03125  Q 36.28125 53.03125 41.359375 49.609375  Q 46.4375 46.1875 49.015625 39.953125  Q 51.609375 33.734375 51.609375 26.3125  Q 51.609375 18.359375 48.75 11.984375  Q 45.90625 5.609375 40.453125 2.21875  Q 35.015625 -1.171875 29 -1.171875  Q 24.609375 -1.171875 21.109375 0.6875  Q 17.625 2.546875 15.375 5.375  L 15.375 -19.875  z M 14.546875 25.640625  Q 14.546875 15.625 18.59375 10.84375  Q 22.65625 6.0625 28.421875 6.0625  Q 34.28125 6.0625 38.453125 11.015625  Q 42.625 15.96875 42.625 26.375  Q 42.625 36.28125 38.546875 41.203125  Q 34.46875 46.140625 28.8125 46.140625  Q 23.1875 46.140625 18.859375 40.890625  Q 14.546875 35.640625 14.546875 25.640625  z "
               id="ArialMT-112" />
            <path
               d="M 40.4375 6.390625  Q 35.546875 2.25 31.03125 0.53125  Q 26.515625 -1.171875 21.34375 -1.171875  Q 12.796875 -1.171875 8.203125 3  Q 3.609375 7.171875 3.609375 13.671875  Q 3.609375 17.484375 5.34375 20.625  Q 7.078125 23.78125 9.890625 25.6875  Q 12.703125 27.59375 16.21875 28.5625  Q 18.796875 29.25 24.03125 29.890625  Q 34.671875 31.15625 39.703125 32.90625  Q 39.75 34.71875 39.75 35.203125  Q 39.75 40.578125 37.25 42.78125  Q 33.890625 45.75 27.25 45.75  Q 21.046875 45.75 18.09375 43.578125  Q 15.140625 41.40625 13.71875 35.890625  L 5.125 37.0625  Q 6.296875 42.578125 8.984375 45.96875  Q 11.671875 49.359375 16.75 51.1875  Q 21.828125 53.03125 28.515625 53.03125  Q 35.15625 53.03125 39.296875 51.46875  Q 43.453125 49.90625 45.40625 47.53125  Q 47.359375 45.171875 48.140625 41.546875  Q 48.578125 39.3125 48.578125 33.453125  L 48.578125 21.734375  Q 48.578125 9.46875 49.140625 6.21875  Q 49.703125 2.984375 51.375 0  L 42.1875 0  Q 40.828125 2.734375 40.4375 6.390625  z M 39.703125 26.03125  Q 34.90625 24.078125 25.34375 22.703125  Q 19.921875 21.921875 17.671875 20.9375  Q 15.4375 19.96875 14.203125 18.09375  Q 12.984375 16.21875 12.984375 13.921875  Q 12.984375 10.40625 15.640625 8.0625  Q 18.3125 5.71875 23.4375 5.71875  Q 28.515625 5.71875 32.46875 7.9375  Q 36.421875 10.15625 38.28125 14.015625  Q 39.703125 17 39.703125 22.796875  z "
               id="ArialMT-97" />
            <path
               d="M 25.78125 7.859375  L 27.046875 0.09375  Q 23.34375 -0.6875 20.40625 -0.6875  Q 15.625 -0.6875 12.984375 0.828125  Q 10.359375 2.34375 9.28125 4.8125  Q 8.203125 7.28125 8.203125 15.1875  L 8.203125 45.015625  L 1.765625 45.015625  L 1.765625 51.859375  L 8.203125 51.859375  L 8.203125 64.703125  L 16.9375 69.96875  L 16.9375 51.859375  L 25.78125 51.859375  L 25.78125 45.015625  L 16.9375 45.015625  L 16.9375 14.703125  Q 16.9375 10.9375 17.40625 9.859375  Q 17.875 8.796875 18.921875 8.15625  Q 19.96875 7.515625 21.921875 7.515625  Q 23.390625 7.515625 25.78125 7.859375  z "
               id="ArialMT-116" />
            <path
               d="M 6.59375 0  L 6.59375 71.578125  L 15.375 71.578125  L 15.375 45.90625  Q 21.53125 53.03125 30.90625 53.03125  Q 36.671875 53.03125 40.921875 50.75  Q 45.171875 48.484375 47 44.484375  Q 48.828125 40.484375 48.828125 32.859375  L 48.828125 0  L 40.046875 0  L 40.046875 32.859375  Q 40.046875 39.453125 37.1875 42.453125  Q 34.328125 45.453125 29.109375 45.453125  Q 25.203125 45.453125 21.75 43.421875  Q 18.3125 41.40625 16.84375 37.9375  Q 15.375 34.46875 15.375 28.375  L 15.375 0  z "
               id="ArialMT-104" />
            <path
               d="M 6.640625 61.46875  L 6.640625 71.578125  L 15.4375 71.578125  L 15.4375 61.46875  z M 6.640625 0  L 6.640625 51.859375  L 15.4375 51.859375  L 15.4375 0  z "
               id="ArialMT-105" />
            <path
               d="M 6.59375 0  L 6.59375 51.859375  L 14.5 51.859375  L 14.5 44.484375  Q 20.21875 53.03125 31 53.03125  Q 35.6875 53.03125 39.625 51.34375  Q 43.5625 49.65625 45.515625 46.921875  Q 47.46875 44.1875 48.25 40.4375  Q 48.734375 37.984375 48.734375 31.890625  L 48.734375 0  L 39.9375 0  L 39.9375 31.546875  Q 39.9375 36.921875 38.90625 39.578125  Q 37.890625 42.234375 35.28125 43.8125  Q 32.671875 45.40625 29.15625 45.40625  Q 23.53125 45.40625 19.453125 41.84375  Q 15.375 38.28125 15.375 28.328125  L 15.375 0  z "
               id="ArialMT-110" />
            <path
               d="M 40.4375 19  L 49.078125 17.875  Q 47.65625 8.9375 41.8125 3.875  Q 35.984375 -1.171875 27.484375 -1.171875  Q 16.84375 -1.171875 10.375 5.78125  Q 3.90625 12.75 3.90625 25.734375  Q 3.90625 34.125 6.6875 40.421875  Q 9.46875 46.734375 15.15625 49.875  Q 20.84375 53.03125 27.546875 53.03125  Q 35.984375 53.03125 41.359375 48.75  Q 46.734375 44.484375 48.25 36.625  L 39.703125 35.296875  Q 38.484375 40.53125 35.375 43.15625  Q 32.28125 45.796875 27.875 45.796875  Q 21.234375 45.796875 17.078125 41.03125  Q 12.9375 36.28125 12.9375 25.984375  Q 12.9375 15.53125 16.9375 10.796875  Q 20.953125 6.0625 27.390625 6.0625  Q 32.5625 6.0625 36.03125 9.234375  Q 39.5 12.40625 40.4375 19  z "
               id="ArialMT-99" />
            <path
               d="M 6.5 0  L 6.5 51.859375  L 14.40625 51.859375  L 14.40625 44  Q 17.4375 49.515625 20 51.265625  Q 22.5625 53.03125 25.640625 53.03125  Q 30.078125 53.03125 34.671875 50.203125  L 31.640625 42.046875  Q 28.421875 43.953125 25.203125 43.953125  Q 22.3125 43.953125 20.015625 42.21875  Q 17.71875 40.484375 16.75 37.40625  Q 15.28125 32.71875 15.28125 27.15625  L 15.28125 0  z "
               id="ArialMT-114" />
            <path
               d="M 42.09375 16.703125  L 51.171875 15.578125  Q 49.03125 7.625 43.21875 3.21875  Q 37.40625 -1.171875 28.375 -1.171875  Q 17 -1.171875 10.328125 5.828125  Q 3.65625 12.84375 3.65625 25.484375  Q 3.65625 38.578125 10.390625 45.796875  Q 17.140625 53.03125 27.875 53.03125  Q 38.28125 53.03125 44.875 45.953125  Q 51.46875 38.875 51.46875 26.03125  Q 51.46875 25.25 51.421875 23.6875  L 12.75 23.6875  Q 13.234375 15.140625 17.578125 10.59375  Q 21.921875 6.0625 28.421875 6.0625  Q 33.25 6.0625 36.671875 8.59375  Q 40.09375 11.140625 42.09375 16.703125  z M 13.234375 30.90625  L 42.1875 30.90625  Q 41.609375 37.453125 38.875 40.71875  Q 34.671875 45.796875 27.984375 45.796875  Q 21.921875 45.796875 17.796875 41.75  Q 13.671875 37.703125 13.234375 30.90625  z "
               id="ArialMT-101" />
            <path
               d="M 3.078125 15.484375  L 11.765625 16.84375  Q 12.5 11.625 15.84375 8.84375  Q 19.1875 6.0625 25.203125 6.0625  Q 31.25 6.0625 34.171875 8.515625  Q 37.109375 10.984375 37.109375 14.3125  Q 37.109375 17.28125 34.515625 19  Q 32.71875 20.171875 25.53125 21.96875  Q 15.875 24.421875 12.140625 26.203125  Q 8.40625 27.984375 6.46875 31.125  Q 4.546875 34.28125 4.546875 38.09375  Q 4.546875 41.546875 6.125 44.5  Q 7.71875 47.46875 10.453125 49.421875  Q 12.5 50.921875 16.03125 51.96875  Q 19.578125 53.03125 23.640625 53.03125  Q 29.734375 53.03125 34.34375 51.265625  Q 38.96875 49.515625 41.15625 46.5  Q 43.359375 43.5 44.1875 38.484375  L 35.59375 37.3125  Q 35.015625 41.3125 32.203125 43.546875  Q 29.390625 45.796875 24.265625 45.796875  Q 18.21875 45.796875 15.625 43.796875  Q 13.03125 41.796875 13.03125 39.109375  Q 13.03125 37.40625 14.109375 36.03125  Q 15.1875 34.625 17.484375 33.6875  Q 18.796875 33.203125 25.25 31.453125  Q 34.578125 28.953125 38.25 27.359375  Q 41.9375 25.78125 44.03125 22.75  Q 46.140625 19.734375 46.140625 15.234375  Q 46.140625 10.84375 43.578125 6.953125  Q 41.015625 3.078125 36.171875 0.953125  Q 31.34375 -1.171875 25.25 -1.171875  Q 15.140625 -1.171875 9.84375 3.03125  Q 4.546875 7.234375 3.078125 15.484375  z "
               id="ArialMT-115" />
            <path
               d="M 54.25 63.328125  Q 49.953125 66.75 38.28125 66.75  Q 25.921875 66.75 24.8125 61.03125  Q 23.921875 56.546875 36.375 54.203125  Q 46.140625 52.390625 50.828125 46.921875  Q 56.5 40.328125 53.859375 26.8125  Q 51.3125 13.875 43.171875 6.25  Q 34.96875 -1.421875 23.25 -1.421875  Q 11.578125 -1.421875 6.34375 6.25  Q 1.125 13.875 3.765625 27.296875  Q 5.671875 37.25 13.921875 45.3125  Q 17.140625 48.4375 21.140625 50.203125  Q 14.265625 54.046875 15.625 60.9375  Q 18.21875 74.21875 39.75 74.21875  Q 50.53125 74.21875 55.71875 70.796875  z M 27.390625 47.75  Q 23.828125 46.34375 20.40625 42.78125  Q 15.140625 37.25 13.234375 27.296875  Q 11.28125 17.390625 14.359375 11.8125  Q 17.484375 6.203125 24.75 6.203125  Q 31.9375 6.203125 37.203125 11.859375  Q 42.53125 17.53125 44.34375 26.8125  Q 46.1875 36.53125 42.671875 41.21875  Q 38.921875 46.234375 32.859375 46.78125  Q 29.78125 47.078125 27.390625 47.75  z "
               id="DejaVuSans-Oblique-948" />
            <path
               d="M 19.1875 8.296875  L 53.609375 8.296875  L 53.609375 0  L 7.328125 0  L 7.328125 8.296875  Q 12.9375 14.109375 22.625 23.890625  Q 32.328125 33.6875 34.8125 36.53125  Q 39.546875 41.84375 41.421875 45.53125  Q 43.3125 49.21875 43.3125 52.78125  Q 43.3125 58.59375 39.234375 62.25  Q 35.15625 65.921875 28.609375 65.921875  Q 23.96875 65.921875 18.8125 64.3125  Q 13.671875 62.703125 7.8125 59.421875  L 7.8125 69.390625  Q 13.765625 71.78125 18.9375 73  Q 24.125 74.21875 28.421875 74.21875  Q 39.75 74.21875 46.484375 68.546875  Q 53.21875 62.890625 53.21875 53.421875  Q 53.21875 48.921875 51.53125 44.890625  Q 49.859375 40.875 45.40625 35.40625  Q 44.1875 33.984375 37.640625 27.21875  Q 31.109375 20.453125 19.1875 8.296875  z "
               id="DejaVuSans-50" />
            <path
               d="M 5.90625 72.90625  L 67.578125 72.90625  L 66.015625 64.59375  L 39.984375 64.59375  L 27.484375 0  L 17.578125 0  L 30.078125 64.59375  L 4.296875 64.59375  z "
               id="DejaVuSans-Oblique-84" />
            <path
               d="M 13.09375 72.90625  L 70.3125 72.90625  L 68.890625 65.375  L 12.40625 8.296875  L 58.890625 8.296875  L 57.328125 0  L -2.203125 0  L -0.78125 7.515625  L 55.71875 64.59375  L 11.53125 64.59375  z "
               id="DejaVuSans-Oblique-90" />
            <path
               d="M 25.390625 72.90625  L 33.6875 72.90625  L 8.296875 -9.28125  L 0 -9.28125  z "
               id="DejaVuSans-47" />
            <path
               d="M 12.40625 8.296875  L 28.515625 8.296875  L 28.515625 63.921875  L 10.984375 60.40625  L 10.984375 69.390625  L 28.421875 72.90625  L 38.28125 72.90625  L 38.28125 8.296875  L 54.390625 8.296875  L 54.390625 0  L 12.40625 0  z "
               id="DejaVuSans-49" />
          </defs>
          <g
             style="fill:#262626;"
             transform="translate(183 393.990625)scale(0.2 -0.2)"
             id="g163">
            <use
               transform="translate(0 0.765625)"
               xlink:href="#ArialMT-84"
               id="use111" />
            <use
               transform="translate(61.083984 0.765625)"
               xlink:href="#ArialMT-90"
               id="use113" />
            <use
               transform="translate(122.167969 0.765625)"
               xlink:href="#ArialMT-32"
               id="use115" />
            <use
               transform="translate(149.951172 0.765625)"
               xlink:href="#ArialMT-112"
               id="use117" />
            <use
               transform="translate(205.566406 0.765625)"
               xlink:href="#ArialMT-97"
               id="use119" />
            <use
               transform="translate(261.181641 0.765625)"
               xlink:href="#ArialMT-116"
               id="use121" />
            <use
               transform="translate(288.964844 0.765625)"
               xlink:href="#ArialMT-104"
               id="use123" />
            <use
               transform="translate(344.580078 0.765625)"
               xlink:href="#ArialMT-32"
               id="use125" />
            <use
               transform="translate(372.363281 0.765625)"
               xlink:href="#ArialMT-105"
               id="use127" />
            <use
               transform="translate(394.580078 0.765625)"
               xlink:href="#ArialMT-110"
               id="use129" />
            <use
               transform="translate(450.195312 0.765625)"
               xlink:href="#ArialMT-99"
               id="use131" />
            <use
               transform="translate(500.195312 0.765625)"
               xlink:href="#ArialMT-114"
               id="use133" />
            <use
               transform="translate(533.496094 0.765625)"
               xlink:href="#ArialMT-101"
               id="use135" />
            <use
               transform="translate(589.111328 0.765625)"
               xlink:href="#ArialMT-97"
               id="use137" />
            <use
               transform="translate(644.726562 0.765625)"
               xlink:href="#ArialMT-115"
               id="use139" />
            <use
               transform="translate(694.726562 0.765625)"
               xlink:href="#ArialMT-101"
               id="use141" />
            <use
               transform="translate(750.341797 0.765625)"
               xlink:href="#ArialMT-32"
               id="use143" />
            <use
               transform="translate(778.125 0.765625)"
               xlink:href="#DejaVuSans-Oblique-948"
               id="use145" />
            <use
               transform="translate(846.507161 39.046875)scale(0.7)"
               xlink:href="#DejaVuSans-50"
               id="use147" />
            <use
               transform="translate(839.306641 -26.578125)scale(0.7)"
               xlink:href="#DejaVuSans-Oblique-84"
               id="use149" />
            <use
               transform="translate(882.06543 -26.578125)scale(0.7)"
               xlink:href="#DejaVuSans-Oblique-90"
               id="use151" />
            <use
               transform="translate(932.753906 0.765625)"
               xlink:href="#DejaVuSans-47"
               id="use153" />
            <use
               transform="translate(966.445312 0.765625)"
               xlink:href="#DejaVuSans-Oblique-948"
               id="use155" />
            <use
               transform="translate(1034.827474 39.046875)scale(0.7)"
               xlink:href="#DejaVuSans-49"
               id="use157" />
            <use
               transform="translate(1027.626953 -26.578125)scale(0.7)"
               xlink:href="#DejaVuSans-Oblique-84"
               id="use159" />
            <use
               transform="translate(1070.385742 -26.578125)scale(0.7)"
               xlink:href="#DejaVuSans-Oblique-90"
               id="use161" />
          </g>
        </g>
      </g>
      <g
         id="matplotlib.axis_2">
        <g
           id="ytick_1">
          <g
             id="line2d_13">
            <path
               clip-path="url(#p20aa652e69)"
               d="M 72 346.5  L 518.4 346.5  "
               style="fill:none;stroke:#ffffff;stroke-linecap:round;"
               id="path167" />
          </g>
          <g
             id="line2d_14" />
          <g
             id="text_8">
            <!-- 0% -->
            <defs
               id="defs173">
              <path
                 d="M 4.15625 35.296875  Q 4.15625 48 6.765625 55.734375  Q 9.375 63.484375 14.515625 67.671875  Q 19.671875 71.875 27.484375 71.875  Q 33.25 71.875 37.59375 69.546875  Q 41.9375 67.234375 44.765625 62.859375  Q 47.609375 58.5 49.21875 52.21875  Q 50.828125 45.953125 50.828125 35.296875  Q 50.828125 22.703125 48.234375 14.96875  Q 45.65625 7.234375 40.5 3  Q 35.359375 -1.21875 27.484375 -1.21875  Q 17.140625 -1.21875 11.234375 6.203125  Q 4.15625 15.140625 4.15625 35.296875  z M 13.1875 35.296875  Q 13.1875 17.671875 17.3125 11.828125  Q 21.4375 6 27.484375 6  Q 33.546875 6 37.671875 11.859375  Q 41.796875 17.71875 41.796875 35.296875  Q 41.796875 52.984375 37.671875 58.78125  Q 33.546875 64.59375 27.390625 64.59375  Q 21.34375 64.59375 17.71875 59.46875  Q 13.1875 52.9375 13.1875 35.296875  z "
                 id="ArialMT-48" />
              <path
                 d="M 5.8125 54.390625  Q 5.8125 62.0625 9.671875 67.421875  Q 13.53125 72.796875 20.84375 72.796875  Q 27.59375 72.796875 32 67.984375  Q 36.421875 63.1875 36.421875 53.859375  Q 36.421875 44.78125 31.953125 39.875  Q 27.484375 34.96875 20.953125 34.96875  Q 14.453125 34.96875 10.125 39.796875  Q 5.8125 44.625 5.8125 54.390625  z M 21.09375 66.75  Q 17.828125 66.75 15.65625 63.90625  Q 13.484375 61.078125 13.484375 53.515625  Q 13.484375 46.625 15.671875 43.8125  Q 17.875 41.015625 21.09375 41.015625  Q 24.421875 41.015625 26.59375 43.84375  Q 28.765625 46.6875 28.765625 54.203125  Q 28.765625 61.140625 26.5625 63.9375  Q 24.359375 66.75 21.09375 66.75  z M 21.140625 -2.640625  L 60.296875 72.796875  L 67.4375 72.796875  L 28.421875 -2.640625  z M 52.09375 16.796875  Q 52.09375 24.515625 55.953125 29.859375  Q 59.8125 35.203125 67.1875 35.203125  Q 73.921875 35.203125 78.34375 30.390625  Q 82.765625 25.59375 82.765625 16.265625  Q 82.765625 7.171875 78.296875 2.265625  Q 73.828125 -2.640625 67.234375 -2.640625  Q 60.75 -2.640625 56.421875 2.21875  Q 52.09375 7.078125 52.09375 16.796875  z M 67.4375 29.15625  Q 64.109375 29.15625 61.9375 26.3125  Q 59.765625 23.484375 59.765625 15.921875  Q 59.765625 9.078125 61.953125 6.25  Q 64.15625 3.421875 67.390625 3.421875  Q 70.75 3.421875 72.921875 6.25  Q 75.09375 9.078125 75.09375 16.609375  Q 75.09375 23.53125 72.890625 26.34375  Q 70.703125 29.15625 67.4375 29.15625  z "
                 id="ArialMT-37" />
            </defs>
            <g
               style="fill:#262626;"
               transform="translate(36.09375 353.657812)scale(0.2 -0.2)"
               id="g179">
              <use
                 xlink:href="#ArialMT-48"
                 id="use175" />
              <use
                 x="55.615234"
                 xlink:href="#ArialMT-37"
                 id="use177" />
            </g>
          </g>
        </g>
        <g
           id="ytick_2">
          <g
             id="line2d_15">
            <path
               clip-path="url(#p20aa652e69)"
               d="M 72 286.704  L 518.4 286.704  "
               style="fill:none;stroke:#ffffff;stroke-linecap:round;"
               id="path183" />
          </g>
          <g
             id="line2d_16" />
          <g
             id="text_9">
            <!-- 20% -->
            <g
               style="fill:#262626;"
               transform="translate(24.971875 293.861812)scale(0.2 -0.2)"
               id="g193">
              <use
                 xlink:href="#ArialMT-50"
                 id="use187" />
              <use
                 x="55.615234"
                 xlink:href="#ArialMT-48"
                 id="use189" />
              <use
                 x="111.230469"
                 xlink:href="#ArialMT-37"
                 id="use191" />
            </g>
          </g>
        </g>
        <g
           id="ytick_3">
          <g
             id="line2d_17">
            <path
               clip-path="url(#p20aa652e69)"
               d="M 72 226.908  L 518.4 226.908  "
               style="fill:none;stroke:#ffffff;stroke-linecap:round;"
               id="path197" />
          </g>
          <g
             id="line2d_18" />
          <g
             id="text_10">
            <!-- 40% -->
            <g
               style="fill:#262626;"
               transform="translate(24.971875 234.065812)scale(0.2 -0.2)"
               id="g207">
              <use
                 xlink:href="#ArialMT-52"
                 id="use201" />
              <use
                 x="55.615234"
                 xlink:href="#ArialMT-48"
                 id="use203" />
              <use
                 x="111.230469"
                 xlink:href="#ArialMT-37"
                 id="use205" />
            </g>
          </g>
        </g>
        <g
           id="ytick_4">
          <g
             id="line2d_19">
            <path
               clip-path="url(#p20aa652e69)"
               d="M 72 167.112  L 518.4 167.112  "
               style="fill:none;stroke:#ffffff;stroke-linecap:round;"
               id="path211" />
          </g>
          <g
             id="line2d_20" />
          <g
             id="text_11">
            <!-- 60% -->
            <g
               style="fill:#262626;"
               transform="translate(24.971875 174.269812)scale(0.2 -0.2)"
               id="g221">
              <use
                 xlink:href="#ArialMT-54"
                 id="use215" />
              <use
                 x="55.615234"
                 xlink:href="#ArialMT-48"
                 id="use217" />
              <use
                 x="111.230469"
                 xlink:href="#ArialMT-37"
                 id="use219" />
            </g>
          </g>
        </g>
        <g
           id="ytick_5">
          <g
             id="line2d_21">
            <path
               clip-path="url(#p20aa652e69)"
               d="M 72 107.316  L 518.4 107.316  "
               style="fill:none;stroke:#ffffff;stroke-linecap:round;"
               id="path225" />
          </g>
          <g
             id="line2d_22" />
          <g
             id="text_12">
            <!-- 80% -->
            <defs
               id="defs230">
              <path
                 d="M 17.671875 38.8125  Q 12.203125 40.828125 9.5625 44.53125  Q 6.9375 48.25 6.9375 53.421875  Q 6.9375 61.234375 12.546875 66.546875  Q 18.171875 71.875 27.484375 71.875  Q 36.859375 71.875 42.578125 66.421875  Q 48.296875 60.984375 48.296875 53.171875  Q 48.296875 48.1875 45.671875 44.5  Q 43.0625 40.828125 37.75 38.8125  Q 44.34375 36.671875 47.78125 31.875  Q 51.21875 27.09375 51.21875 20.453125  Q 51.21875 11.28125 44.71875 5.03125  Q 38.234375 -1.21875 27.640625 -1.21875  Q 17.046875 -1.21875 10.546875 5.046875  Q 4.046875 11.328125 4.046875 20.703125  Q 4.046875 27.6875 7.59375 32.390625  Q 11.140625 37.109375 17.671875 38.8125  z M 15.921875 53.71875  Q 15.921875 48.640625 19.1875 45.40625  Q 22.46875 42.1875 27.6875 42.1875  Q 32.765625 42.1875 36.015625 45.375  Q 39.265625 48.578125 39.265625 53.21875  Q 39.265625 58.0625 35.90625 61.359375  Q 32.5625 64.65625 27.59375 64.65625  Q 22.5625 64.65625 19.234375 61.421875  Q 15.921875 58.203125 15.921875 53.71875  z M 13.09375 20.65625  Q 13.09375 16.890625 14.875 13.375  Q 16.65625 9.859375 20.171875 7.921875  Q 23.6875 6 27.734375 6  Q 34.03125 6 38.125 10.046875  Q 42.234375 14.109375 42.234375 20.359375  Q 42.234375 26.703125 38.015625 30.859375  Q 33.796875 35.015625 27.4375 35.015625  Q 21.234375 35.015625 17.15625 30.90625  Q 13.09375 26.8125 13.09375 20.65625  z "
                 id="ArialMT-56" />
            </defs>
            <g
               style="fill:#262626;"
               transform="translate(24.971875 114.473812)scale(0.2 -0.2)"
               id="g238">
              <use
                 xlink:href="#ArialMT-56"
                 id="use232" />
              <use
                 x="55.615234"
                 xlink:href="#ArialMT-48"
                 id="use234" />
              <use
                 x="111.230469"
                 xlink:href="#ArialMT-37"
                 id="use236" />
            </g>
          </g>
        </g>
        <g
           id="ytick_6">
          <g
             id="line2d_23">
            <path
               clip-path="url(#p20aa652e69)"
               d="M 72 47.52  L 518.4 47.52  "
               style="fill:none;stroke:#ffffff;stroke-linecap:round;"
               id="path242" />
          </g>
          <g
             id="line2d_24" />
          <g
             id="text_13">
            <!-- 100% -->
            <g
               style="fill:#262626;"
               transform="translate(13.85 54.677812)scale(0.2 -0.2)"
               id="g254">
              <use
                 xlink:href="#ArialMT-49"
                 id="use246" />
              <use
                 x="55.615234"
                 xlink:href="#ArialMT-48"
                 id="use248" />
              <use
                 x="111.230469"
                 xlink:href="#ArialMT-48"
                 id="use250" />
              <use
                 x="166.845703"
                 xlink:href="#ArialMT-37"
                 id="use252" />
            </g>
          </g>
        </g>
      </g>
      <g
         id="patch_3">
        <path
           clip-path="url(#p20aa652e69)"
           d="M 92.290909 346.5  L 110.571007 346.5  L 110.571007 346.5  L 92.290909 346.5  z "
           style="fill:url(#hbdb653145d);opacity:0.7;stroke:#ffffff;stroke-linejoin:miter;stroke-width:2;"
           id="path259" />
      </g>
      <g
         id="patch_4">
        <path
           clip-path="url(#p20aa652e69)"
           d="M 165.411302 346.5  L 183.6914 346.5  L 183.6914 192.48  L 165.411302 192.48  z "
           style="fill:url(#hbdb653145d);opacity:0.7;stroke:#ffffff;stroke-linejoin:miter;stroke-width:2;"
           id="path262" />
      </g>
      <g
         id="patch_5">
        <path
           clip-path="url(#p20aa652e69)"
           d="M 238.531695 346.5  L 256.811794 346.5  L 256.811794 207.34341  L 238.531695 207.34341  z "
           style="fill:url(#hbdb653145d);opacity:0.7;stroke:#ffffff;stroke-linejoin:miter;stroke-width:2;"
           id="path265" />
      </g>
      <g
         id="patch_6">
        <path
           clip-path="url(#p20aa652e69)"
           d="M 311.652088 346.5  L 329.932187 346.5  L 329.932187 226.908  L 311.652088 226.908  z "
           style="fill:url(#hbdb653145d);opacity:0.7;stroke:#ffffff;stroke-linejoin:miter;stroke-width:2;"
           id="path268" />
      </g>
      <g
         id="patch_7">
        <path
           clip-path="url(#p20aa652e69)"
           d="M 384.772482 346.5  L 403.05258 346.5  L 403.05258 226.908  L 384.772482 226.908  z "
           style="fill:url(#hbdb653145d);opacity:0.7;stroke:#ffffff;stroke-linejoin:miter;stroke-width:2;"
           id="path271" />
      </g>
      <g
         id="patch_8">
        <path
           clip-path="url(#p20aa652e69)"
           d="M 457.892875 346.5  L 476.172973 346.5  L 476.172973 346.5  L 457.892875 346.5  z "
           style="fill:url(#hbdb653145d);opacity:0.7;stroke:#ffffff;stroke-linejoin:miter;stroke-width:2;"
           id="path274" />
      </g>
      <g
         id="patch_9">
        <path
           clip-path="url(#p20aa652e69)"
           d="M 114.227027 346.5  L 132.507125 346.5  L 132.507125 346.5  L 114.227027 346.5  z "
           style="fill:#005275;opacity:0.77;stroke:#ffffff;stroke-linejoin:miter;stroke-width:2;"
           id="path277" />
      </g>
      <g
         id="patch_10">
        <path
           clip-path="url(#p20aa652e69)"
           d="M 187.34742 346.5  L 205.627518 346.5  L 205.627518 216.64  L 187.34742 216.64  z "
           style="fill:#005275;opacity:0.77;stroke:#ffffff;stroke-linejoin:miter;stroke-width:2;"
           id="path280" />
      </g>
      <g
         id="patch_11">
        <path
           clip-path="url(#p20aa652e69)"
           d="M 260.467813 346.5  L 278.747912 346.5  L 278.747912 342.366636  L 260.467813 342.366636  z "
           style="fill:#005275;opacity:0.77;stroke:#ffffff;stroke-linejoin:miter;stroke-width:2;"
           id="path283" />
      </g>
      <g
         id="patch_12">
        <path
           clip-path="url(#p20aa652e69)"
           d="M 333.588206 346.5  L 351.868305 346.5  L 351.868305 346.5  L 333.588206 346.5  z "
           style="fill:#005275;opacity:0.77;stroke:#ffffff;stroke-linejoin:miter;stroke-width:2;"
           id="path286" />
      </g>
      <g
         id="patch_13">
        <path
           clip-path="url(#p20aa652e69)"
           d="M 406.7086 346.5  L 424.988698 346.5  L 424.988698 346.5  L 406.7086 346.5  z "
           style="fill:#005275;opacity:0.77;stroke:#ffffff;stroke-linejoin:miter;stroke-width:2;"
           id="path289" />
      </g>
      <g
         id="patch_14">
        <path
           clip-path="url(#p20aa652e69)"
           d="M 479.828993 346.5  L 498.109091 346.5  L 498.109091 346.5  L 479.828993 346.5  z "
           style="fill:#005275;opacity:0.77;stroke:#ffffff;stroke-linejoin:miter;stroke-width:2;"
           id="path292" />
      </g>
      <g
         id="patch_15">
        <path
           clip-path="url(#p20aa652e69)"
           d="M 92.290909 346.5  L 110.571007 346.5  L 110.571007 119.124947  L 92.290909 119.124947  z "
           style="fill:url(#hb594e8640e);opacity:0.8;stroke:#ffffff;stroke-linejoin:miter;stroke-width:2;"
           id="path295" />
      </g>
      <g
         id="patch_16">
        <path
           clip-path="url(#p20aa652e69)"
           d="M 165.411302 192.48  L 183.6914 192.48  L 183.6914 47.52  L 165.411302 47.52  z "
           style="fill:url(#hb594e8640e);opacity:0.8;stroke:#ffffff;stroke-linejoin:miter;stroke-width:2;"
           id="path298" />
      </g>
      <g
         id="patch_17">
        <path
           clip-path="url(#p20aa652e69)"
           d="M 238.531695 207.34341  L 256.811794 207.34341  L 256.811794 57.164516  L 238.531695 57.164516  z "
           style="fill:url(#hb594e8640e);opacity:0.8;stroke:#ffffff;stroke-linejoin:miter;stroke-width:2;"
           id="path301" />
      </g>
      <g
         id="patch_18">
        <path
           clip-path="url(#p20aa652e69)"
           d="M 311.652088 226.908  L 329.932187 226.908  L 329.932187 67.452  L 311.652088 67.452  z "
           style="fill:url(#hb594e8640e);opacity:0.8;stroke:#ffffff;stroke-linejoin:miter;stroke-width:2;"
           id="path304" />
      </g>
      <g
         id="patch_19">
        <path
           clip-path="url(#p20aa652e69)"
           d="M 384.772482 226.908  L 403.05258 226.908  L 403.05258 47.52  L 384.772482 47.52  z "
           style="fill:url(#hb594e8640e);opacity:0.8;stroke:#ffffff;stroke-linejoin:miter;stroke-width:2;"
           id="path307" />
      </g>
      <g
         id="patch_20">
        <path
           clip-path="url(#p20aa652e69)"
           d="M 457.892875 346.5  L 476.172973 346.5  L 476.172973 47.52  L 457.892875 47.52  z "
           style="fill:url(#hb594e8640e);opacity:0.8;stroke:#ffffff;stroke-linejoin:miter;stroke-width:2;"
           id="path310" />
      </g>
      <g
         id="patch_21">
        <path
           clip-path="url(#p20aa652e69)"
           d="M 114.227027 346.5  L 132.507125 346.5  L 132.507125 119.124947  L 114.227027 119.124947  z "
           style="fill:#df9c00;opacity:0.88;stroke:#ffffff;stroke-linejoin:miter;stroke-width:2;"
           id="path313" />
      </g>
      <g
         id="patch_22">
        <path
           clip-path="url(#p20aa652e69)"
           d="M 187.34742 216.64  L 205.627518 216.64  L 205.627518 53.56  L 187.34742 53.56  z "
           style="fill:#df9c00;opacity:0.88;stroke:#ffffff;stroke-linejoin:miter;stroke-width:2;"
           id="path316" />
      </g>
      <g
         id="patch_23">
        <path
           clip-path="url(#p20aa652e69)"
           d="M 260.467813 342.366636  L 278.747912 342.366636  L 278.747912 316.188664  L 260.467813 316.188664  z "
           style="fill:#df9c00;opacity:0.88;stroke:#ffffff;stroke-linejoin:miter;stroke-width:2;"
           id="path319" />
      </g>
      <g
         id="patch_24">
        <path
           clip-path="url(#p20aa652e69)"
           d="M 333.588206 346.5  L 351.868305 346.5  L 351.868305 319.0935  L 333.588206 319.0935  z "
           style="fill:#df9c00;opacity:0.88;stroke:#ffffff;stroke-linejoin:miter;stroke-width:2;"
           id="path322" />
      </g>
      <g
         id="patch_25">
        <path
           clip-path="url(#p20aa652e69)"
           d="M 406.7086 346.5  L 424.988698 346.5  L 424.988698 306.636  L 406.7086 306.636  z "
           style="fill:#df9c00;opacity:0.88;stroke:#ffffff;stroke-linejoin:miter;stroke-width:2;"
           id="path325" />
      </g>
      <g
         id="patch_26">
        <path
           clip-path="url(#p20aa652e69)"
           d="M 479.828993 346.5  L 498.109091 346.5  L 498.109091 346.5  L 479.828993 346.5  z "
           style="fill:#df9c00;opacity:0.88;stroke:#ffffff;stroke-linejoin:miter;stroke-width:2;"
           id="path328" />
      </g>
      <g
         id="patch_27">
        <path
           clip-path="url(#p20aa652e69)"
           d="M 92.290909 119.124947  L 110.571007 119.124947  L 110.571007 47.52  L 92.290909 47.52  z "
           style="fill:url(#h31d23c55aa);opacity:0.9;stroke:#ffffff;stroke-linejoin:miter;stroke-width:2;"
           id="path331" />
      </g>
      <g
         id="patch_28">
        <path
           clip-path="url(#p20aa652e69)"
           d="M 165.411302 47.52  L 183.6914 47.52  L 183.6914 47.52  L 165.411302 47.52  z "
           style="fill:url(#h31d23c55aa);opacity:0.9;stroke:#ffffff;stroke-linejoin:miter;stroke-width:2;"
           id="path334" />
      </g>
      <g
         id="patch_29">
        <path
           clip-path="url(#p20aa652e69)"
           d="M 238.531695 57.164516  L 256.811794 57.164516  L 256.811794 47.52  L 238.531695 47.52  z "
           style="fill:url(#h31d23c55aa);opacity:0.9;stroke:#ffffff;stroke-linejoin:miter;stroke-width:2;"
           id="path337" />
      </g>
      <g
         id="patch_30">
        <path
           clip-path="url(#p20aa652e69)"
           d="M 311.652088 67.452  L 329.932187 67.452  L 329.932187 47.52  L 311.652088 47.52  z "
           style="fill:url(#h31d23c55aa);opacity:0.9;stroke:#ffffff;stroke-linejoin:miter;stroke-width:2;"
           id="path340" />
      </g>
      <g
         id="patch_31">
        <path
           clip-path="url(#p20aa652e69)"
           d="M 384.772482 47.52  L 403.05258 47.52  L 403.05258 47.52  L 384.772482 47.52  z "
           style="fill:url(#h31d23c55aa);opacity:0.9;stroke:#ffffff;stroke-linejoin:miter;stroke-width:2;"
           id="path343" />
      </g>
      <g
         id="patch_32">
        <path
           clip-path="url(#p20aa652e69)"
           d="M 457.892875 47.52  L 476.172973 47.52  L 476.172973 47.52  L 457.892875 47.52  z "
           style="fill:url(#h31d23c55aa);opacity:0.9;stroke:#ffffff;stroke-linejoin:miter;stroke-width:2;"
           id="path346" />
      </g>
      <g
         id="patch_33">
        <path
           clip-path="url(#p20aa652e69)"
           d="M 114.227027 119.124947  L 132.507125 119.124947  L 132.507125 47.52  L 114.227027 47.52  z "
           style="fill:#c63508;opacity:0.99;stroke:#ffffff;stroke-linejoin:miter;stroke-width:2;"
           id="path349" />
      </g>
      <g
         id="patch_34">
        <path
           clip-path="url(#p20aa652e69)"
           d="M 187.34742 53.56  L 205.627518 53.56  L 205.627518 47.52  L 187.34742 47.52  z "
           style="fill:#c63508;opacity:0.99;stroke:#ffffff;stroke-linejoin:miter;stroke-width:2;"
           id="path352" />
      </g>
      <g
         id="patch_35">
        <path
           clip-path="url(#p20aa652e69)"
           d="M 260.467813 316.188664  L 278.747912 316.188664  L 278.747912 47.52  L 260.467813 47.52  z "
           style="fill:#c63508;opacity:0.99;stroke:#ffffff;stroke-linejoin:miter;stroke-width:2;"
           id="path355" />
      </g>
      <g
         id="patch_36">
        <path
           clip-path="url(#p20aa652e69)"
           d="M 333.588206 319.0935  L 351.868305 319.0935  L 351.868305 47.52  L 333.588206 47.52  z "
           style="fill:#c63508;opacity:0.99;stroke:#ffffff;stroke-linejoin:miter;stroke-width:2;"
           id="path358" />
      </g>
      <g
         id="patch_37">
        <path
           clip-path="url(#p20aa652e69)"
           d="M 406.7086 306.636  L 424.988698 306.636  L 424.988698 47.52  L 406.7086 47.52  z "
           style="fill:#c63508;opacity:0.99;stroke:#ffffff;stroke-linejoin:miter;stroke-width:2;"
           id="path361" />
      </g>
      <g
         id="patch_38">
        <path
           clip-path="url(#p20aa652e69)"
           d="M 479.828993 346.5  L 498.109091 346.5  L 498.109091 47.52  L 479.828993 47.52  z "
           style="fill:#c63508;opacity:0.99;stroke:#ffffff;stroke-linejoin:miter;stroke-width:2;"
           id="path364" />
      </g>
      <g
         id="patch_39">
        <path
           d="M 72 346.5  L 72 47.52  "
           style="fill:none;"
           id="path367" />
      </g>
      <g
         id="patch_40">
        <path
           d="M 518.4 346.5  L 518.4 47.52  "
           style="fill:none;"
           id="path370" />
      </g>
      <g
         id="patch_41">
        <path
           d="M 72 346.5  L 518.4 346.5  "
           style="fill:none;"
           id="path373" />
      </g>
      <g
         id="patch_42">
        <path
           d="M 72 47.52  L 518.4 47.52  "
           style="fill:none;"
           id="path376" />
      </g>
    </g>
  </g>
  <defs
     id="defs384">
    <clipPath
       id="p20aa652e69">
      <rect
         height="298.98"
         width="446.4"
         x="72"
         y="47.52"
         id="rect381" />
    </clipPath>
  </defs>
  <defs
     id="defs401">
    <pattern
       height="72"
       id="hbdb653145d"
       patternUnits="userSpaceOnUse"
       width="72"
       x="0"
       y="0">
      <rect
         fill="#005275"
         height="73"
         width="73"
         x="0"
         y="0"
         id="rect386" />
      <path
         d="M -36 36  L 36 -36  M -33 39  L 39 -33  M -30 42  L 42 -30  M -27 45  L 45 -27  M -24 48  L 48 -24  M -21 51  L 51 -21  M -18 54  L 54 -18  M -15 57  L 57 -15  M -12 60  L 60 -12  M -9 63  L 63 -9  M -6 66  L 66 -6  M -3 69  L 69 -3  M 0 72  L 72 0  M 3 75  L 75 3  M 6 78  L 78 6  M 9 81  L 81 9  M 12 84  L 84 12  M 15 87  L 87 15  M 18 90  L 90 18  M 21 93  L 93 21  M 24 96  L 96 24  M 27 99  L 99 27  M 30 102  L 102 30  M 33 105  L 105 33  M 36 108  L 108 36  "
         style="fill:#ffffff;stroke:#ffffff;stroke-linecap:butt;stroke-linejoin:miter;stroke-width:1.0;"
         id="path388" />
    </pattern>
    <pattern
       height="72"
       id="hb594e8640e"
       patternUnits="userSpaceOnUse"
       width="72"
       x="0"
       y="0">
      <rect
         fill="#df9c00"
         height="73"
         width="73"
         x="0"
         y="0"
         id="rect391" />
      <path
         d="M -36 36  L 36 -36  M -33 39  L 39 -33  M -30 42  L 42 -30  M -27 45  L 45 -27  M -24 48  L 48 -24  M -21 51  L 51 -21  M -18 54  L 54 -18  M -15 57  L 57 -15  M -12 60  L 60 -12  M -9 63  L 63 -9  M -6 66  L 66 -6  M -3 69  L 69 -3  M 0 72  L 72 0  M 3 75  L 75 3  M 6 78  L 78 6  M 9 81  L 81 9  M 12 84  L 84 12  M 15 87  L 87 15  M 18 90  L 90 18  M 21 93  L 93 21  M 24 96  L 96 24  M 27 99  L 99 27  M 30 102  L 102 30  M 33 105  L 105 33  M 36 108  L 108 36  "
         style="fill:#ffffff;stroke:#ffffff;stroke-linecap:butt;stroke-linejoin:miter;stroke-width:1.0;"
         id="path393" />
    </pattern>
    <pattern
       height="72"
       id="h31d23c55aa"
       patternUnits="userSpaceOnUse"
       width="72"
       x="0"
       y="0">
      <rect
         fill="#c63508"
         height="73"
         width="73"
         x="0"
         y="0"
         id="rect396" />
      <path
         d="M -36 36  L 36 -36  M -33 39  L 39 -33  M -30 42  L 42 -30  M -27 45  L 45 -27  M -24 48  L 48 -24  M -21 51  L 51 -21  M -18 54  L 54 -18  M -15 57  L 57 -15  M -12 60  L 60 -12  M -9 63  L 63 -9  M -6 66  L 66 -6  M -3 69  L 69 -3  M 0 72  L 72 0  M 3 75  L 75 3  M 6 78  L 78 6  M 9 81  L 81 9  M 12 84  L 84 12  M 15 87  L 87 15  M 18 90  L 90 18  M 21 93  L 93 21  M 24 96  L 96 24  M 27 99  L 99 27  M 30 102  L 102 30  M 33 105  L 105 33  M 36 108  L 108 36  "
         style="fill:#ffffff;stroke:#ffffff;stroke-linecap:butt;stroke-linejoin:miter;stroke-width:1.0;"
         id="path398" />
    </pattern>
  </defs>
</svg>
